M48
METRIC,LZ,000.000
;FILE_FORMAT=3:3
;TYPE=PLATED
;Layer: PTH_Through_Via
;EasyEDA v6.5.47, 2024-09-19 05:09:15
;e78f94bf6dc54b698cf268439f808c62,20cc673dbd184c8ca6733993ffc9aab1,10
;Gerber Generator version 0.2
;Holesize 1 = 0.800 mm
T01C0.800
%
G05
G90
T01
X122809Y070485
X092710Y041529
X094361Y044577
X090170Y045720
X059055Y041656
X060833Y044196
X063881Y043942
X137414Y034798
X083779Y085217
X078613Y033274
X040386Y072009
X044069Y089789
X085217Y056261
X082677Y030099
X054610Y029972
X090170Y089408
X053848Y073406
X056007Y065151
X080010Y027813
X110744Y028956
X110363Y039370
X113284Y071120
X120396Y083820
X105918Y057785
X109474Y058039
X114935Y064516
X124333Y058674
X099441Y062357
M30
