M48
METRIC,LZ,000.000
;FILE_FORMAT=3:3
;TYPE=PLATED
;Layer: PTH_Through
;EasyEDA v6.5.47, 2024-09-19 05:09:15
;e78f94bf6dc54b698cf268439f808c62,20cc673dbd184c8ca6733993ffc9aab1,10
;Gerber Generator version 0.2
;Holesize 1 = 0.800 mm
T01C0.800
;Holesize 2 = 0.889 mm
T02C0.889
;Holesize 3 = 0.900 mm
T03C0.900
;Holesize 4 = 0.914 mm
T04C0.914
;Holesize 5 = 0.915 mm
T05C0.915
;Holesize 6 = 1.000 mm
T06C1.000
;Holesize 7 = 1.101 mm
T07C1.101
;Holesize 8 = 1.200 mm
T08C1.200
;Holesize 9 = 1.301 mm
T09C1.301
%
G05
G90
T01
X100203Y086106
X122809Y070485
X092710Y041529
X094361Y044577
X090170Y045720
X059055Y041656
X060833Y044196
X063881Y043942
X137414Y034798
X083779Y085217
X078613Y033274
X040386Y072009
X044069Y089789
X085217Y056261
X082677Y030099
X054610Y029972
X090170Y089408
X053848Y073406
X056007Y065151
X080010Y027813
X110744Y028956
X110363Y039370
X113284Y071120
X120396Y083820
X105918Y057785
X109474Y058039
X114935Y064516
X124333Y058674
X099441Y062357
T02
X050038Y044577
T03
X109347Y079121
X097028Y079502
X082423Y071374
X060325Y033528
X086995Y071374
T04
X107442Y049530
T05
X030362Y090182
T06
X127254Y064897G85X127254Y064897
X127254Y067437G85X127254Y067437
X127254Y069977G85X127254Y069977
X127254Y072517G85X127254Y072517
X127254Y075057G85X127254Y075057
X032902Y090182
X027822Y090182
X025282Y090182
X016129Y056896
X016129Y054356
X016129Y051816
X016129Y049276
X075438Y087757
X075438Y085217
X075438Y080137
X075438Y082677
X075438Y072517
X075438Y069977
X075438Y075057
X075438Y077597
X075438Y057277
X075438Y054737
X075438Y049657
X075438Y052197
X075438Y062357
X075438Y059817
X075438Y064897
X075438Y067437
X075438Y047117
X075438Y044577
X075438Y042037
X050038Y042037
X050038Y047117
X050038Y067437
X050038Y064897
X050038Y059817
X050038Y062357
X050038Y052197
X050038Y049657
X050038Y054737
X050038Y057277
X050038Y077597
X050038Y075057
X050038Y069977
X050038Y072517
X050038Y082677
X050038Y080137
X050038Y085217
X050038Y087757
X115062Y049530
X112522Y049530
X109982Y049530
X104902Y049530
X102362Y049530
X127370Y090089
X032531Y029340
X032531Y026800
X032531Y024260
X032531Y021720
X032531Y019180
X074676Y033274
X072136Y033274
X115443Y076327
X115443Y078867
X103886Y076581
X103886Y079121
X102362Y062484
X112522Y062484
X109347Y068961
X097028Y069342
X090678Y081788
X090678Y071628
X082423Y081534
X050165Y033528
X096266Y064262
X086106Y064262
X086614Y059944
X096774Y059944
X086995Y081534
X019812Y039624
X019812Y042164
T07
X129910Y082469
X127370Y082469
X129910Y085009
X127370Y085009
X129910Y087549
X127370Y087549
X129910Y090089
T08
X112141Y088646
X109601Y091186
X109601Y086106
X114681Y086106
X114681Y091186
X097663Y088646
X095123Y091186
X095123Y086106
X100203Y091186
X039041Y014006
X045541Y014006
X045541Y018506
X039041Y018506
X050471Y014006
X056971Y014006
X056971Y018506
X050471Y018506
X062663Y014260
X069163Y014260
X069163Y018760
X062663Y018760
X074601Y014260
X081101Y014260
X081101Y018760
X074601Y018760
X086666Y014387
X093166Y014387
X093166Y018887
X086666Y018887
X153416Y024892
X153416Y038862
X130556Y024892
X130556Y038862
X130556Y027892
X130556Y035862
X025579Y051725
X032079Y051725
X032079Y056225
X025579Y056225
X025325Y042073
X031825Y042073
X031825Y046573
X025325Y046573
X128464Y056420
X128464Y058960
X128464Y044960
X128464Y047500
X154464Y044960
X154464Y047500
X154464Y056420
X154464Y058960
T09
X146649Y017018
X141641Y017018
X132679Y016891
X127671Y016891
M30
