G04 Layer: TopLayer*
G04 EasyEDA v6.5.47, 2024-09-19 05:09:15*
G04 e78f94bf6dc54b698cf268439f808c62,20cc673dbd184c8ca6733993ffc9aab1,10*
G04 Gerber Generator version 0.2*
G04 Scale: 100 percent, Rotated: No, Reflected: No *
G04 Dimensions in millimeters *
G04 leading zeros omitted , absolute positions ,4 integer and 5 decimal *
%FSLAX45Y45*%
%MOMM*%

%ADD10C,0.7000*%
%ADD11C,0.6000*%
%ADD12C,0.8000*%
%ADD13R,1.8001X1.1001*%
%ADD14R,1.7000X1.5080*%
%ADD15C,1.7000*%
%ADD16C,2.5000*%
%ADD17C,2.0320*%
%ADD18C,2.0000*%
%ADD19C,1.8000*%
%ADD20C,1.5240*%
%ADD21C,2.2000*%
%ADD22C,2.3000*%
%ADD23R,1.5748X1.8000*%
%ADD24C,1.5748*%
%ADD25R,1.8000X1.5748*%
%ADD26R,1.6000X1.7000*%
%ADD27R,2.0000X2.0000*%
%ADD28C,1.8796*%
%ADD29C,1.5000*%
%ADD30C,1.4000*%
%ADD31C,1.6000*%
%ADD32C,0.0124*%

%LPD*%
D10*
X7543800Y6489700D02*
G01*
X7950200Y6489700D01*
X8153400Y6692900D01*
X8572500Y6692900D01*
X8686800Y6807200D01*
X8686800Y7124700D01*
X8699500Y7137400D01*
X11506200Y4953000D02*
G01*
X12268200Y4953000D01*
X12846405Y5531205D01*
X12846405Y5642000D01*
X10947400Y5803900D02*
G01*
X10947400Y5994400D01*
X10477500Y6464300D01*
X9664700Y6464300D01*
X9626600Y6426200D01*
X10591800Y5778500D02*
G01*
X10591800Y5892800D01*
X10236200Y6248400D01*
D11*
X13741400Y3479800D02*
G01*
X13741400Y3390900D01*
X13525500Y3175000D01*
X9804400Y3175000D01*
X8674100Y4305300D01*
X8674100Y4965700D01*
X9321800Y5613400D01*
X9321800Y6667500D01*
X9588500Y6934200D01*
X9702800Y6934200D01*
D10*
X12039600Y8382000D02*
G01*
X12039600Y8394700D01*
X12357100Y8712200D01*
X12357100Y9055100D01*
X12598400Y9296400D01*
X12915900Y9296400D01*
X13004800Y9207500D01*
X13004800Y9022689D01*
X12991007Y9008897D01*
X11252200Y6248400D02*
G01*
X11252200Y6337300D01*
X11328400Y6413500D01*
X11328400Y7112000D01*
X7873822Y9220377D02*
G01*
X7886522Y9220377D01*
X7975600Y9131300D01*
X7975600Y7861300D01*
X8267700Y7569200D01*
X9321800Y7569200D01*
X9690100Y7200900D01*
X9690100Y6946900D01*
X9702800Y6934200D01*
X7543800Y7505700D02*
G01*
X5549900Y7505700D01*
X5384800Y7340600D01*
X5003800Y5727700D02*
G01*
X4686300Y5727700D01*
X4508500Y5549900D01*
X4508500Y4276605D01*
X4577798Y4207306D01*
X11036300Y3937000D02*
G01*
X11036300Y4914900D01*
X10998200Y4953000D01*
X8001000Y2781300D02*
G01*
X8001000Y3124200D01*
X8216900Y3340100D01*
X9093200Y3340100D01*
X9537700Y2895600D01*
X11074400Y2895600D01*
X7543800Y7251700D02*
G01*
X7302500Y7251700D01*
X7137400Y7086600D01*
X7137400Y4419600D01*
X6743700Y4025900D01*
X6743700Y2832100D01*
X7454900Y2120900D01*
X7454900Y1881200D01*
X7460106Y1875993D01*
X12846405Y4750003D02*
G01*
X12846405Y4642205D01*
X12712700Y4508500D01*
X11544300Y4508500D01*
X11252200Y4800600D01*
X11252200Y4953000D01*
D11*
X5384800Y7340600D02*
G01*
X5384800Y6731000D01*
X5600700Y6515100D01*
X8817889Y9049994D02*
G01*
X8907805Y9049994D01*
X9017000Y8940800D01*
X5461000Y2997200D02*
G01*
X5461000Y6311900D01*
X5334000Y6438900D01*
X5054600Y6438900D01*
X5003800Y6489700D01*
X12991007Y8754897D02*
G01*
X13216102Y8754897D01*
X13296900Y8674100D01*
X15011400Y8674100D01*
X15430500Y8255000D01*
X15430500Y6464300D01*
X15303500Y6337300D01*
X15049500Y6337300D01*
X14693900Y5981700D01*
X14693900Y3937000D01*
X13639800Y2882900D01*
X13639800Y2362200D01*
X13462000Y2184400D01*
X9080500Y2184400D01*
X8737600Y2527300D01*
X8737600Y2540000D01*
X8267700Y3009900D01*
X9067800Y7162800D02*
G01*
X9067800Y5829300D01*
X8813800Y5575300D01*
X8572500Y5575300D01*
X8521700Y5626100D01*
X2532506Y4657293D02*
G01*
X2532506Y4666106D01*
X2882900Y5016500D01*
X2882900Y5829300D01*
X3022600Y5969000D01*
X3886200Y5969000D01*
X4368800Y6451600D01*
X4368800Y6870700D01*
X4038600Y7200900D01*
D10*
X10934700Y6896100D02*
G01*
X10896600Y6934200D01*
X9702800Y6934200D01*
X11544300Y7632700D02*
G01*
X11531600Y7620000D01*
X11239500Y7620000D01*
X10947400Y7912100D01*
X10934700Y7912100D01*
X10388600Y7658100D02*
G01*
X10363200Y7632700D01*
X9880600Y7632700D01*
X9702800Y7810500D01*
X9702800Y7950200D01*
X8242300Y8153400D02*
G01*
X8699500Y8153400D01*
X8699500Y8153400D02*
G01*
X8817891Y8271791D01*
X8817891Y8730002D01*
X8817889Y9049994D02*
G01*
X8886494Y9118600D01*
X9512300Y9118600D01*
X1981200Y3962400D02*
G01*
X3086100Y3962400D01*
X3187700Y4064000D01*
X3187700Y4202099D01*
X3182493Y4207306D01*
X3182493Y4207306D02*
G01*
X5000193Y4207306D01*
X5003800Y4203700D01*
X12280900Y7048500D02*
G01*
X12280900Y8280400D01*
X12496800Y8496300D01*
X12732410Y8496300D01*
X12737007Y8500897D01*
D11*
X9271000Y4152900D02*
G01*
X10388600Y4152900D01*
X10756900Y4521200D01*
X10756900Y4940300D01*
X10744200Y4953000D01*
X5016500Y3352800D02*
G01*
X2082800Y3352800D01*
X1714500Y3721100D01*
X1714500Y4470400D01*
X1854200Y4610100D01*
X2070100Y4610100D01*
X2222500Y4762500D01*
X2222500Y5287086D01*
X2557906Y5622493D01*
X3182493Y4207306D02*
G01*
X3182493Y4058793D01*
X3086100Y3962400D01*
X5905500Y4165600D02*
G01*
X5880100Y4165600D01*
X5791200Y4076700D01*
X5791200Y2351100D01*
X6266306Y1875993D01*
X5047106Y1850593D02*
G01*
X5274106Y1850593D01*
X5384800Y1739900D01*
X5384800Y1308100D01*
X5486400Y1206500D01*
X6413500Y1206500D01*
X6578600Y1371600D01*
X6578600Y2222500D01*
X6261100Y2540000D01*
X6261100Y4241800D01*
X6083300Y4419600D01*
X3904106Y1850593D02*
G01*
X4067606Y1850593D01*
X4203700Y1714500D01*
X4203700Y1257300D01*
X4368800Y1092200D01*
X7023100Y1092200D01*
X7213600Y1282700D01*
X7213600Y1905000D01*
X6438900Y2679700D01*
X6438900Y4343400D01*
X6388100Y4394200D01*
X2557906Y5622493D02*
G01*
X2557906Y6113906D01*
X2755900Y6311900D01*
X3454400Y6311900D01*
X3556000Y6413500D01*
X3556000Y7112000D01*
X3949700Y7505700D01*
X3949700Y7505700D02*
G01*
X5003800Y7505700D01*
X7543800Y4203700D02*
G01*
X7543800Y3403600D01*
X7467600Y3327400D01*
X7467600Y3327400D02*
G01*
X7467600Y3263900D01*
X7734300Y2997200D01*
X7734300Y1801799D01*
X8110093Y1426006D01*
X8377910Y8730005D02*
G01*
X8377910Y8521700D01*
X7861300Y3327400D02*
G01*
X7874000Y3327400D01*
X7988300Y3441700D01*
X7988300Y6146800D01*
X8280400Y6438900D01*
X8597900Y6438900D01*
X8610600Y6426200D01*
D10*
X12725400Y6997700D02*
G01*
X12560300Y6997700D01*
X12426467Y6863867D01*
X12173432Y6863867D01*
X11938000Y7099300D01*
X11938000Y7670800D01*
X11734800Y7874000D01*
X11557000Y7874000D01*
X11544300Y7886700D01*
X12725400Y6743700D02*
G01*
X12585700Y6743700D01*
X12484100Y6642100D01*
X11874500Y6642100D01*
X11722100Y6794500D01*
X11722100Y7086600D01*
X11417300Y7391400D01*
X10998200Y7391400D01*
X10490200Y7899400D01*
X10401300Y7899400D01*
X10388600Y7912100D01*
X11493500Y6451600D02*
G01*
X11747500Y6197600D01*
X13347700Y6197600D01*
X13500100Y6350000D01*
X13500100Y7366000D01*
X13360400Y7505700D01*
X12725400Y7505700D01*
X9436100Y4457700D02*
G01*
X9436100Y5029200D01*
X9956800Y5549900D01*
X12115800Y5549900D01*
X12433300Y5867400D01*
X9017000Y4572000D02*
G01*
X9017000Y4889500D01*
X9893300Y5765800D01*
X9893300Y6184900D01*
X9944100Y6235700D01*
X2528188Y9018193D02*
G01*
X2528188Y9208388D01*
X2654300Y9334500D01*
X4632739Y9334500D01*
X5051839Y9334500D01*
X7873745Y9220454D02*
G01*
X7759700Y9334500D01*
X5016500Y9334500D01*
D11*
X4406900Y8978900D02*
G01*
X4622800Y9194800D01*
X7505700Y9194800D01*
X7797800Y8902700D01*
X7797800Y7581900D01*
X8242300Y7137400D01*
D12*
X5384800Y7340600D02*
G01*
X5384800Y8851900D01*
X5219700Y9017000D01*
X4851400Y9017000D01*
X4622800Y8788400D01*
X4622800Y8547100D01*
X4343400Y8267700D01*
X3238500Y8267700D01*
X2782188Y8724011D01*
X2782188Y9018193D01*
D13*
G01*
X8377910Y9049994D03*
G01*
X8377910Y8730005D03*
G01*
X8817889Y8730005D03*
G01*
X8817889Y9049994D03*
D14*
G01*
X12725400Y6489700D03*
D15*
G01*
X12725400Y6743700D03*
G01*
X12725400Y6997700D03*
G01*
X12725400Y7251700D03*
G01*
X12725400Y7505700D03*
D16*
G01*
X14664943Y1701800D03*
G01*
X14164056Y1701800D03*
D17*
G01*
X11214100Y8864600D03*
G01*
X10960100Y9118600D03*
G01*
X10960100Y8610600D03*
G01*
X11468100Y8610600D03*
G01*
X11468100Y9118600D03*
G01*
X9766300Y8864600D03*
G01*
X9512300Y9118600D03*
G01*
X9512300Y8610600D03*
G01*
X10020300Y8610600D03*
G01*
X10020300Y9118600D03*
D18*
G01*
X3904106Y1400606D03*
G01*
X4554093Y1400606D03*
G01*
X4554093Y1850593D03*
G01*
X3904106Y1850593D03*
G01*
X5047106Y1400606D03*
G01*
X5697093Y1400606D03*
G01*
X5697093Y1850593D03*
G01*
X5047106Y1850593D03*
G01*
X6266306Y1426006D03*
G01*
X6916293Y1426006D03*
G01*
X6916293Y1875993D03*
G01*
X6266306Y1875993D03*
G01*
X7460106Y1426006D03*
G01*
X8110093Y1426006D03*
G01*
X8110093Y1875993D03*
G01*
X7460106Y1875993D03*
G01*
X8666606Y1438706D03*
G01*
X9316593Y1438706D03*
G01*
X9316593Y1888693D03*
G01*
X8666606Y1888693D03*
D19*
G01*
X3290188Y9018193D03*
D20*
G01*
X3036188Y9018193D03*
D19*
G01*
X2782188Y9018193D03*
G01*
X2528188Y9018193D03*
D21*
G01*
X15341600Y2489200D03*
G01*
X15341600Y3886200D03*
G01*
X13055600Y2489200D03*
G01*
X13055600Y3886200D03*
D22*
G01*
X13055600Y2789199D03*
G01*
X13055600Y3586200D03*
D18*
G01*
X2557906Y5172506D03*
G01*
X3207893Y5172506D03*
G01*
X3207893Y5622493D03*
G01*
X2557906Y5622493D03*
D23*
G01*
X1612900Y5689600D03*
D15*
G01*
X1612900Y5435600D03*
G01*
X1612900Y5181600D03*
D19*
G01*
X1612900Y4927600D03*
D18*
G01*
X2532506Y4207306D03*
G01*
X3182493Y4207306D03*
G01*
X3182493Y4657293D03*
G01*
X2532506Y4657293D03*
D15*
G01*
X7543800Y8775700D03*
D24*
G01*
X7543800Y8521700D03*
G01*
X7543800Y8013700D03*
D15*
G01*
X7543800Y8267700D03*
G01*
X7543800Y7251700D03*
D24*
G01*
X7543800Y6997700D03*
D15*
G01*
X7543800Y7505700D03*
G01*
X7543800Y7759700D03*
G01*
X7543800Y5727700D03*
D24*
G01*
X7543800Y5473700D03*
G01*
X7543800Y4965700D03*
D19*
G01*
X7543800Y5219700D03*
D15*
G01*
X7543800Y6235700D03*
G01*
X7543800Y5981700D03*
G01*
X7543800Y6489700D03*
G01*
X7543800Y6743700D03*
D24*
G01*
X7543800Y4711700D03*
G01*
X7543800Y4457700D03*
D25*
G01*
X7543800Y4203700D03*
D19*
G01*
X5003800Y4203700D03*
G01*
X5003800Y4457700D03*
D24*
G01*
X5003800Y4711700D03*
D15*
G01*
X5003800Y6743700D03*
G01*
X5003800Y6489700D03*
G01*
X5003800Y5981700D03*
G01*
X5003800Y6235700D03*
G01*
X5003800Y5219700D03*
G01*
X5003800Y4965700D03*
D24*
G01*
X5003800Y5473700D03*
D15*
G01*
X5003800Y5727700D03*
G01*
X5003800Y7759700D03*
G01*
X5003800Y7505700D03*
G01*
X5003800Y6997700D03*
D24*
G01*
X5003800Y7251700D03*
D15*
G01*
X5003800Y8267700D03*
G01*
X5003800Y8013700D03*
D24*
G01*
X5003800Y8521700D03*
D15*
G01*
X5003800Y8775700D03*
G01*
X11506200Y4953000D03*
G01*
X11252200Y4953000D03*
D19*
G01*
X10998200Y4953000D03*
D20*
G01*
X10744200Y4953000D03*
G01*
X10490200Y4953000D03*
D15*
G01*
X10236200Y4953000D03*
G01*
X12991007Y8246897D03*
G01*
X12737007Y8246897D03*
G01*
X12991007Y8500897D03*
G01*
X12737007Y8500897D03*
G01*
X12991007Y8754897D03*
G01*
X12737007Y8754897D03*
G01*
X12991007Y9008897D03*
D26*
G01*
X12737007Y9008897D03*
D19*
G01*
X3253104Y2934030D03*
G01*
X3253104Y2680030D03*
G01*
X3253104Y2426030D03*
G01*
X3253104Y2172030D03*
G01*
X3253104Y1918030D03*
D16*
G01*
X13267943Y1689100D03*
G01*
X12767056Y1689100D03*
D27*
G01*
X12846405Y5642000D03*
G01*
X12846405Y5896000D03*
G01*
X12846405Y4496003D03*
G01*
X12846405Y4750003D03*
G01*
X15446400Y4496003D03*
G01*
X15446400Y4750003D03*
G01*
X15446400Y5642000D03*
G01*
X15446400Y5896000D03*
D15*
G01*
X7467600Y3327400D03*
G01*
X7213600Y3327400D03*
G01*
X11544300Y7632700D03*
D19*
G01*
X11544300Y7886700D03*
D15*
G01*
X10388600Y7658100D03*
D19*
G01*
X10388600Y7912100D03*
D28*
G01*
X10236200Y6248400D03*
G01*
X11252200Y6248400D03*
G01*
X10934700Y6896100D03*
G01*
X10934700Y7912100D03*
G01*
X9702800Y6934200D03*
G01*
X9702800Y7950200D03*
G01*
X9067800Y8178800D03*
G01*
X9067800Y7162800D03*
G01*
X8242300Y7137400D03*
G01*
X8242300Y8153400D03*
G01*
X5016500Y3352800D03*
G01*
X6032500Y3352800D03*
G01*
X9626600Y6426200D03*
G01*
X8610600Y6426200D03*
G01*
X8661400Y5994400D03*
G01*
X9677400Y5994400D03*
G01*
X8699500Y7137400D03*
G01*
X8699500Y8153400D03*
D19*
G01*
X1981200Y3962400D03*
G01*
X1981200Y4216400D03*
D29*
G01*
X12280900Y7048500D03*
G01*
X9271000Y4152900D03*
G01*
X9436100Y4457700D03*
G01*
X9017000Y4572000D03*
G01*
X5905500Y4165600D03*
G01*
X6083300Y4419600D03*
G01*
X6388100Y4394200D03*
G01*
X13741400Y3479800D03*
G01*
X8377910Y8521700D03*
G01*
X7861300Y3327400D03*
G01*
X4038600Y7200900D03*
G01*
X4406900Y8978900D03*
D30*
G01*
X8521700Y5626100D03*
G01*
X8267700Y3009900D03*
G01*
X5461000Y2997200D03*
G01*
X9017000Y8940800D03*
G01*
X5384800Y7340600D03*
G01*
X5600700Y6515100D03*
G01*
X8001000Y2781300D03*
G01*
X11074400Y2895600D03*
G01*
X11036300Y3937000D03*
G01*
X11328400Y7112000D03*
G01*
X12039600Y8382000D03*
D29*
G01*
X10591800Y5778500D03*
G01*
X10947400Y5803900D03*
G01*
X11493500Y6451600D03*
G01*
X12433300Y5867400D03*
D31*
G01*
X9944100Y6235700D03*
M02*
