G04 Layer: TopSilkscreenLayer*
G04 EasyEDA v6.5.47, 2024-09-19 05:09:15*
G04 e78f94bf6dc54b698cf268439f808c62,20cc673dbd184c8ca6733993ffc9aab1,10*
G04 Gerber Generator version 0.2*
G04 Scale: 100 percent, Rotated: No, Reflected: No *
G04 Dimensions in millimeters *
G04 leading zeros omitted , absolute positions ,4 integer and 5 decimal *
%FSLAX45Y45*%
%MOMM*%

%ADD10C,0.1524*%
%ADD11C,0.2032*%
%ADD12C,0.1422*%
%ADD13C,0.1016*%
%ADD14C,0.1270*%
%ADD15C,0.2540*%
%ADD16C,0.2030*%
%ADD17C,0.1999*%
%ADD18C,0.2007*%
%ADD19C,0.0110*%

%LPD*%
G36*
X8693708Y5080812D02*
G01*
X8690508Y5080762D01*
X8685225Y5079542D01*
X8681974Y5078425D01*
X8678214Y5076698D01*
X8673236Y5071262D01*
X8671052Y5065522D01*
X8671001Y5057140D01*
X8674963Y5050078D01*
X8681262Y5045405D01*
X8681262Y5011978D01*
X8654694Y5010708D01*
X8633206Y5009235D01*
X8611158Y5007152D01*
X8590940Y5004816D01*
X8568334Y5001361D01*
X8551164Y4998212D01*
X8537905Y4995519D01*
X8507222Y4988255D01*
X8490254Y4983734D01*
X8470900Y4978095D01*
X8451088Y4971542D01*
X8427923Y4963109D01*
X8401862Y4952644D01*
X8376107Y4941163D01*
X8361629Y4934204D01*
X8344712Y4925618D01*
X8330082Y4917694D01*
X8316010Y4909566D01*
X8303056Y4901590D01*
X8276640Y4883861D01*
X8258403Y4870602D01*
X8240928Y4856784D01*
X8233054Y4850180D01*
X8226907Y4844694D01*
X8225028Y4843932D01*
X8222691Y4845202D01*
X8210092Y4855108D01*
X8204657Y4858969D01*
X8204657Y4868367D01*
X8202777Y4874615D01*
X8196224Y4881118D01*
X8192465Y4882489D01*
X8189061Y4883404D01*
X8183473Y4884521D01*
X8178393Y4883454D01*
X8175193Y4882540D01*
X8171586Y4881067D01*
X8166862Y4876139D01*
X8165439Y4874056D01*
X8164322Y4871669D01*
X8162391Y4865217D01*
X8164322Y4857546D01*
X8166201Y4854549D01*
X8168081Y4852060D01*
X8170367Y4849876D01*
X8172958Y4848047D01*
X8175802Y4846675D01*
X8178596Y4845608D01*
X8188553Y4845608D01*
X8189061Y4846320D01*
X8189874Y4846980D01*
X8191042Y4846828D01*
X8192719Y4845862D01*
X8201761Y4838192D01*
X8209483Y4831283D01*
X8209940Y4830673D01*
X8206994Y4827676D01*
X8190331Y4812233D01*
X8180628Y4802835D01*
X8171383Y4793488D01*
X8163001Y4784598D01*
X8154111Y4774742D01*
X8142274Y4760671D01*
X8136737Y4753762D01*
X8117078Y4726940D01*
X8107984Y4712766D01*
X8106003Y4713782D01*
X8098281Y4719777D01*
X8094573Y4722063D01*
X8089341Y4724704D01*
X8089087Y4725517D01*
X8088325Y4735322D01*
X8084413Y4742383D01*
X8079536Y4745532D01*
X8076336Y4747260D01*
X8072374Y4748885D01*
X8061502Y4748885D01*
X8054492Y4745837D01*
X8048802Y4740097D01*
X8045754Y4733594D01*
X8045754Y4724857D01*
X8048752Y4719523D01*
X8051139Y4716322D01*
X8054695Y4712817D01*
X8061502Y4709871D01*
X8073186Y4709871D01*
X8078114Y4711700D01*
X8079536Y4711954D01*
X8080502Y4711750D01*
X8084108Y4708956D01*
X8091830Y4703521D01*
X8097520Y4699965D01*
X8098281Y4698542D01*
X8097266Y4696155D01*
X8085531Y4678273D01*
X8079333Y4667859D01*
X8071662Y4654092D01*
X8064296Y4640122D01*
X8053882Y4618888D01*
X8048955Y4607052D01*
X8043875Y4593742D01*
X8038490Y4578350D01*
X8033461Y4562805D01*
X8029448Y4549292D01*
X8027111Y4539691D01*
X8026806Y4536541D01*
X8015071Y4536541D01*
X8011464Y4543196D01*
X8007350Y4546092D01*
X8004251Y4547768D01*
X7999780Y4549546D01*
X7991297Y4549546D01*
X7982966Y4546142D01*
X7977936Y4541266D01*
X7974685Y4534255D01*
X7974736Y4527550D01*
X7976362Y4523486D01*
X7978241Y4520336D01*
X7981746Y4515662D01*
X7989976Y4512005D01*
X8002371Y4512005D01*
X8010144Y4515612D01*
X8014360Y4520692D01*
X8114538Y4520692D01*
X8127136Y4511040D01*
X8138159Y4502251D01*
X8228838Y4501438D01*
X8255457Y4500981D01*
X8260892Y4500422D01*
X8263077Y4501743D01*
X8265414Y4515408D01*
X8263839Y4516170D01*
X8261045Y4516678D01*
X8254949Y4517288D01*
X8248700Y4514697D01*
X8145576Y4515358D01*
X8143392Y4516628D01*
X8131149Y4526280D01*
X8120227Y4534154D01*
X8117433Y4535678D01*
X8115604Y4536186D01*
X8051088Y4535474D01*
X8050225Y4537456D01*
X8052562Y4545888D01*
X8059877Y4567783D01*
X8068005Y4589881D01*
X8074355Y4606086D01*
X8079892Y4618482D01*
X8082025Y4622647D01*
X8082838Y4625035D01*
X8088020Y4635195D01*
X8103514Y4663084D01*
X8113522Y4679492D01*
X8117281Y4684369D01*
X8119922Y4684522D01*
X8123834Y4681728D01*
X8130387Y4677714D01*
X8137042Y4674514D01*
X8144052Y4672025D01*
X8151774Y4670094D01*
X8156346Y4669180D01*
X8162544Y4670704D01*
X8167878Y4672685D01*
X8176463Y4676495D01*
X8179511Y4682591D01*
X8181035Y4685131D01*
X8182813Y4687468D01*
X8184896Y4689703D01*
X8191296Y4692548D01*
X8199780Y4692548D01*
X8205368Y4689703D01*
X8207502Y4688078D01*
X8209127Y4686249D01*
X8211515Y4681524D01*
X8211515Y4674870D01*
X8206892Y4667453D01*
X8200186Y4662220D01*
X8196478Y4662220D01*
X8195614Y4660138D01*
X8211210Y4645558D01*
X8227161Y4631740D01*
X8301939Y4631893D01*
X8306460Y4630420D01*
X8309102Y4629861D01*
X8311896Y4629708D01*
X8317331Y4640478D01*
X8317331Y4644136D01*
X8308086Y4645456D01*
X8301380Y4642713D01*
X8237981Y4642815D01*
X8232190Y4643780D01*
X8221116Y4653483D01*
X8219135Y4655718D01*
X8219135Y4657293D01*
X8222843Y4661916D01*
X8225028Y4665268D01*
X8226856Y4668672D01*
X8228075Y4671720D01*
X8229092Y4675124D01*
X8228482Y4686401D01*
X8223554Y4695952D01*
X8220659Y4698898D01*
X8217560Y4701590D01*
X8214004Y4703978D01*
X8210143Y4705959D01*
X8206333Y4707331D01*
X8202472Y4708398D01*
X8189163Y4708448D01*
X8184337Y4706874D01*
X8179206Y4704892D01*
X8174888Y4702302D01*
X8170773Y4698695D01*
X8162594Y4689754D01*
X8159242Y4686757D01*
X8155431Y4685893D01*
X8150910Y4687417D01*
X8146542Y4689246D01*
X8141258Y4691888D01*
X8135874Y4694885D01*
X8127898Y4700117D01*
X8128000Y4701540D01*
X8128812Y4703368D01*
X8135924Y4714494D01*
X8146745Y4729378D01*
X8165642Y4753051D01*
X8180222Y4770323D01*
X8193227Y4784191D01*
X8208518Y4798974D01*
X8227059Y4816195D01*
X8228279Y4815586D01*
X8235086Y4810201D01*
X8269274Y4781753D01*
X8297722Y4758639D01*
X8323630Y4737049D01*
X8350554Y4715154D01*
X8357717Y4709871D01*
X8364321Y4705451D01*
X8365642Y4704791D01*
X8366963Y4706061D01*
X8371941Y4712157D01*
X8373719Y4713732D01*
X8374938Y4714138D01*
X8374938Y4716830D01*
X8354872Y4734407D01*
X8283397Y4795012D01*
X8243112Y4828641D01*
X8243112Y4830876D01*
X8251494Y4838090D01*
X8261350Y4845862D01*
X8295081Y4870297D01*
X8315604Y4883861D01*
X8336889Y4896764D01*
X8347760Y4902911D01*
X8364321Y4911699D01*
X8383016Y4920691D01*
X8406790Y4931308D01*
X8430514Y4941316D01*
X8440775Y4945430D01*
X8455152Y4950714D01*
X8465210Y4954168D01*
X8488934Y4961432D01*
X8519363Y4969713D01*
X8535416Y4973726D01*
X8539530Y4974386D01*
X8540343Y4974894D01*
X8540851Y4975606D01*
X8544610Y4975606D01*
X8539937Y4966411D01*
X8535924Y4959299D01*
X8529472Y4948834D01*
X8534247Y4942890D01*
X8568436Y4903419D01*
X8570010Y4903622D01*
X8572144Y4904994D01*
X8576513Y4908499D01*
X8575040Y4911090D01*
X8546947Y4947056D01*
X8547709Y4950053D01*
X8549081Y4952746D01*
X8554008Y4960264D01*
X8557869Y4966868D01*
X8560917Y4972659D01*
X8562441Y4976469D01*
X8562848Y4978450D01*
X8576818Y4981397D01*
X8597188Y4984496D01*
X8617712Y4986934D01*
X8644686Y4989068D01*
X8672068Y4990490D01*
X8679789Y4990642D01*
X8681059Y4990490D01*
X8681313Y4986223D01*
X8681415Y4963718D01*
X8681720Y4951984D01*
X8682278Y4940960D01*
X8700820Y4940960D01*
X8701328Y4943195D01*
X8701633Y4951323D01*
X8701786Y4990084D01*
X8704376Y4990998D01*
X8742730Y4989118D01*
X8764778Y4987340D01*
X8784082Y4984953D01*
X8817203Y4979720D01*
X8819794Y4970068D01*
X8821216Y4966309D01*
X8823096Y4962448D01*
X8831072Y4948478D01*
X8831275Y4947615D01*
X8828176Y4943195D01*
X8802065Y4910277D01*
X8806484Y4907178D01*
X8808110Y4905806D01*
X8809583Y4904994D01*
X8811158Y4904841D01*
X8817914Y4913325D01*
X8843111Y4943144D01*
X8846108Y4947056D01*
X8847074Y4949342D01*
X8841282Y4961178D01*
X8839047Y4966716D01*
X8837422Y4971440D01*
X8836812Y4974336D01*
X8836812Y4975606D01*
X8838336Y4975606D01*
X8842857Y4974793D01*
X8862110Y4970221D01*
X8884158Y4964328D01*
X8902598Y4958842D01*
X8913469Y4955286D01*
X8915806Y4954219D01*
X8919667Y4953558D01*
X8947353Y4943195D01*
X8968740Y4934661D01*
X8973566Y4932984D01*
X8984792Y4927904D01*
X9016390Y4912461D01*
X9043771Y4897780D01*
X9055862Y4890617D01*
X9082887Y4873498D01*
X9102648Y4859629D01*
X9126067Y4841849D01*
X9140291Y4830470D01*
X9124899Y4817821D01*
X9072829Y4773676D01*
X9020810Y4728819D01*
X9009126Y4718100D01*
X9007348Y4716018D01*
X9008160Y4714646D01*
X9012428Y4709668D01*
X9014155Y4707178D01*
X9015425Y4704791D01*
X9016542Y4704791D01*
X9018117Y4705350D01*
X9020860Y4707026D01*
X9031427Y4715002D01*
X9040164Y4722012D01*
X9093657Y4767224D01*
X9138716Y4804257D01*
X9153398Y4815992D01*
X9155480Y4815992D01*
X9177528Y4795266D01*
X9189821Y4783175D01*
X9198051Y4774742D01*
X9207449Y4764684D01*
X9216847Y4753356D01*
X9228886Y4738370D01*
X9240367Y4723282D01*
X9255201Y4702302D01*
X9255201Y4699812D01*
X9244177Y4693208D01*
X9239097Y4690618D01*
X9234424Y4688535D01*
X9226042Y4685893D01*
X9222028Y4686808D01*
X9214358Y4695799D01*
X9210954Y4699304D01*
X9207906Y4701997D01*
X9201454Y4706162D01*
X9193022Y4708550D01*
X9177477Y4708042D01*
X9167012Y4703521D01*
X9158528Y4695698D01*
X9155633Y4690008D01*
X9153906Y4685385D01*
X9152382Y4678019D01*
X9154617Y4669993D01*
X9156344Y4666386D01*
X9158478Y4663084D01*
X9163405Y4657496D01*
X9164218Y4655972D01*
X9163812Y4654905D01*
X9159900Y4652873D01*
X9150197Y4643120D01*
X9077756Y4643069D01*
X9074353Y4645863D01*
X9070644Y4645710D01*
X9068104Y4645253D01*
X9064752Y4644136D01*
X9065666Y4640630D01*
X9067292Y4636871D01*
X9071000Y4630064D01*
X9078468Y4630724D01*
X9087154Y4631893D01*
X9154769Y4631893D01*
X9176258Y4650638D01*
X9186570Y4660239D01*
X9183319Y4662119D01*
X9182252Y4662322D01*
X9180322Y4663186D01*
X9176461Y4665472D01*
X9171787Y4671974D01*
X9170162Y4679696D01*
X9171838Y4684623D01*
X9177223Y4690414D01*
X9182760Y4692548D01*
X9190075Y4692446D01*
X9196222Y4689957D01*
X9199930Y4687925D01*
X9205264Y4677003D01*
X9216999Y4671618D01*
X9226296Y4669383D01*
X9230715Y4670196D01*
X9238183Y4671974D01*
X9245600Y4674616D01*
X9252712Y4678070D01*
X9259468Y4682236D01*
X9264040Y4685436D01*
X9264954Y4685080D01*
X9266072Y4684115D01*
X9270136Y4678273D01*
X9276181Y4668367D01*
X9283446Y4655718D01*
X9291066Y4641697D01*
X9298381Y4627676D01*
X9304020Y4615992D01*
X9310217Y4601565D01*
X9316821Y4585411D01*
X9321850Y4572457D01*
X9330944Y4544974D01*
X9332214Y4540300D01*
X9332569Y4537659D01*
X9332569Y4535881D01*
X9263989Y4535830D01*
X9262567Y4535322D01*
X9258350Y4532426D01*
X9241993Y4519676D01*
X9236100Y4515307D01*
X9126423Y4515713D01*
X9118244Y4515967D01*
X9118803Y4510989D01*
X9120886Y4502912D01*
X9121698Y4500981D01*
X9122460Y4500270D01*
X9132570Y4501896D01*
X9243009Y4501896D01*
X9258909Y4514240D01*
X9266885Y4520692D01*
X9369602Y4520692D01*
X9371685Y4516831D01*
X9381134Y4512056D01*
X9395002Y4512005D01*
X9401657Y4515104D01*
X9404858Y4518406D01*
X9406737Y4520946D01*
X9408718Y4524603D01*
X9408769Y4535576D01*
X9404908Y4542485D01*
X9400743Y4545482D01*
X9397390Y4547412D01*
X9392259Y4549698D01*
X9382709Y4549140D01*
X9375089Y4545634D01*
X9371888Y4542231D01*
X9370669Y4540453D01*
X9370364Y4539437D01*
X9369552Y4538268D01*
X9367520Y4536490D01*
X9356648Y4536948D01*
X9352889Y4551680D01*
X9348520Y4566462D01*
X9343796Y4581144D01*
X9339630Y4592624D01*
X9334246Y4605832D01*
X9327642Y4621022D01*
X9321495Y4634128D01*
X9312656Y4650994D01*
X9304985Y4665065D01*
X9298330Y4676038D01*
X9284563Y4697526D01*
X9284411Y4698898D01*
X9288729Y4701438D01*
X9293453Y4704740D01*
X9302140Y4711293D01*
X9304832Y4711242D01*
X9306661Y4710836D01*
X9308947Y4709820D01*
X9321342Y4709769D01*
X9328861Y4713020D01*
X9334042Y4717745D01*
X9337344Y4725822D01*
X9337344Y4732934D01*
X9333636Y4740554D01*
X9326372Y4746650D01*
X9320580Y4748885D01*
X9310624Y4748885D01*
X9303766Y4746193D01*
X9300768Y4743450D01*
X9297670Y4739894D01*
X9295384Y4735779D01*
X9294063Y4731461D01*
X9293758Y4727092D01*
X9293910Y4725162D01*
X9286748Y4720691D01*
X9277350Y4713986D01*
X9275521Y4712970D01*
X9274505Y4712868D01*
X9273997Y4714138D01*
X9268510Y4722622D01*
X9253677Y4742942D01*
X9245498Y4753660D01*
X9237929Y4763008D01*
X9228836Y4773726D01*
X9220200Y4783429D01*
X9211564Y4792624D01*
X9202572Y4801666D01*
X9192818Y4811064D01*
X9171533Y4830826D01*
X9190075Y4847132D01*
X9192615Y4846421D01*
X9195714Y4845964D01*
X9201708Y4845507D01*
X9208922Y4847996D01*
X9215526Y4854041D01*
X9218371Y4861356D01*
X9218828Y4863998D01*
X9218574Y4866589D01*
X9216542Y4873294D01*
X9212681Y4877866D01*
X9211106Y4879289D01*
X9209227Y4880559D01*
X9203486Y4883454D01*
X9190888Y4883556D01*
X9185097Y4881016D01*
X9178239Y4874056D01*
X9176258Y4867249D01*
X9176258Y4858867D01*
X9160306Y4846523D01*
X9157512Y4843983D01*
X9156039Y4843983D01*
X9153347Y4845964D01*
X9143593Y4854448D01*
X9133636Y4862677D01*
X9122867Y4871059D01*
X9111538Y4879492D01*
X9099753Y4887874D01*
X9081668Y4900015D01*
X9069527Y4907686D01*
X9057487Y4914950D01*
X9045803Y4921605D01*
X9030055Y4929936D01*
X9012732Y4938369D01*
X8990177Y4948478D01*
X8968536Y4957673D01*
X8939072Y4969154D01*
X8917787Y4976266D01*
X8894114Y4983276D01*
X8869121Y4989830D01*
X8843873Y4995722D01*
X8819388Y5000548D01*
X8796680Y5004358D01*
X8774684Y5007152D01*
X8760663Y5008676D01*
X8745982Y5009946D01*
X8716060Y5011775D01*
X8702192Y5012080D01*
X8702751Y5045100D01*
X8708593Y5050383D01*
X8712047Y5057190D01*
X8712047Y5066436D01*
X8710168Y5070297D01*
X8708034Y5073243D01*
X8703970Y5077460D01*
X8697163Y5080050D01*
G37*
G36*
X8598763Y5065064D02*
G01*
X8593429Y5063591D01*
X8589924Y5062270D01*
X8585708Y5059934D01*
X8581847Y5054295D01*
X8580577Y5051399D01*
X8579713Y5048504D01*
X8579408Y5045760D01*
X8579408Y5043525D01*
X8582609Y5035804D01*
X8586419Y5032552D01*
X8589619Y5030520D01*
X8594598Y5028082D01*
X8602472Y5027422D01*
X8611108Y5029301D01*
X8617915Y5034788D01*
X8621471Y5042357D01*
X8620709Y5052060D01*
X8616492Y5058613D01*
X8611260Y5062016D01*
X8608466Y5063236D01*
X8605469Y5064150D01*
G37*
G36*
X8782202Y5064963D02*
G01*
X8780526Y5064861D01*
X8776766Y5063998D01*
X8773566Y5062880D01*
X8769096Y5060899D01*
X8765133Y5056378D01*
X8763812Y5054193D01*
X8762898Y5051958D01*
X8761780Y5046268D01*
X8762796Y5039004D01*
X8767724Y5032298D01*
X8777986Y5027625D01*
X8785098Y5027828D01*
X8788501Y5028539D01*
X8791702Y5029657D01*
X8798102Y5033416D01*
X8802065Y5039614D01*
X8803538Y5046827D01*
X8802014Y5052923D01*
X8798052Y5058714D01*
X8790889Y5063337D01*
X8784031Y5064760D01*
G37*
G36*
X8991142Y5015230D02*
G01*
X8987637Y5014366D01*
X8980881Y5011928D01*
X8976715Y5007559D01*
X8974429Y5004511D01*
X8972346Y5000498D01*
X8972296Y4989525D01*
X8976156Y4983835D01*
X8978087Y4981854D01*
X8980373Y4980076D01*
X8986418Y4976825D01*
X9000896Y4976774D01*
X9008465Y4981041D01*
X9013901Y4989474D01*
X9013901Y5000498D01*
X9012580Y5003190D01*
X9010904Y5005933D01*
X9008618Y5008575D01*
X9005976Y5010912D01*
X8999778Y5014569D01*
G37*
G36*
X8390077Y5015179D02*
G01*
X8387486Y5015077D01*
X8383117Y5014315D01*
X8379917Y5013248D01*
X8375192Y5011064D01*
X8371636Y5007254D01*
X8369655Y5004460D01*
X8367674Y5000498D01*
X8367674Y4990134D01*
X8372500Y4982413D01*
X8378444Y4978704D01*
X8382457Y4976723D01*
X8395868Y4976723D01*
X8399018Y4978603D01*
X8402828Y4981295D01*
X8405774Y4984445D01*
X8408009Y4988102D01*
X8409584Y4992370D01*
X8410498Y4995824D01*
X8408619Y5002377D01*
X8407400Y5004866D01*
X8405672Y5007152D01*
X8399830Y5012842D01*
X8392617Y5014823D01*
G37*
G36*
X8761425Y4960366D02*
G01*
X8759037Y4959807D01*
X8754872Y4958334D01*
X8751062Y4956048D01*
X8747861Y4953101D01*
X8745524Y4949698D01*
X8744153Y4947056D01*
X8743754Y4942433D01*
X8761679Y4942433D01*
X8763558Y4944567D01*
X8766454Y4944567D01*
X8767978Y4942078D01*
X8766505Y4939487D01*
X8762695Y4939487D01*
X8761679Y4942433D01*
X8743754Y4942433D01*
X8743442Y4938776D01*
X8746896Y4931054D01*
X8751925Y4926584D01*
X8759545Y4923586D01*
X8770518Y4923586D01*
X8777274Y4926533D01*
X8781237Y4931460D01*
X8783218Y4934610D01*
X8784691Y4938268D01*
X8784691Y4946548D01*
X8780272Y4954320D01*
X8771686Y4959654D01*
G37*
G36*
X8605113Y4960264D02*
G01*
X8599474Y4959248D01*
X8592464Y4954981D01*
X8587333Y4947158D01*
X8587333Y4944008D01*
X8604554Y4944008D01*
X8606586Y4945126D01*
X8607348Y4945176D01*
X8608974Y4944160D01*
X8609838Y4943195D01*
X8610142Y4942382D01*
X8609838Y4941570D01*
X8607653Y4939436D01*
X8605113Y4939893D01*
X8604554Y4944008D01*
X8587333Y4944008D01*
X8587333Y4936540D01*
X8589314Y4933137D01*
X8591499Y4930444D01*
X8595563Y4926482D01*
X8603945Y4923586D01*
X8610600Y4923637D01*
X8615019Y4925110D01*
X8618423Y4926787D01*
X8623350Y4929886D01*
X8626957Y4936845D01*
X8626957Y4946446D01*
X8623604Y4952441D01*
X8621623Y4954778D01*
X8619337Y4956708D01*
X8616696Y4958181D01*
X8613749Y4959502D01*
G37*
G36*
X8498535Y4944465D02*
G01*
X8496046Y4943906D01*
X8492236Y4942586D01*
X8488781Y4940452D01*
X8485682Y4937607D01*
X8483041Y4934102D01*
X8481263Y4931206D01*
X8481195Y4922977D01*
X8498890Y4922977D01*
X8498890Y4925822D01*
X8502243Y4928819D01*
X8503310Y4929276D01*
X8504377Y4929073D01*
X8507577Y4927142D01*
X8507577Y4923383D01*
X8504986Y4920742D01*
X8503056Y4920792D01*
X8501430Y4921402D01*
X8498890Y4922977D01*
X8481195Y4922977D01*
X8481161Y4918811D01*
X8484717Y4912868D01*
X8487968Y4908448D01*
X8495436Y4904943D01*
X8507171Y4903470D01*
X8507476Y4902657D01*
X8509000Y4900676D01*
X8523173Y4885842D01*
X8533638Y4874260D01*
X8540902Y4880965D01*
X8523630Y4899964D01*
X8517839Y4906721D01*
X8517839Y4909159D01*
X8518550Y4909159D01*
X8519769Y4910480D01*
X8524494Y4918202D01*
X8524494Y4930495D01*
X8522766Y4933492D01*
X8520836Y4936185D01*
X8518347Y4938826D01*
X8515553Y4941163D01*
X8512810Y4942840D01*
X8510371Y4944008D01*
G37*
G36*
X8269579Y4944364D02*
G01*
X8263026Y4942890D01*
X8259978Y4941824D01*
X8256422Y4937963D01*
X8254441Y4935169D01*
X8252612Y4931359D01*
X8252612Y4922215D01*
X8254187Y4919167D01*
X8256625Y4916322D01*
X8261654Y4911547D01*
X8271052Y4909058D01*
X8279587Y4911242D01*
X8282330Y4913172D01*
X8284616Y4915103D01*
X8286496Y4917338D01*
X8288070Y4919980D01*
X8290509Y4926838D01*
X8288629Y4934508D01*
X8282381Y4941011D01*
X8276691Y4943602D01*
G37*
G36*
X9106103Y4943856D02*
G01*
X9105341Y4942840D01*
X9104325Y4942433D01*
X9102445Y4942382D01*
X9096502Y4937912D01*
X9092590Y4930902D01*
X9092590Y4923078D01*
X9095079Y4918151D01*
X9096857Y4915916D01*
X9098991Y4913934D01*
X9104833Y4910277D01*
X9117533Y4910277D01*
X9125356Y4915408D01*
X9129217Y4921808D01*
X9129318Y4931918D01*
X9124899Y4938725D01*
X9121190Y4941214D01*
X9118396Y4942535D01*
X9114485Y4943856D01*
G37*
G36*
X8871153Y4936540D02*
G01*
X8864803Y4934966D01*
X8858859Y4930952D01*
X8856624Y4928768D01*
X8854744Y4926330D01*
X8852204Y4921097D01*
X8852204Y4916932D01*
X8869121Y4916932D01*
X8870696Y4920742D01*
X8872829Y4920640D01*
X8874506Y4920030D01*
X8877046Y4918456D01*
X8876893Y4915560D01*
X8876436Y4914595D01*
X8875623Y4913833D01*
X8872982Y4912766D01*
X8870950Y4913884D01*
X8869883Y4915001D01*
X8869121Y4916932D01*
X8852204Y4916932D01*
X8852255Y4910937D01*
X8853982Y4907229D01*
X8855760Y4904232D01*
X8859012Y4899710D01*
X8849766Y4889601D01*
X8841587Y4881118D01*
X8849106Y4874666D01*
X8869019Y4895646D01*
X8879027Y4896002D01*
X8886291Y4898898D01*
X8892032Y4905095D01*
X8895232Y4912817D01*
X8895232Y4919116D01*
X8894064Y4922113D01*
X8891016Y4927549D01*
X8886596Y4931765D01*
X8880906Y4934661D01*
X8874150Y4936185D01*
G37*
G36*
X8443264Y4930851D02*
G01*
X8440318Y4928463D01*
X8438743Y4926736D01*
X8437321Y4924450D01*
X8437321Y4916474D01*
X8441690Y4912614D01*
X8446160Y4911242D01*
X8448751Y4910683D01*
X8451240Y4910632D01*
X8456320Y4904943D01*
X8503412Y4858004D01*
X8506206Y4854295D01*
X8507679Y4854498D01*
X8509558Y4855768D01*
X8513114Y4859070D01*
X8513064Y4861153D01*
X8501329Y4873599D01*
X8492388Y4882692D01*
X8478418Y4896358D01*
X8465312Y4909566D01*
X8457844Y4917744D01*
X8457844Y4925720D01*
X8452256Y4930851D01*
G37*
G36*
X8927693Y4930851D02*
G01*
X8922054Y4924806D01*
X8922054Y4916373D01*
X8921394Y4916373D01*
X8917330Y4912817D01*
X8898432Y4894275D01*
X8875725Y4871466D01*
X8869375Y4864760D01*
X8866835Y4861712D01*
X8868054Y4860036D01*
X8870746Y4858156D01*
X8873490Y4856937D01*
X8874709Y4857191D01*
X8876690Y4859629D01*
X8928658Y4910886D01*
X8932976Y4910582D01*
X8940139Y4913426D01*
X8942578Y4917744D01*
X8942578Y4924399D01*
X8940850Y4927295D01*
X8939174Y4929022D01*
X8936329Y4930851D01*
G37*
G36*
X8412480Y4916373D02*
G01*
X8409279Y4916322D01*
X8405672Y4914290D01*
X8403640Y4912563D01*
X8401862Y4910683D01*
X8400592Y4908905D01*
X8399424Y4906772D01*
X8399475Y4900879D01*
X8402980Y4895088D01*
X8410854Y4891684D01*
X8419185Y4893056D01*
X8444026Y4869078D01*
X8444992Y4855006D01*
X8465718Y4834890D01*
X8477504Y4823968D01*
X8478824Y4824984D01*
X8484514Y4830927D01*
X8454898Y4858715D01*
X8453272Y4875530D01*
X8450986Y4876952D01*
X8445957Y4881118D01*
X8425129Y4900117D01*
X8425078Y4907534D01*
X8422030Y4911344D01*
X8419541Y4913731D01*
X8415731Y4916373D01*
G37*
G36*
X8964980Y4916373D02*
G01*
X8957767Y4912207D01*
X8955278Y4907534D01*
X8954211Y4900168D01*
X8926576Y4874260D01*
X8925102Y4860442D01*
X8898229Y4835601D01*
X8895232Y4833264D01*
X8895232Y4830470D01*
X8896451Y4830267D01*
X8897823Y4828895D01*
X8900363Y4825441D01*
X8902852Y4825390D01*
X8913266Y4835804D01*
X8921648Y4843830D01*
X8934450Y4855464D01*
X8935567Y4868367D01*
X8937955Y4871262D01*
X8961120Y4893360D01*
X8969146Y4891633D01*
X8976309Y4894580D01*
X8980830Y4899964D01*
X8980830Y4907686D01*
X8976055Y4913884D01*
X8970619Y4916322D01*
G37*
G36*
X8698026Y4907737D02*
G01*
X8689187Y4907584D01*
X8684158Y4907178D01*
X8676894Y4905806D01*
X8658758Y4901844D01*
X8649512Y4899609D01*
X8644788Y4898237D01*
X8630412Y4893411D01*
X8616238Y4888128D01*
X8589314Y4875784D01*
X8576259Y4867605D01*
X8565692Y4860340D01*
X8554567Y4852009D01*
X8543239Y4842764D01*
X8532469Y4833467D01*
X8533485Y4832553D01*
X8541867Y4837277D01*
X8552891Y4842510D01*
X8570518Y4849672D01*
X8574074Y4850790D01*
X8576310Y4851146D01*
X8577072Y4850688D01*
X8576868Y4850180D01*
X8571382Y4847590D01*
X8561476Y4842052D01*
X8550960Y4835804D01*
X8530996Y4822190D01*
X8520379Y4813858D01*
X8514384Y4808575D01*
X8509254Y4803648D01*
X8504631Y4798161D01*
X8504021Y4797907D01*
X8503716Y4797450D01*
X8503666Y4796332D01*
X8517737Y4805781D01*
X8525256Y4810252D01*
X8548624Y4822647D01*
X8548420Y4821428D01*
X8546896Y4819954D01*
X8535822Y4811725D01*
X8522665Y4801565D01*
X8502954Y4785664D01*
X8491372Y4775962D01*
X8481568Y4765446D01*
X8475929Y4759096D01*
X8468156Y4749596D01*
X8462822Y4742586D01*
X8461552Y4740554D01*
X8461298Y4739690D01*
X8462060Y4739894D01*
X8468004Y4744567D01*
X8484209Y4758029D01*
X8499957Y4770221D01*
X8513673Y4780076D01*
X8518296Y4782921D01*
X8519261Y4783226D01*
X8514486Y4777587D01*
X8507577Y4770526D01*
X8485479Y4745990D01*
X8466328Y4723485D01*
X8461095Y4716932D01*
X8448294Y4699406D01*
X8437727Y4683861D01*
X8430666Y4673092D01*
X8429701Y4671110D01*
X8439658Y4679746D01*
X8492744Y4727854D01*
X8503056Y4736795D01*
X8511895Y4744059D01*
X8520379Y4750562D01*
X8531809Y4758842D01*
X8547303Y4769358D01*
X8556193Y4774844D01*
X8571941Y4783886D01*
X8579053Y4787595D01*
X8589772Y4792726D01*
X8601049Y4797806D01*
X8623452Y4806797D01*
X8625586Y4806188D01*
X8613394Y4799888D01*
X8574024Y4776063D01*
X8551113Y4761026D01*
X8536635Y4750206D01*
X8520633Y4737760D01*
X8509203Y4728413D01*
X8499348Y4719624D01*
X8477199Y4699304D01*
X8456168Y4676343D01*
X8447176Y4665624D01*
X8433612Y4647793D01*
X8426653Y4637532D01*
X8418931Y4625136D01*
X8412175Y4613503D01*
X8408111Y4605528D01*
X8404148Y4596536D01*
X8399881Y4584903D01*
X8396020Y4571746D01*
X8392464Y4556607D01*
X8390026Y4543856D01*
X8388654Y4533950D01*
X8387384Y4522317D01*
X8386318Y4509058D01*
X8385403Y4494326D01*
X8384692Y4478274D01*
X8383676Y4444492D01*
X8384844Y4426610D01*
X8385657Y4417771D01*
X8386724Y4409998D01*
X8386876Y4406900D01*
X8387994Y4400092D01*
X8390077Y4389882D01*
X8394649Y4372610D01*
X8399018Y4359503D01*
X8404199Y4347006D01*
X8408162Y4338320D01*
X8412734Y4329379D01*
X8417915Y4320235D01*
X8423656Y4310888D01*
X8430056Y4301337D01*
X8436965Y4291634D01*
X8444433Y4281779D01*
X8452408Y4271772D01*
X8460841Y4261713D01*
X8479231Y4241393D01*
X8489086Y4231182D01*
X8499398Y4220921D01*
X8510066Y4210710D01*
X8532622Y4190441D01*
X8544407Y4180382D01*
X8565896Y4162856D01*
X8582761Y4149394D01*
X8591397Y4143552D01*
X8592921Y4144975D01*
X8586927Y4152087D01*
X8579866Y4159199D01*
X8536736Y4199585D01*
X8518855Y4216908D01*
X8506256Y4229557D01*
X8499043Y4237431D01*
X8488629Y4249267D01*
X8478367Y4261510D01*
X8468766Y4273550D01*
X8460282Y4284675D01*
X8453526Y4294276D01*
X8446668Y4305300D01*
X8440115Y4316526D01*
X8433409Y4328922D01*
X8428126Y4339488D01*
X8422792Y4351629D01*
X8420252Y4357979D01*
X8415121Y4374083D01*
X8409482Y4398365D01*
X8408111Y4405985D01*
X8404860Y4432960D01*
X8403996Y4494326D01*
X8405418Y4517491D01*
X8406841Y4532223D01*
X8408771Y4545584D01*
X8411362Y4557877D01*
X8414715Y4569358D01*
X8418880Y4580280D01*
X8421319Y4585665D01*
X8427008Y4596434D01*
X8433866Y4607407D01*
X8441944Y4618888D01*
X8451392Y4631182D01*
X8460232Y4642002D01*
X8473643Y4656531D01*
X8483904Y4666945D01*
X8494674Y4677156D01*
X8505545Y4686909D01*
X8516162Y4695799D01*
X8526119Y4703572D01*
X8536686Y4711090D01*
X8547252Y4718151D01*
X8557920Y4724806D01*
X8568639Y4731004D01*
X8579459Y4736795D01*
X8590280Y4742129D01*
X8601202Y4746955D01*
X8612124Y4751374D01*
X8623096Y4755388D01*
X8634120Y4758893D01*
X8645194Y4761941D01*
X8656269Y4764582D01*
X8667394Y4766716D01*
X8684818Y4769256D01*
X8703919Y4768494D01*
X8710117Y4767986D01*
X8724290Y4765548D01*
X8733434Y4763566D01*
X8743035Y4761179D01*
X8751519Y4758791D01*
X8771636Y4751628D01*
X8784590Y4746142D01*
X8798915Y4739436D01*
X8813038Y4732274D01*
X8824214Y4725924D01*
X8848140Y4710684D01*
X8858656Y4703064D01*
X8873744Y4691126D01*
X8884615Y4681778D01*
X8895435Y4671720D01*
X8906052Y4661204D01*
X8916162Y4650435D01*
X8925560Y4639716D01*
X8943035Y4617923D01*
X8949791Y4608372D01*
X8955735Y4598720D01*
X8960916Y4588967D01*
X8965387Y4578959D01*
X8969146Y4568647D01*
X8972245Y4557928D01*
X8974785Y4546752D01*
X8976715Y4534966D01*
X8978087Y4522470D01*
X8979052Y4509160D01*
X8980119Y4487621D01*
X8980424Y4473702D01*
X8980424Y4450994D01*
X8978493Y4426305D01*
X8976766Y4410151D01*
X8974632Y4396689D01*
X8971889Y4384294D01*
X8967216Y4368088D01*
X8964574Y4360062D01*
X8961628Y4352391D01*
X8953347Y4333290D01*
X8943238Y4315256D01*
X8936736Y4304334D01*
X8930386Y4294327D01*
X8924086Y4285234D01*
X8916517Y4275175D01*
X8907983Y4264507D01*
X8895283Y4249521D01*
X8879992Y4232452D01*
X8866784Y4218482D01*
X8848648Y4200804D01*
X8822283Y4175963D01*
X8790228Y4146245D01*
X8790228Y4143756D01*
X8791854Y4143756D01*
X8794038Y4144162D01*
X8796832Y4145483D01*
X8800490Y4147870D01*
X8828074Y4169968D01*
X8835288Y4175963D01*
X8873236Y4209846D01*
X8893860Y4229811D01*
X8903970Y4240276D01*
X8914841Y4252010D01*
X8925661Y4264202D01*
X8935770Y4276039D01*
X8944457Y4286758D01*
X8952128Y4297019D01*
X8960002Y4308754D01*
X8967419Y4320895D01*
X8974124Y4332935D01*
X8979814Y4344517D01*
X8984335Y4355287D01*
X8990584Y4373981D01*
X8992971Y4382871D01*
X8995003Y4392269D01*
X8996629Y4402277D01*
X8997950Y4413250D01*
X8998966Y4425442D01*
X9000083Y4444847D01*
X8998407Y4496866D01*
X8997035Y4521860D01*
X8994241Y4544314D01*
X8990685Y4561484D01*
X8988399Y4569764D01*
X8984335Y4583176D01*
X8979509Y4596231D01*
X8973769Y4608982D01*
X8967114Y4621530D01*
X8959596Y4633925D01*
X8951010Y4646320D01*
X8942171Y4658055D01*
X8932722Y4669942D01*
X8921699Y4683201D01*
X8914180Y4691481D01*
X8906052Y4699914D01*
X8897112Y4708652D01*
X8875776Y4727956D01*
X8867952Y4734509D01*
X8858656Y4741875D01*
X8843518Y4753203D01*
X8833764Y4760163D01*
X8806332Y4778197D01*
X8795258Y4785156D01*
X8788603Y4788763D01*
X8763863Y4803089D01*
X8758072Y4806035D01*
X8756497Y4807153D01*
X8756294Y4807508D01*
X8756396Y4807915D01*
X8757412Y4807864D01*
X8762593Y4805781D01*
X8767876Y4803952D01*
X8788958Y4795418D01*
X8798407Y4791049D01*
X8808059Y4786223D01*
X8817813Y4780889D01*
X8827617Y4775149D01*
X8837472Y4768900D01*
X8847378Y4762296D01*
X8857183Y4755337D01*
X8866987Y4747971D01*
X8876639Y4740300D01*
X8893200Y4726076D01*
X8915349Y4706264D01*
X8937040Y4686452D01*
X8951722Y4672380D01*
X8952788Y4672330D01*
X8951772Y4674514D01*
X8939276Y4693462D01*
X8924645Y4713427D01*
X8917736Y4722368D01*
X8898026Y4745228D01*
X8876334Y4769408D01*
X8865209Y4780737D01*
X8863634Y4782820D01*
X8863634Y4783531D01*
X8891574Y4763871D01*
X8906814Y4752086D01*
X8920937Y4740554D01*
X8921648Y4740198D01*
X8921292Y4741113D01*
X8916771Y4747209D01*
X8899550Y4767935D01*
X8885529Y4780788D01*
X8878011Y4787341D01*
X8842654Y4814976D01*
X8834221Y4821326D01*
X8832646Y4822901D01*
X8832748Y4823256D01*
X8852966Y4812639D01*
X8872169Y4801514D01*
X8875420Y4800041D01*
X8875268Y4801158D01*
X8871966Y4804816D01*
X8865209Y4811217D01*
X8856624Y4818227D01*
X8846515Y4825695D01*
X8835085Y4833416D01*
X8822690Y4841189D01*
X8805926Y4851044D01*
X8804452Y4852314D01*
X8804452Y4852873D01*
X8814917Y4848606D01*
X8823452Y4845659D01*
X8830868Y4842256D01*
X8839047Y4838192D01*
X8845296Y4834686D01*
X8848648Y4832553D01*
X8848648Y4833264D01*
X8845245Y4836769D01*
X8825331Y4854397D01*
X8810193Y4865116D01*
X8800439Y4871516D01*
X8790838Y4877206D01*
X8781186Y4882286D01*
X8771382Y4886858D01*
X8761171Y4890973D01*
X8744508Y4896815D01*
X8731046Y4900777D01*
X8721801Y4903012D01*
G37*
G36*
X8408517Y4870145D02*
G01*
X8400643Y4867452D01*
X8397900Y4865878D01*
X8395614Y4863896D01*
X8391144Y4857699D01*
X8391144Y4845964D01*
X8394242Y4841341D01*
X8396528Y4838598D01*
X8399830Y4835753D01*
X8406434Y4833874D01*
X8416848Y4834636D01*
X8450580Y4801971D01*
X8457895Y4808931D01*
X8455406Y4811115D01*
X8441436Y4825085D01*
X8429142Y4836871D01*
X8426856Y4839563D01*
X8426653Y4841443D01*
X8429447Y4847031D01*
X8429396Y4856073D01*
X8427110Y4860290D01*
X8424976Y4863134D01*
X8421268Y4866741D01*
X8416544Y4868570D01*
X8413140Y4869484D01*
G37*
G36*
X8968333Y4868722D02*
G01*
X8963507Y4868672D01*
X8956395Y4865370D01*
X8950553Y4858308D01*
X8949486Y4850333D01*
X8952128Y4839462D01*
X8927033Y4815382D01*
X8922969Y4810709D01*
X8922562Y4808220D01*
X8924645Y4806035D01*
X8927287Y4803749D01*
X8929573Y4803749D01*
X8936990Y4811318D01*
X8961018Y4834077D01*
X8963964Y4834026D01*
X8966657Y4833569D01*
X8971076Y4832400D01*
X8979509Y4834839D01*
X8985961Y4841189D01*
X8988399Y4846523D01*
X8988399Y4855108D01*
X8984437Y4862728D01*
X8980119Y4865776D01*
X8977122Y4867402D01*
X8973159Y4868722D01*
G37*
G36*
X8349234Y4865827D02*
G01*
X8345373Y4865776D01*
X8341614Y4863388D01*
X8339632Y4861610D01*
X8337905Y4858969D01*
X8337854Y4852009D01*
X8339683Y4849114D01*
X8340750Y4847945D01*
X8344255Y4845659D01*
X8346948Y4844186D01*
X8355126Y4844186D01*
X8355584Y4842916D01*
X8356396Y4841595D01*
X8363153Y4834686D01*
X8421319Y4778400D01*
X8426196Y4773422D01*
X8427720Y4771542D01*
X8427974Y4770526D01*
X8428888Y4770526D01*
X8430412Y4771288D01*
X8435848Y4775657D01*
X8435594Y4776673D01*
X8431987Y4780889D01*
X8423402Y4789881D01*
X8401100Y4811928D01*
X8379459Y4832604D01*
X8365337Y4846472D01*
X8361527Y4850485D01*
X8361476Y4854498D01*
X8361019Y4857292D01*
X8359800Y4861153D01*
X8353094Y4865827D01*
G37*
G36*
X9030716Y4865725D02*
G01*
X9027464Y4864963D01*
X9025382Y4864150D01*
X9023654Y4863033D01*
X9022232Y4861661D01*
X9019946Y4857953D01*
X9019946Y4850079D01*
X9018625Y4849368D01*
X8943898Y4776317D01*
X8949283Y4771390D01*
X8950858Y4770831D01*
X8952636Y4771898D01*
X9016796Y4834229D01*
X9026652Y4844135D01*
X9035745Y4844186D01*
X9041841Y4849215D01*
X9043822Y4855616D01*
X9042044Y4860544D01*
X9037523Y4864506D01*
G37*
G36*
X9078823Y4855006D02*
G01*
X9074708Y4851552D01*
X9031833Y4811979D01*
X8990990Y4773828D01*
X8969451Y4753356D01*
X8969451Y4750968D01*
X8972499Y4747514D01*
X8974582Y4745990D01*
X8981998Y4752390D01*
X9076537Y4840224D01*
X9085529Y4848961D01*
X9081211Y4853178D01*
G37*
G36*
X8302498Y4854702D02*
G01*
X8301126Y4853940D01*
X8295894Y4849215D01*
X8296960Y4846167D01*
X8394801Y4756454D01*
X8406485Y4745990D01*
X8407704Y4746904D01*
X8412835Y4752390D01*
X8376869Y4786223D01*
X8321192Y4837734D01*
X8303564Y4854397D01*
G37*
G36*
X9141256Y4784242D02*
G01*
X9129877Y4774438D01*
X9067342Y4717643D01*
X9067342Y4712919D01*
X9069679Y4711141D01*
X9069679Y4708601D01*
X9048140Y4689449D01*
X9040672Y4683963D01*
X9038031Y4682388D01*
X9037523Y4681372D01*
X9038132Y4679645D01*
X9042450Y4672330D01*
X9043365Y4672330D01*
X9048699Y4676495D01*
X9076131Y4700828D01*
X9086646Y4705959D01*
X9088882Y4711344D01*
X9085478Y4719370D01*
X9086494Y4721047D01*
X9095892Y4730343D01*
X9146997Y4777943D01*
X9145117Y4780635D01*
X9142171Y4783734D01*
G37*
G36*
X8237981Y4783531D02*
G01*
X8234984Y4779975D01*
X8233816Y4778146D01*
X8233664Y4776571D01*
X8293506Y4722164D01*
X8294522Y4717897D01*
X8292084Y4713528D01*
X8292084Y4708804D01*
X8295030Y4705299D01*
X8306257Y4700117D01*
X8333689Y4676089D01*
X8337499Y4673244D01*
X8339378Y4672330D01*
X8340191Y4672330D01*
X8341969Y4676038D01*
X8343442Y4678578D01*
X8345830Y4681677D01*
X8344916Y4682845D01*
X8342833Y4683963D01*
X8338159Y4685944D01*
X8325459Y4696612D01*
X8314639Y4706315D01*
X8312505Y4708652D01*
X8311692Y4709922D01*
X8313521Y4715002D01*
X8312658Y4717846D01*
X8309203Y4721352D01*
X8240572Y4783531D01*
G37*
G36*
X9167215Y4774082D02*
G01*
X9160967Y4772304D01*
X9156954Y4770729D01*
X9152026Y4766106D01*
X9147860Y4758334D01*
X9147860Y4754575D01*
X9164929Y4754575D01*
X9167825Y4757521D01*
X9170619Y4757470D01*
X9172448Y4757064D01*
X9174683Y4756048D01*
X9174683Y4751019D01*
X9170670Y4749342D01*
X9166453Y4750714D01*
X9164929Y4754575D01*
X9147860Y4754575D01*
X9147860Y4747056D01*
X9151823Y4738166D01*
X9136075Y4723282D01*
X9111945Y4701286D01*
X9092133Y4683658D01*
X9084919Y4677867D01*
X9077045Y4672279D01*
X9075013Y4668774D01*
X9077452Y4664354D01*
X9078722Y4663084D01*
X9080246Y4662373D01*
X9084919Y4661865D01*
X9088932Y4666437D01*
X9105696Y4682083D01*
X9161576Y4733036D01*
X9163558Y4732324D01*
X9171127Y4731410D01*
X9180271Y4733798D01*
X9186926Y4738471D01*
X9191650Y4746904D01*
X9192209Y4757166D01*
X9188297Y4765090D01*
X9183573Y4769662D01*
X9175597Y4773371D01*
G37*
G36*
X8213953Y4773422D02*
G01*
X8205622Y4773320D01*
X8200237Y4771237D01*
X8197697Y4769916D01*
X8195614Y4768494D01*
X8193887Y4766919D01*
X8191500Y4763668D01*
X8187842Y4755997D01*
X8187988Y4751730D01*
X8206028Y4751730D01*
X8206028Y4755235D01*
X8208467Y4757521D01*
X8212785Y4757521D01*
X8214715Y4755794D01*
X8214715Y4750358D01*
X8211566Y4749038D01*
X8210194Y4748936D01*
X8208873Y4749342D01*
X8206028Y4751730D01*
X8187988Y4751730D01*
X8188350Y4748834D01*
X8189722Y4744720D01*
X8191855Y4740757D01*
X8194649Y4737303D01*
X8197342Y4734560D01*
X8206079Y4731359D01*
X8214106Y4731918D01*
X8217865Y4732375D01*
X8220202Y4733137D01*
X8221624Y4729683D01*
X8237423Y4716221D01*
X8284921Y4673498D01*
X8295030Y4663846D01*
X8297011Y4661509D01*
X8300974Y4661509D01*
X8306257Y4666640D01*
X8306257Y4671568D01*
X8296605Y4677562D01*
X8287207Y4685334D01*
X8264753Y4705299D01*
X8228584Y4737912D01*
X8232292Y4747768D01*
X8232292Y4757216D01*
X8229904Y4761941D01*
X8227618Y4765192D01*
X8223758Y4769307D01*
G37*
G36*
X8422538Y4718202D02*
G01*
X8419084Y4715560D01*
X8412378Y4708956D01*
X8403640Y4699508D01*
X8393684Y4687976D01*
X8383117Y4675225D01*
X8372551Y4662017D01*
X8362746Y4649165D01*
X8354263Y4637430D01*
X8347913Y4627727D01*
X8341258Y4616704D01*
X8327644Y4592066D01*
X8322360Y4581753D01*
X8319312Y4574946D01*
X8318855Y4572965D01*
X8315350Y4565040D01*
X8308238Y4547158D01*
X8306206Y4541266D01*
X8299450Y4518050D01*
X8295182Y4501235D01*
X8293404Y4492904D01*
X8291728Y4483150D01*
X8289747Y4469028D01*
X8288070Y4453178D01*
X8287156Y4442307D01*
X8287867Y4416958D01*
X8288781Y4402124D01*
X8290204Y4388510D01*
X8292338Y4375302D01*
X8295741Y4358335D01*
X8297570Y4350613D01*
X8300720Y4338726D01*
X8305546Y4324146D01*
X8309864Y4312767D01*
X8314385Y4301744D01*
X8318500Y4292854D01*
X8328304Y4273753D01*
X8337296Y4258919D01*
X8343646Y4249166D01*
X8350503Y4239412D01*
X8357819Y4229760D01*
X8365490Y4220210D01*
X8373465Y4210862D01*
X8381796Y4201769D01*
X8390331Y4192930D01*
X8399068Y4184446D01*
X8407908Y4176369D01*
X8416899Y4168698D01*
X8425942Y4161485D01*
X8445195Y4147616D01*
X8454491Y4141520D01*
X8465362Y4134916D01*
X8477250Y4128312D01*
X8489442Y4121962D01*
X8501380Y4116222D01*
X8516569Y4109770D01*
X8517890Y4110990D01*
X8517432Y4134612D01*
X8485784Y4151426D01*
X8471154Y4160265D01*
X8460536Y4167225D01*
X8450224Y4174540D01*
X8440216Y4182160D01*
X8430463Y4190034D01*
X8421065Y4198213D01*
X8412022Y4206646D01*
X8403285Y4215282D01*
X8394954Y4224223D01*
X8386927Y4233316D01*
X8379307Y4242663D01*
X8372094Y4252163D01*
X8365236Y4261866D01*
X8358784Y4271772D01*
X8352790Y4281779D01*
X8347202Y4291939D01*
X8342020Y4302252D01*
X8337346Y4312615D01*
X8333130Y4323130D01*
X8329320Y4333748D01*
X8323072Y4354118D01*
X8320684Y4363618D01*
X8318652Y4373778D01*
X8316975Y4384649D01*
X8315655Y4396333D01*
X8314639Y4408932D01*
X8313470Y4429353D01*
X8314639Y4451654D01*
X8315909Y4466488D01*
X8317534Y4480102D01*
X8319465Y4491532D01*
X8323275Y4508093D01*
X8326577Y4519676D01*
X8333130Y4539386D01*
X8336229Y4547870D01*
X8337803Y4551324D01*
X8337956Y4552238D01*
X8347354Y4573524D01*
X8352281Y4583785D01*
X8357819Y4594402D01*
X8363203Y4603953D01*
X8371484Y4617567D01*
X8381492Y4632350D01*
X8388705Y4642205D01*
X8389721Y4644339D01*
X8395004Y4659934D01*
X8396884Y4664913D01*
X8397798Y4666742D01*
X8398256Y4668570D01*
X8400846Y4675124D01*
X8407654Y4690719D01*
X8422538Y4717034D01*
X8422894Y4717999D01*
G37*
G36*
X8961424Y4717084D02*
G01*
X8963050Y4713528D01*
X8963710Y4712868D01*
X8964269Y4712716D01*
X8964625Y4712360D01*
X8968079Y4704994D01*
X8975801Y4689957D01*
X8983268Y4673650D01*
X8986926Y4664862D01*
X8989974Y4656785D01*
X8993327Y4646777D01*
X8995003Y4642764D01*
X8998051Y4638802D01*
X9014460Y4613960D01*
X9023299Y4599076D01*
X9032290Y4582160D01*
X9037878Y4570425D01*
X9044228Y4555947D01*
X9050223Y4541012D01*
X9054185Y4529734D01*
X9058757Y4515053D01*
X9063380Y4496765D01*
X9067292Y4478324D01*
X9069527Y4461510D01*
X9071457Y4440885D01*
X9070492Y4405122D01*
X9068612Y4390796D01*
X9066225Y4375962D01*
X9063329Y4361789D01*
X9060942Y4352137D01*
X9056116Y4336186D01*
X9052356Y4325772D01*
X9048038Y4314799D01*
X9043822Y4305147D01*
X9037066Y4291177D01*
X9027515Y4274362D01*
X9023197Y4267301D01*
X9017152Y4258513D01*
X9010243Y4249013D01*
X9002522Y4239107D01*
X8990126Y4224121D01*
X8983878Y4217263D01*
X8976512Y4210100D01*
X8958681Y4193794D01*
X8948216Y4184650D01*
X8939987Y4178096D01*
X8937396Y4175760D01*
X8930386Y4170527D01*
X8920429Y4163872D01*
X8908745Y4156608D01*
X8896502Y4149394D01*
X8884970Y4143095D01*
X8872677Y4136847D01*
X8870746Y4135628D01*
X8870746Y4112056D01*
X8872321Y4111142D01*
X8883650Y4115663D01*
X8894470Y4120794D01*
X8906814Y4127093D01*
X8919210Y4133900D01*
X8930335Y4140403D01*
X8938717Y4145787D01*
X8954109Y4156964D01*
X8967470Y4167124D01*
X8986723Y4184802D01*
X8996883Y4194657D01*
X9005976Y4204208D01*
X9014815Y4214368D01*
X9024620Y4226356D01*
X9042044Y4250232D01*
X9048343Y4260291D01*
X9056217Y4273956D01*
X9063685Y4287824D01*
X9068968Y4298645D01*
X9073997Y4310634D01*
X9081820Y4332376D01*
X9085173Y4344111D01*
X9089390Y4360773D01*
X9092590Y4375861D01*
X9094927Y4390237D01*
X9097314Y4414164D01*
X9097314Y4445203D01*
X9094774Y4472432D01*
X9092336Y4486859D01*
X9088628Y4503369D01*
X9083852Y4521555D01*
X9079992Y4534357D01*
X9075572Y4547311D01*
X9070746Y4560214D01*
X9065564Y4572812D01*
X9060129Y4584954D01*
X9043771Y4615637D01*
X9032240Y4633010D01*
X9018930Y4651654D01*
X9004147Y4670653D01*
X8989618Y4687874D01*
X8982964Y4695240D01*
X8962542Y4716881D01*
G37*
G36*
X8700617Y4682540D02*
G01*
X8699804Y4681575D01*
X8699500Y4679696D01*
X8699449Y4675479D01*
X8710422Y4674260D01*
X8724392Y4673346D01*
X8744305Y4670450D01*
X8758580Y4667859D01*
X8775242Y4663643D01*
X8784691Y4660950D01*
X8787841Y4660747D01*
X8787841Y4664405D01*
X8781186Y4666996D01*
X8769705Y4670856D01*
X8756396Y4674514D01*
X8742883Y4677460D01*
X8731300Y4679492D01*
X8719210Y4680864D01*
G37*
G36*
X8685834Y4682439D02*
G01*
X8676944Y4681829D01*
X8655507Y4679492D01*
X8637473Y4676343D01*
X8624620Y4673142D01*
X8611311Y4669332D01*
X8601252Y4665929D01*
X8596680Y4663541D01*
X8597188Y4659680D01*
X8599271Y4659985D01*
X8610346Y4663389D01*
X8622842Y4666640D01*
X8636000Y4669332D01*
X8648395Y4671466D01*
X8659114Y4672888D01*
X8669629Y4673803D01*
X8683701Y4674463D01*
X8686800Y4675987D01*
X8686749Y4678984D01*
X8686495Y4680661D01*
G37*
G36*
X8699398Y4665268D02*
G01*
X8699804Y4645964D01*
X8714028Y4645253D01*
X8713622Y4638700D01*
X8713266Y4635906D01*
X8712758Y4634788D01*
X8699449Y4634788D01*
X8699042Y4586020D01*
X8687206Y4586020D01*
X8686393Y4634382D01*
X8671001Y4634839D01*
X8671001Y4644644D01*
X8683650Y4645558D01*
X8687054Y4647184D01*
X8686342Y4658715D01*
X8685834Y4663490D01*
X8685580Y4664405D01*
X8685123Y4665116D01*
X8679180Y4664913D01*
X8672220Y4664100D01*
X8664143Y4663643D01*
X8655405Y4662678D01*
X8638387Y4659985D01*
X8630107Y4658360D01*
X8603081Y4651349D01*
X8597188Y4648860D01*
X8597188Y4634890D01*
X8598357Y4633823D01*
X8603335Y4635449D01*
X8617051Y4638649D01*
X8628380Y4640732D01*
X8628380Y4639411D01*
X8613495Y4634433D01*
X8606891Y4631994D01*
X8605266Y4631588D01*
X8596782Y4627219D01*
X8596782Y4587443D01*
X8603945Y4584649D01*
X8605520Y4584293D01*
X8607856Y4584242D01*
X8606739Y4601362D01*
X8606688Y4606950D01*
X8614968Y4607407D01*
X8615984Y4604969D01*
X8614410Y4602276D01*
X8614206Y4600956D01*
X8614460Y4599787D01*
X8615172Y4598771D01*
X8616137Y4597857D01*
X8615578Y4583582D01*
X8616645Y4579213D01*
X8625687Y4574235D01*
X8632037Y4570272D01*
X8640572Y4564380D01*
X8648547Y4555286D01*
X8653881Y4545228D01*
X8655456Y4541570D01*
X8657996Y4542028D01*
X8657793Y4549394D01*
X8657234Y4554575D01*
X8655050Y4565954D01*
X8659368Y4569053D01*
X8663736Y4569053D01*
X8666175Y4565650D01*
X8666683Y4542282D01*
X8668715Y4541113D01*
X8680094Y4541723D01*
X8682736Y4539792D01*
X8681669Y4531156D01*
X8669020Y4530445D01*
X8669020Y4515256D01*
X8667750Y4513478D01*
X8663990Y4513478D01*
X8661552Y4516678D01*
X8661552Y4529175D01*
X8659063Y4531004D01*
X8657031Y4528972D01*
X8654897Y4518101D01*
X8654338Y4516577D01*
X8663025Y4510532D01*
X8667038Y4507992D01*
X8669426Y4507026D01*
X8669375Y4503369D01*
X8668867Y4501032D01*
X8667597Y4498238D01*
X8664092Y4497476D01*
X8657793Y4499000D01*
X8652865Y4502912D01*
X8650274Y4504639D01*
X8648039Y4505502D01*
X8644077Y4501591D01*
X8644585Y4497933D01*
X8646922Y4497425D01*
X8648903Y4496308D01*
X8652052Y4493666D01*
X8652052Y4490415D01*
X8647125Y4482033D01*
X8641842Y4477308D01*
X8642756Y4475175D01*
X8646566Y4474311D01*
X8648192Y4472076D01*
X8648801Y4470450D01*
X8648903Y4468215D01*
X8643772Y4462983D01*
X8640673Y4462780D01*
X8638743Y4462932D01*
X8636355Y4467199D01*
X8635441Y4467758D01*
X8634069Y4467199D01*
X8630564Y4464456D01*
X8628532Y4463135D01*
X8627567Y4462780D01*
X8626652Y4462018D01*
X8625179Y4459986D01*
X8627008Y4450842D01*
X8625992Y4447133D01*
X8622792Y4446168D01*
X8618931Y4448505D01*
X8618829Y4451705D01*
X8618321Y4454398D01*
X8616950Y4458563D01*
X8615629Y4458411D01*
X8613851Y4457242D01*
X8610244Y4454194D01*
X8609279Y4450689D01*
X8610447Y4434992D01*
X8611158Y4429607D01*
X8608415Y4426813D01*
X8605926Y4426864D01*
X8604199Y4427423D01*
X8601913Y4428845D01*
X8601913Y4448810D01*
X8599881Y4454550D01*
X8599170Y4455515D01*
X8598611Y4455261D01*
X8598001Y4451705D01*
X8590483Y4451959D01*
X8590076Y4450384D01*
X8589670Y4446930D01*
X8589518Y4441545D01*
X8590026Y4429556D01*
X8590686Y4422597D01*
X8584184Y4420819D01*
X8580882Y4423511D01*
X8582812Y4435094D01*
X8580729Y4451350D01*
X8574836Y4451350D01*
X8574125Y4448048D01*
X8573973Y4445050D01*
X8574278Y4440174D01*
X8566404Y4440174D01*
X8565489Y4450384D01*
X8564727Y4455515D01*
X8563508Y4459376D01*
X8565083Y4461103D01*
X8566200Y4470044D01*
X8562441Y4470704D01*
X8558123Y4471009D01*
X8554974Y4470857D01*
X8552586Y4466590D01*
X8552586Y4462221D01*
X8547912Y4459071D01*
X8546287Y4454753D01*
X8546338Y4448657D01*
X8546795Y4444441D01*
X8548014Y4439005D01*
X8546084Y4436922D01*
X8538464Y4436922D01*
X8537092Y4439208D01*
X8537905Y4444339D01*
X8538260Y4449216D01*
X8538362Y4457598D01*
X8536787Y4459173D01*
X8534806Y4460290D01*
X8527491Y4463745D01*
X8513826Y4471212D01*
X8511540Y4473041D01*
X8511540Y4473752D01*
X8509304Y4473752D01*
X8508238Y4463592D01*
X8509355Y4450486D01*
X8508238Y4431131D01*
X8503767Y4431131D01*
X8500465Y4434941D01*
X8500465Y4482947D01*
X8498128Y4484725D01*
X8496300Y4483862D01*
X8494014Y4481372D01*
X8489543Y4475378D01*
X8487664Y4460036D01*
X8489492Y4435551D01*
X8492286Y4424222D01*
X8494420Y4417212D01*
X8497011Y4409744D01*
X8500821Y4399838D01*
X8501888Y4396486D01*
X8502040Y4394301D01*
X8503869Y4394301D01*
X8502853Y4426813D01*
X8504478Y4426813D01*
X8505342Y4424832D01*
X8506764Y4420565D01*
X8508339Y4414520D01*
X8509762Y4407916D01*
X8511590Y4396079D01*
X8512606Y4391202D01*
X8513673Y4387291D01*
X8515858Y4382465D01*
X8520531Y4381347D01*
X8521547Y4382820D01*
X8520836Y4401159D01*
X8522563Y4405122D01*
X8525205Y4405071D01*
X8527186Y4404563D01*
X8529980Y4403344D01*
X8529986Y4401870D01*
X8640622Y4401870D01*
X8640673Y4417060D01*
X8645144Y4427728D01*
X8645906Y4429099D01*
X8646617Y4429709D01*
X8647328Y4429709D01*
X8647430Y4426610D01*
X8648039Y4424121D01*
X8649716Y4420362D01*
X8654440Y4418076D01*
X8656472Y4426559D01*
X8657742Y4430623D01*
X8658453Y4431893D01*
X8659977Y4431030D01*
X8659977Y4426661D01*
X8665108Y4417212D01*
X8668613Y4413605D01*
X8671661Y4410811D01*
X8674760Y4408576D01*
X8678214Y4406849D01*
X8687308Y4403699D01*
X8696198Y4403699D01*
X8702395Y4405223D01*
X8706307Y4406544D01*
X8710879Y4408627D01*
X8719210Y4416653D01*
X8722512Y4423156D01*
X8724036Y4427016D01*
X8725154Y4430928D01*
X8725408Y4431131D01*
X8726271Y4429556D01*
X8728862Y4422089D01*
X8729421Y4419650D01*
X8729421Y4418787D01*
X8732012Y4419549D01*
X8733637Y4420514D01*
X8735568Y4422444D01*
X8736685Y4431131D01*
X8737396Y4430725D01*
X8738108Y4429963D01*
X8740343Y4425340D01*
X8743950Y4416348D01*
X8744051Y4401870D01*
X8741714Y4398264D01*
X8739276Y4395012D01*
X8736279Y4392015D01*
X8732570Y4389221D01*
X8725357Y4384852D01*
X8718296Y4380230D01*
X8706916Y4371949D01*
X8696655Y4367326D01*
X8687968Y4367276D01*
X8682126Y4369663D01*
X8678570Y4371695D01*
X8674557Y4374388D01*
X8666073Y4380839D01*
X8658961Y4385614D01*
X8652764Y4389221D01*
X8648700Y4391863D01*
X8644331Y4395368D01*
X8640622Y4401870D01*
X8529986Y4401870D01*
X8530082Y4380534D01*
X8532469Y4379163D01*
X8540191Y4379163D01*
X8539632Y4391304D01*
X8539581Y4396689D01*
X8540140Y4399381D01*
X8545931Y4399381D01*
X8547862Y4397654D01*
X8547862Y4379214D01*
X8556904Y4378807D01*
X8556904Y4370120D01*
X8551316Y4369511D01*
X8548624Y4369003D01*
X8548776Y4359757D01*
X8549132Y4353204D01*
X8549995Y4344416D01*
X8550706Y4343755D01*
X8553196Y4342993D01*
X8564829Y4341215D01*
X8565134Y4337710D01*
X8565032Y4335475D01*
X8564422Y4332935D01*
X8552434Y4332935D01*
X8553602Y4315561D01*
X8554364Y4310888D01*
X8561425Y4301540D01*
X8569502Y4292244D01*
X8579459Y4281779D01*
X8590483Y4270908D01*
X8601811Y4260443D01*
X8612581Y4251198D01*
X8624468Y4241850D01*
X8631123Y4236923D01*
X8640013Y4231690D01*
X8649716Y4226814D01*
X8657996Y4223512D01*
X8664498Y4221683D01*
X8671052Y4220210D01*
X8676894Y4219194D01*
X8681364Y4218838D01*
X8685072Y4218838D01*
X8685733Y4221073D01*
X8685987Y4226255D01*
X8685987Y4233062D01*
X8685733Y4238244D01*
X8685072Y4240479D01*
X8667851Y4240479D01*
X8667851Y4250588D01*
X8685072Y4250588D01*
X8685530Y4251756D01*
X8685885Y4256532D01*
X8685987Y4279849D01*
X8684818Y4281474D01*
X8674404Y4282694D01*
X8669578Y4283710D01*
X8664956Y4285183D01*
X8654694Y4289552D01*
X8647226Y4295546D01*
X8642908Y4301439D01*
X8641232Y4304131D01*
X8641029Y4305655D01*
X8648852Y4304487D01*
X8657590Y4303776D01*
X8675370Y4303014D01*
X8684818Y4302963D01*
X8685834Y4310888D01*
X8684971Y4325518D01*
X8665108Y4327245D01*
X8642502Y4323181D01*
X8633510Y4321962D01*
X8622436Y4322775D01*
X8613038Y4325620D01*
X8607602Y4327906D01*
X8605367Y4329988D01*
X8606485Y4331614D01*
X8611006Y4330801D01*
X8616746Y4331462D01*
X8624366Y4332782D01*
X8631631Y4335018D01*
X8639098Y4338370D01*
X8653678Y4346854D01*
X8664143Y4352594D01*
X8671763Y4356049D01*
X8676944Y4355998D01*
X8684361Y4353661D01*
X8688578Y4351985D01*
X8690711Y4351731D01*
X8695486Y4351680D01*
X8706612Y4356049D01*
X8713622Y4356049D01*
X8721242Y4352594D01*
X8731097Y4347057D01*
X8743442Y4339691D01*
X8748471Y4337100D01*
X8753144Y4335068D01*
X8765489Y4331462D01*
X8779052Y4331462D01*
X8779967Y4330141D01*
X8775547Y4327245D01*
X8758224Y4322470D01*
X8744813Y4322572D01*
X8728252Y4326077D01*
X8710015Y4325975D01*
X8700770Y4325518D01*
X8699449Y4325010D01*
X8699449Y4303471D01*
X8700668Y4303064D01*
X8705545Y4302709D01*
X8714740Y4302963D01*
X8725865Y4303725D01*
X8742934Y4305655D01*
X8743848Y4304842D01*
X8736533Y4294682D01*
X8730386Y4290568D01*
X8725408Y4287875D01*
X8717991Y4284624D01*
X8699804Y4281220D01*
X8699804Y4250994D01*
X8717584Y4250537D01*
X8717280Y4245305D01*
X8716568Y4240530D01*
X8699804Y4240123D01*
X8699398Y4218838D01*
X8707069Y4219092D01*
X8712200Y4219905D01*
X8718092Y4221175D01*
X8726830Y4223613D01*
X8732875Y4225950D01*
X8741206Y4229506D01*
X8748572Y4233824D01*
X8757259Y4239717D01*
X8766759Y4246880D01*
X8776817Y4254957D01*
X8786977Y4263694D01*
X8796934Y4272737D01*
X8806180Y4281728D01*
X8814460Y4290314D01*
X8821369Y4298289D01*
X8825026Y4303014D01*
X8830310Y4308754D01*
X8832189Y4321759D01*
X8831681Y4332579D01*
X8821216Y4332173D01*
X8820556Y4334713D01*
X8820251Y4337202D01*
X8820200Y4341571D01*
X8824417Y4341672D01*
X8827770Y4342079D01*
X8832900Y4343196D01*
X8835237Y4347311D01*
X8835237Y4369054D01*
X8828938Y4369054D01*
X8827820Y4371187D01*
X8827414Y4373219D01*
X8827312Y4376724D01*
X8829294Y4379061D01*
X8836406Y4379518D01*
X8837218Y4398975D01*
X8842654Y4399483D01*
X8844686Y4396892D01*
X8844686Y4378960D01*
X8852763Y4379823D01*
X8855202Y4381652D01*
X8854186Y4402785D01*
X8856624Y4404664D01*
X8861450Y4404766D01*
X8863025Y4401159D01*
X8862110Y4382871D01*
X8864041Y4381500D01*
X8869070Y4382160D01*
X8871356Y4384548D01*
X8875471Y4408474D01*
X8877452Y4417822D01*
X8879230Y4423359D01*
X8880957Y4425696D01*
X8881719Y4426153D01*
X8881110Y4410557D01*
X8880500Y4402785D01*
X8879382Y4395724D01*
X8879789Y4394352D01*
X8881313Y4396486D01*
X8883904Y4402074D01*
X8887206Y4410354D01*
X8890050Y4418584D01*
X8892336Y4426661D01*
X8895232Y4440174D01*
X8895181Y4471212D01*
X8892489Y4476394D01*
X8890355Y4479594D01*
X8887206Y4483150D01*
X8884564Y4483049D01*
X8880805Y4478680D01*
X8882735Y4473397D01*
X8883446Y4439462D01*
X8882176Y4433011D01*
X8877046Y4430268D01*
X8874709Y4431080D01*
X8874658Y4457090D01*
X8874404Y4467860D01*
X8874201Y4469942D01*
X8873744Y4471568D01*
X8869984Y4471568D01*
X8869984Y4470908D01*
X8868308Y4469079D01*
X8864142Y4466437D01*
X8858961Y4463694D01*
X8852560Y4461306D01*
X8851595Y4457801D01*
X8853525Y4439107D01*
X8852560Y4437735D01*
X8845448Y4436770D01*
X8842908Y4438700D01*
X8843873Y4447946D01*
X8842908Y4458563D01*
X8838590Y4458563D01*
X8837472Y4457090D01*
X8836812Y4454956D01*
X8836152Y4450588D01*
X8834221Y4448454D01*
X8830767Y4448454D01*
X8827312Y4451807D01*
X8827312Y4463440D01*
X8824976Y4468622D01*
X8821674Y4470247D01*
X8818981Y4469587D01*
X8817356Y4468723D01*
X8815476Y4467148D01*
X8815476Y4463237D01*
X8818727Y4457750D01*
X8816187Y4451705D01*
X8816644Y4440174D01*
X8807958Y4440174D01*
X8807958Y4450080D01*
X8805316Y4451654D01*
X8800896Y4450232D01*
X8800439Y4429455D01*
X8802065Y4427982D01*
X8802065Y4426102D01*
X8801150Y4423359D01*
X8798864Y4421581D01*
X8796020Y4421073D01*
X8793276Y4422190D01*
X8791854Y4423410D01*
X8792667Y4435856D01*
X8790635Y4453077D01*
X8779967Y4453178D01*
X8779967Y4435094D01*
X8781135Y4430776D01*
X8780932Y4429353D01*
X8779916Y4428286D01*
X8775242Y4426102D01*
X8770162Y4430268D01*
X8772042Y4434078D01*
X8772042Y4456328D01*
X8771077Y4456785D01*
X8766149Y4457496D01*
X8765794Y4454245D01*
X8763965Y4447133D01*
X8761577Y4446270D01*
X8758072Y4448352D01*
X8757107Y4452721D01*
X8757920Y4461814D01*
X8749030Y4468672D01*
X8746794Y4468672D01*
X8746693Y4466996D01*
X8746032Y4465472D01*
X8744254Y4462932D01*
X8740089Y4462932D01*
X8737193Y4465320D01*
X8735568Y4467098D01*
X8733993Y4469587D01*
X8735974Y4472940D01*
X8740495Y4474616D01*
X8740495Y4478223D01*
X8734348Y4484573D01*
X8730792Y4492599D01*
X8732774Y4495952D01*
X8735568Y4497070D01*
X8737447Y4497527D01*
X8739886Y4497578D01*
X8739022Y4500422D01*
X8738057Y4502150D01*
X8736279Y4504080D01*
X8733739Y4504080D01*
X8725611Y4497578D01*
X8718397Y4497578D01*
X8715197Y4500473D01*
X8715197Y4506214D01*
X8716772Y4506315D01*
X8725814Y4512411D01*
X8728303Y4514392D01*
X8729776Y4516272D01*
X8728456Y4522317D01*
X8727948Y4525822D01*
X8727846Y4529328D01*
X8723325Y4529328D01*
X8722614Y4525822D01*
X8722360Y4522063D01*
X8722309Y4515154D01*
X8720277Y4512614D01*
X8715603Y4513072D01*
X8715146Y4528870D01*
X8713368Y4530852D01*
X8704834Y4530699D01*
X8702903Y4530953D01*
X8702141Y4531410D01*
X8701684Y4540910D01*
X8715959Y4540910D01*
X8717991Y4544161D01*
X8718296Y4566513D01*
X8722207Y4569612D01*
X8726322Y4568901D01*
X8728862Y4565294D01*
X8729370Y4563770D01*
X8729319Y4562449D01*
X8727948Y4559249D01*
X8727135Y4554931D01*
X8726525Y4549851D01*
X8726271Y4540910D01*
X8729268Y4540910D01*
X8732062Y4547616D01*
X8735161Y4553356D01*
X8739632Y4559096D01*
X8746032Y4565040D01*
X8753805Y4570730D01*
X8762390Y4575657D01*
X8768130Y4578604D01*
X8768486Y4604969D01*
X8770670Y4607306D01*
X8775954Y4607306D01*
X8777732Y4604308D01*
X8777427Y4590389D01*
X8777732Y4583887D01*
X8778798Y4584039D01*
X8784386Y4586173D01*
X8789060Y4588357D01*
X8789466Y4626203D01*
X8788095Y4628438D01*
X8774531Y4633518D01*
X8766048Y4636465D01*
X8756294Y4639462D01*
X8756294Y4640732D01*
X8774531Y4637379D01*
X8785656Y4634941D01*
X8787688Y4634788D01*
X8788806Y4647590D01*
X8787028Y4650638D01*
X8784844Y4650740D01*
X8761628Y4657140D01*
X8749995Y4659782D01*
X8738463Y4661814D01*
X8726678Y4663389D01*
X8714384Y4664456D01*
G37*
G36*
X8583574Y4660036D02*
G01*
X8581034Y4659071D01*
X8564321Y4650689D01*
X8557615Y4646879D01*
X8543391Y4638040D01*
X8537854Y4634839D01*
X8529828Y4629505D01*
X8527745Y4628388D01*
X8528761Y4627473D01*
X8539429Y4633925D01*
X8546287Y4637735D01*
X8563203Y4646320D01*
X8572754Y4650587D01*
X8584184Y4655261D01*
X8584184Y4660036D01*
G37*
G36*
X8800388Y4658614D02*
G01*
X8800896Y4655362D01*
X8811361Y4650689D01*
X8816035Y4648860D01*
X8818626Y4648149D01*
X8819438Y4648504D01*
X8819438Y4649216D01*
X8817864Y4649266D01*
X8816797Y4649825D01*
X8813647Y4652111D01*
X8803995Y4657496D01*
X8801303Y4658614D01*
G37*
G36*
X8583472Y4645558D02*
G01*
X8573109Y4640986D01*
X8554364Y4632248D01*
X8545474Y4627524D01*
X8543493Y4626152D01*
X8545271Y4626152D01*
X8546338Y4626457D01*
X8547455Y4627067D01*
X8565134Y4632401D01*
X8570417Y4633569D01*
X8571433Y4632858D01*
X8568334Y4630572D01*
X8549182Y4620869D01*
X8522411Y4606290D01*
X8515908Y4602124D01*
X8510574Y4598416D01*
X8508390Y4596434D01*
X8508593Y4595977D01*
X8509101Y4595774D01*
X8509762Y4595926D01*
X8510676Y4596688D01*
X8512251Y4597247D01*
X8526932Y4600244D01*
X8557564Y4600448D01*
X8557209Y4614570D01*
X8565083Y4614570D01*
X8567521Y4612335D01*
X8566556Y4598009D01*
X8583269Y4592269D01*
X8584793Y4593996D01*
X8584844Y4622038D01*
X8584539Y4633671D01*
X8584031Y4642256D01*
G37*
G36*
X8802725Y4644847D02*
G01*
X8801658Y4644186D01*
X8801252Y4636516D01*
X8800490Y4594707D01*
X8801912Y4592624D01*
X8810599Y4595672D01*
X8814104Y4596282D01*
X8817864Y4597501D01*
X8817965Y4603750D01*
X8817711Y4608423D01*
X8816695Y4609439D01*
X8816340Y4610303D01*
X8816289Y4611674D01*
X8821420Y4614570D01*
X8825433Y4614570D01*
X8827312Y4612843D01*
X8827312Y4600092D01*
X8857284Y4600092D01*
X8875014Y4596333D01*
X8869984Y4600092D01*
X8852966Y4610760D01*
X8819184Y4628235D01*
X8817152Y4629810D01*
X8812885Y4631994D01*
X8808770Y4634687D01*
X8809888Y4635652D01*
X8836863Y4626813D01*
X8837676Y4626813D01*
X8837168Y4627575D01*
X8833662Y4629912D01*
X8826246Y4633976D01*
X8817711Y4638243D01*
X8804605Y4644034D01*
X8803284Y4644796D01*
G37*
G36*
X8159496Y4643424D02*
G01*
X8123986Y4643069D01*
X8116824Y4641951D01*
X8116773Y4637938D01*
X8116519Y4635246D01*
X8115808Y4631893D01*
X8111642Y4631893D01*
X8105952Y4628337D01*
X8103209Y4623003D01*
X8103311Y4617212D01*
X8106968Y4610658D01*
X8114030Y4607356D01*
X8122158Y4607306D01*
X8129778Y4612030D01*
X8132978Y4617059D01*
X8132978Y4628896D01*
X8154314Y4629404D01*
X8156702Y4628642D01*
X8158175Y4627829D01*
X8191347Y4600295D01*
X8200694Y4592828D01*
X8206384Y4587951D01*
X8289645Y4587494D01*
X8292896Y4596180D01*
X8293709Y4597908D01*
X8293963Y4599533D01*
X8293557Y4600092D01*
X8213039Y4600092D01*
X8164575Y4641443D01*
G37*
G36*
X9223248Y4643323D02*
G01*
X9221266Y4642510D01*
X9218726Y4640986D01*
X9210395Y4634738D01*
X9197949Y4623968D01*
X9169349Y4600092D01*
X9102445Y4600092D01*
X9096552Y4601616D01*
X9090152Y4600041D01*
X9089237Y4597908D01*
X9093708Y4588408D01*
X9094978Y4586376D01*
X9095740Y4585665D01*
X9105544Y4587849D01*
X9175140Y4587849D01*
X9179102Y4590440D01*
X9190482Y4599381D01*
X9223705Y4626965D01*
X9225737Y4628896D01*
X9248749Y4629353D01*
X9248698Y4618532D01*
X9249918Y4615992D01*
X9251289Y4613808D01*
X9253220Y4611776D01*
X9255506Y4609947D01*
X9260687Y4607306D01*
X9267901Y4607306D01*
X9274149Y4610252D01*
X9278315Y4615992D01*
X9279077Y4622342D01*
X9275470Y4628235D01*
X9269730Y4631893D01*
X9266326Y4631893D01*
X9265361Y4633925D01*
X9264904Y4636516D01*
X9264599Y4640529D01*
X9264040Y4641799D01*
X9262618Y4642408D01*
X9255607Y4643323D01*
G37*
G36*
X8138414Y4594352D02*
G01*
X8135823Y4592015D01*
X8134299Y4589932D01*
X8132673Y4586630D01*
X8134299Y4580839D01*
X8137956Y4576622D01*
X8149285Y4576622D01*
X8158378Y4569307D01*
X8167471Y4561281D01*
X8183372Y4546549D01*
X8265617Y4546041D01*
X8270697Y4545177D01*
X8273084Y4545025D01*
X8274710Y4545330D01*
X8274812Y4548073D01*
X8277707Y4556861D01*
X8277859Y4558792D01*
X8275066Y4559401D01*
X8272018Y4559604D01*
X8266430Y4559604D01*
X8263331Y4557522D01*
X8211007Y4557776D01*
X8187131Y4558436D01*
X8166150Y4575860D01*
X8156143Y4584598D01*
X8153095Y4586579D01*
X8153095Y4587595D01*
X8152688Y4589018D01*
X8151571Y4590643D01*
X8150047Y4592167D01*
X8148320Y4593285D01*
X8146084Y4594352D01*
G37*
G36*
X9241078Y4594352D02*
G01*
X9235897Y4594250D01*
X9231731Y4592218D01*
X9227515Y4584242D01*
X9223248Y4581398D01*
X9216847Y4576114D01*
X9201658Y4562856D01*
X9195003Y4557420D01*
X9132163Y4558030D01*
X9113062Y4558436D01*
X9107982Y4558995D01*
X9105798Y4557674D01*
X9110218Y4543806D01*
X9112097Y4543856D01*
X9113266Y4544314D01*
X9114739Y4545533D01*
X9149080Y4546346D01*
X9199422Y4546650D01*
X9211157Y4557623D01*
X9233103Y4576978D01*
X9234728Y4576927D01*
X9240570Y4575556D01*
X9247174Y4578502D01*
X9249206Y4583023D01*
X9249054Y4588052D01*
X9246971Y4591558D01*
G37*
G36*
X9021368Y4568342D02*
G01*
X9026550Y4548276D01*
X9031376Y4524146D01*
X9034729Y4500930D01*
X9037320Y4479899D01*
X9038285Y4441596D01*
X9036812Y4419396D01*
X9035491Y4405528D01*
X9033662Y4393336D01*
X9029446Y4374083D01*
X9024366Y4356862D01*
X9021470Y4348175D01*
X9017000Y4336846D01*
X9013647Y4329074D01*
X9008160Y4317288D01*
X9002471Y4305808D01*
X8997594Y4296816D01*
X8982608Y4273854D01*
X8980220Y4270959D01*
X8977934Y4267352D01*
X8972550Y4260189D01*
X8965336Y4251655D01*
X8956802Y4242257D01*
X8947505Y4232656D01*
X8937904Y4223308D01*
X8920073Y4207154D01*
X8907322Y4198112D01*
X8886952Y4185107D01*
X8875826Y4178401D01*
X8865819Y4172661D01*
X8858351Y4168648D01*
X8854948Y4167073D01*
X8853373Y4166057D01*
X8852662Y4164685D01*
X8862822Y4158996D01*
X8868511Y4155541D01*
X8870899Y4154830D01*
X8873591Y4155541D01*
X8884513Y4160875D01*
X8894927Y4166514D01*
X8906764Y4173626D01*
X8916568Y4180128D01*
X8926525Y4187342D01*
X8936532Y4195165D01*
X8946388Y4203496D01*
X8956040Y4212234D01*
X8965387Y4221226D01*
X8974328Y4230471D01*
X8982659Y4239768D01*
X8990380Y4249115D01*
X8997645Y4258716D01*
X9004706Y4268927D01*
X9011462Y4279392D01*
X9017762Y4290009D01*
X9023604Y4300778D01*
X9028988Y4311548D01*
X9033814Y4322216D01*
X9038082Y4332833D01*
X9041739Y4343196D01*
X9044787Y4353306D01*
X9048343Y4366615D01*
X9048597Y4369562D01*
X9050324Y4376877D01*
X9053220Y4394504D01*
X9054795Y4410557D01*
X9056319Y4433874D01*
X9054795Y4455769D01*
X9053220Y4471009D01*
X9050832Y4484776D01*
X9045956Y4506772D01*
X9042654Y4518355D01*
X9037980Y4532274D01*
X9033002Y4545634D01*
X9024315Y4564989D01*
X9022588Y4568088D01*
X9022029Y4568342D01*
G37*
G36*
X8360816Y4566158D02*
G01*
X8360206Y4565954D01*
X8359495Y4563922D01*
X8355584Y4555642D01*
X8348675Y4538776D01*
X8344052Y4525975D01*
X8340039Y4513681D01*
X8334756Y4493920D01*
X8332876Y4483963D01*
X8330793Y4469942D01*
X8329066Y4450283D01*
X8328152Y4435856D01*
X8329117Y4417009D01*
X8330438Y4401667D01*
X8332266Y4387748D01*
X8334756Y4374591D01*
X8337803Y4361434D01*
X8342528Y4344111D01*
X8345576Y4334713D01*
X8349132Y4325213D01*
X8353247Y4315561D01*
X8357920Y4305858D01*
X8363102Y4296003D01*
X8368842Y4285996D01*
X8375091Y4275937D01*
X8381898Y4265676D01*
X8389264Y4255312D01*
X8397189Y4244848D01*
X8404402Y4236313D01*
X8413699Y4226560D01*
X8424418Y4216196D01*
X8435848Y4205782D01*
X8447379Y4196080D01*
X8458250Y4187647D01*
X8470544Y4179112D01*
X8484057Y4170730D01*
X8497976Y4162907D01*
X8517026Y4153611D01*
X8517585Y4154068D01*
X8518093Y4156100D01*
X8519210Y4166057D01*
X8521192Y4168292D01*
X8524189Y4168292D01*
X8524189Y4169765D01*
X8494674Y4187494D01*
X8484362Y4194098D01*
X8475370Y4200194D01*
X8467242Y4206138D01*
X8459571Y4212234D01*
X8443671Y4226356D01*
X8434730Y4234942D01*
X8425789Y4244187D01*
X8417255Y4253941D01*
X8409025Y4264152D01*
X8401253Y4274718D01*
X8393938Y4285589D01*
X8387130Y4296765D01*
X8380882Y4308094D01*
X8375802Y4318254D01*
X8367217Y4337964D01*
X8364067Y4346194D01*
X8358530Y4363313D01*
X8354822Y4376216D01*
X8351977Y4388916D01*
X8349742Y4402632D01*
X8347760Y4417771D01*
X8347709Y4486402D01*
X8350503Y4511497D01*
X8351875Y4520387D01*
X8356346Y4543450D01*
X8361730Y4566158D01*
G37*
G36*
X8560612Y4542790D02*
G01*
X8556548Y4542637D01*
X8547150Y4540910D01*
X8541156Y4539132D01*
X8536736Y4537252D01*
X8529116Y4533138D01*
X8527592Y4531817D01*
X8527186Y4530852D01*
X8533130Y4523486D01*
X8536990Y4519676D01*
X8541054Y4516323D01*
X8545322Y4513376D01*
X8549843Y4510887D01*
X8554618Y4508804D01*
X8559546Y4507230D01*
X8564626Y4506061D01*
X8569960Y4505350D01*
X8575395Y4505096D01*
X8580983Y4505299D01*
X8586724Y4505960D01*
X8592616Y4507077D01*
X8598560Y4508652D01*
X8604656Y4510684D01*
X8619693Y4517136D01*
X8619693Y4519269D01*
X8614562Y4524248D01*
X8609431Y4528312D01*
X8600440Y4534509D01*
X8592210Y4538014D01*
X8585860Y4540097D01*
X8576665Y4542485D01*
G37*
G36*
X8814714Y4542790D02*
G01*
X8810752Y4542637D01*
X8799322Y4540656D01*
X8787130Y4535576D01*
X8781186Y4532325D01*
X8775293Y4528413D01*
X8764168Y4519472D01*
X8764168Y4517440D01*
X8778036Y4511649D01*
X8784844Y4509211D01*
X8791143Y4507331D01*
X8796985Y4505960D01*
X8802471Y4505096D01*
X8807551Y4504740D01*
X8812377Y4504893D01*
X8816898Y4505553D01*
X8828532Y4507839D01*
X8841130Y4513783D01*
X8850782Y4522419D01*
X8854135Y4525975D01*
X8856472Y4528921D01*
X8857335Y4530750D01*
X8855100Y4533036D01*
X8849563Y4535982D01*
X8842146Y4539030D01*
X8834424Y4541367D01*
X8830106Y4542434D01*
G37*
G36*
X8489797Y4529328D02*
G01*
X8487816Y4528159D01*
X8484412Y4525365D01*
X8481263Y4522368D01*
X8479942Y4520742D01*
X8479434Y4518812D01*
X8478875Y4517542D01*
X8485327Y4523587D01*
X8487714Y4523638D01*
X8489696Y4524095D01*
X8492591Y4525264D01*
X8492591Y4526432D01*
X8492337Y4527448D01*
X8491677Y4528413D01*
X8490762Y4529074D01*
G37*
G36*
X8892794Y4529328D02*
G01*
X8891473Y4526076D01*
X8892692Y4524908D01*
X8894572Y4524197D01*
X8899296Y4522978D01*
X8901684Y4521758D01*
X8903208Y4519066D01*
X8904376Y4516018D01*
X8904427Y4513173D01*
X8903258Y4510735D01*
X8899652Y4507788D01*
X8899398Y4506772D01*
X8900261Y4505248D01*
X8905544Y4499356D01*
X8908288Y4495749D01*
X8910269Y4492650D01*
X8911031Y4490720D01*
X8911031Y4489653D01*
X8912606Y4489653D01*
X8912555Y4507331D01*
X8910421Y4514697D01*
X8909151Y4517491D01*
X8907526Y4519879D01*
X8903004Y4524298D01*
X8898890Y4525213D01*
X8895740Y4528108D01*
X8894165Y4529175D01*
G37*
G36*
X8492693Y4517796D02*
G01*
X8487867Y4514037D01*
X8487867Y4509922D01*
X8489442Y4509058D01*
X8497316Y4512564D01*
X8498332Y4513376D01*
X8499094Y4514951D01*
X8496300Y4517796D01*
G37*
G36*
X8885783Y4517796D02*
G01*
X8884716Y4513935D01*
X8886850Y4512614D01*
X8889339Y4511903D01*
X8891219Y4511090D01*
X8894572Y4508906D01*
X8895537Y4510430D01*
X8895943Y4511598D01*
X8895994Y4513427D01*
X8891016Y4517796D01*
G37*
G36*
X8477097Y4513478D02*
G01*
X8473694Y4506620D01*
X8472576Y4499152D01*
X8472119Y4494631D01*
X8472068Y4489653D01*
X8472678Y4489653D01*
X8473643Y4490770D01*
X8477097Y4496714D01*
X8482279Y4502810D01*
X8483650Y4505350D01*
X8483396Y4507636D01*
X8481771Y4510430D01*
X8479586Y4513478D01*
G37*
G36*
X8502548Y4506214D02*
G01*
X8500922Y4505960D01*
X8499297Y4505401D01*
X8495944Y4503115D01*
X8494166Y4501642D01*
X8494166Y4499254D01*
X8497417Y4496562D01*
X8503056Y4499559D01*
X8506815Y4501184D01*
X8506714Y4502353D01*
X8506002Y4503724D01*
X8504275Y4506214D01*
G37*
G36*
X8880754Y4506112D02*
G01*
X8879433Y4505756D01*
X8877300Y4503826D01*
X8876436Y4502404D01*
X8876284Y4500829D01*
X8884208Y4496358D01*
X8886444Y4495495D01*
X8888882Y4498949D01*
X8888882Y4502505D01*
X8882532Y4505655D01*
G37*
G36*
X8487918Y4496765D02*
G01*
X8487359Y4496714D01*
X8485987Y4495698D01*
X8477707Y4486097D01*
X8475065Y4477715D01*
X8478164Y4458411D01*
X8478520Y4454956D01*
X8479942Y4454956D01*
X8480044Y4464456D01*
X8480450Y4470704D01*
X8481618Y4478426D01*
X8484108Y4483252D01*
X8486597Y4486910D01*
X8489950Y4491228D01*
X8490813Y4493006D01*
X8490661Y4494377D01*
X8489543Y4495647D01*
G37*
G36*
X8896197Y4496104D02*
G01*
X8892133Y4490516D01*
X8898280Y4483049D01*
X8901176Y4478883D01*
X8903106Y4475022D01*
X8903106Y4449826D01*
X8904122Y4450588D01*
X8904732Y4452264D01*
X8907475Y4467809D01*
X8908592Y4475886D01*
X8907627Y4483506D01*
X8905240Y4487976D01*
X8902750Y4491329D01*
X8898229Y4496104D01*
G37*
G36*
X8512149Y4494682D02*
G01*
X8509558Y4494631D01*
X8506764Y4492701D01*
X8505190Y4491939D01*
X8503767Y4491786D01*
X8502751Y4488942D01*
X8503615Y4487468D01*
X8504834Y4486249D01*
X8506460Y4485843D01*
X8508390Y4486249D01*
X8512657Y4488840D01*
X8514689Y4489602D01*
X8514689Y4494682D01*
G37*
G36*
X8870543Y4494682D02*
G01*
X8868511Y4493006D01*
X8867140Y4491228D01*
X8867190Y4489551D01*
X8868765Y4487773D01*
X8873642Y4484573D01*
X8879230Y4486706D01*
X8880144Y4488840D01*
X8875166Y4492345D01*
X8871508Y4494377D01*
G37*
G36*
X9365335Y4491786D02*
G01*
X9360052Y4488840D01*
X9301988Y4488942D01*
X9283598Y4475429D01*
X9278620Y4471568D01*
X9144711Y4471568D01*
X9142730Y4474464D01*
X9130588Y4474464D01*
X9128048Y4472127D01*
X9129064Y4459681D01*
X9132214Y4457141D01*
X9142222Y4457141D01*
X9143187Y4458563D01*
X9284817Y4458614D01*
X9305696Y4473854D01*
X9359290Y4474667D01*
X9365030Y4471568D01*
X9371330Y4471568D01*
X9376003Y4473752D01*
X9378391Y4478020D01*
X9378391Y4485182D01*
X9374225Y4489704D01*
X9370263Y4491126D01*
X9367926Y4491685D01*
G37*
G36*
X8013953Y4491431D02*
G01*
X8011922Y4491024D01*
X8006384Y4488789D01*
X8003692Y4483608D01*
X8004657Y4476394D01*
X8009737Y4471568D01*
X8018068Y4471568D01*
X8023250Y4474464D01*
X8074304Y4474464D01*
X8095284Y4458563D01*
X8245906Y4457750D01*
X8252714Y4457496D01*
X8254746Y4459986D01*
X8255762Y4471924D01*
X8252409Y4474464D01*
X8241792Y4474464D01*
X8238947Y4471568D01*
X8101584Y4471568D01*
X8082584Y4486148D01*
X8078622Y4488942D01*
X8022437Y4488840D01*
X8017865Y4490720D01*
X8015782Y4491228D01*
G37*
G36*
X8746236Y4491075D02*
G01*
X8743543Y4490720D01*
X8742070Y4490212D01*
X8742070Y4487113D01*
X8745118Y4482541D01*
X8748471Y4481576D01*
X8751163Y4484014D01*
X8751366Y4485182D01*
X8750655Y4486605D01*
G37*
G36*
X8636609Y4490364D02*
G01*
X8631682Y4486503D01*
X8630920Y4485284D01*
X8631377Y4484065D01*
X8635238Y4480255D01*
X8637473Y4480255D01*
X8642654Y4488383D01*
X8641842Y4490364D01*
G37*
G36*
X8520379Y4485995D02*
G01*
X8517483Y4481830D01*
X8515096Y4477664D01*
X8514689Y4476597D01*
X8514689Y4475886D01*
X8518550Y4475886D01*
X8523427Y4481677D01*
X8524697Y4483557D01*
X8524494Y4484776D01*
X8523427Y4485640D01*
X8521750Y4485995D01*
G37*
G36*
X8857335Y4484573D02*
G01*
X8857335Y4481271D01*
X8863838Y4474464D01*
X8865514Y4474565D01*
X8866733Y4475124D01*
X8868460Y4476597D01*
X8867038Y4478731D01*
X8864854Y4480864D01*
X8860180Y4484573D01*
G37*
G36*
X8532164Y4479544D02*
G01*
X8528202Y4475937D01*
X8526627Y4470755D01*
X8527643Y4468418D01*
X8528710Y4467047D01*
X8530640Y4465523D01*
X8532723Y4468012D01*
X8534196Y4470755D01*
X8537600Y4474565D01*
X8537397Y4477004D01*
X8536787Y4477918D01*
X8535771Y4478578D01*
G37*
G36*
X8760155Y4479442D02*
G01*
X8758682Y4479137D01*
X8754719Y4477004D01*
X8754719Y4473448D01*
X8758834Y4469536D01*
X8760358Y4470095D01*
X8760917Y4470806D01*
X8761120Y4471619D01*
X8761984Y4472787D01*
X8764168Y4474667D01*
X8764168Y4477105D01*
X8761425Y4479188D01*
G37*
G36*
X8619286Y4478782D02*
G01*
X8617458Y4476089D01*
X8622436Y4468723D01*
X8624925Y4468672D01*
X8628380Y4472330D01*
X8628380Y4475276D01*
X8625840Y4477207D01*
X8624214Y4478070D01*
X8622588Y4478578D01*
G37*
G36*
X8844686Y4477359D02*
G01*
X8844889Y4475784D01*
X8849207Y4469485D01*
X8849512Y4468571D01*
X8850122Y4467707D01*
X8851646Y4466437D01*
X8855760Y4467402D01*
X8855760Y4471314D01*
X8850122Y4477359D01*
G37*
G36*
X8548776Y4474464D02*
G01*
X8548014Y4473905D01*
X8547201Y4472635D01*
X8546287Y4470095D01*
X8546287Y4468215D01*
X8546998Y4467555D01*
X8548319Y4468520D01*
X8549386Y4469790D01*
X8549436Y4474464D01*
G37*
G36*
X8774938Y4473600D02*
G01*
X8773210Y4473194D01*
X8771940Y4471873D01*
X8770518Y4469688D01*
X8769400Y4467402D01*
X8768892Y4465777D01*
X8768892Y4464354D01*
X8775192Y4464354D01*
X8776360Y4466640D01*
X8776919Y4469079D01*
X8777173Y4473397D01*
G37*
G36*
X8605418Y4473041D02*
G01*
X8604504Y4470755D01*
X8605977Y4466793D01*
X8607450Y4464253D01*
X8609838Y4461357D01*
X8614156Y4463135D01*
X8613952Y4464812D01*
X8612428Y4467453D01*
X8608415Y4473041D01*
G37*
G36*
X8832799Y4473041D02*
G01*
X8831986Y4471111D01*
X8834678Y4465523D01*
X8835694Y4464304D01*
X8836761Y4463897D01*
X8839962Y4464507D01*
X8839758Y4465929D01*
X8838488Y4468215D01*
X8835237Y4473041D01*
G37*
G36*
X8789924Y4470044D02*
G01*
X8788755Y4469993D01*
X8787638Y4469485D01*
X8784691Y4466793D01*
X8784640Y4465116D01*
X8784234Y4464253D01*
X8783116Y4463542D01*
X8783116Y4458614D01*
X8786368Y4457039D01*
X8790432Y4457496D01*
X8791905Y4462678D01*
X8792464Y4465828D01*
X8792565Y4469231D01*
G37*
G36*
X8592972Y4469333D02*
G01*
X8591296Y4468723D01*
X8590076Y4468012D01*
X8590483Y4459681D01*
X8593226Y4457801D01*
X8598001Y4458208D01*
X8598509Y4461764D01*
X8596528Y4467352D01*
X8593734Y4469079D01*
G37*
G36*
X8574684Y4468672D02*
G01*
X8574379Y4460189D01*
X8574887Y4458563D01*
X8581034Y4458563D01*
X8581034Y4465878D01*
X8579358Y4468672D01*
G37*
G36*
X8802878Y4468672D02*
G01*
X8800388Y4465218D01*
X8800896Y4457496D01*
X8806383Y4457496D01*
X8806891Y4466640D01*
X8805519Y4468063D01*
X8804452Y4468622D01*
G37*
G36*
X9354312Y4443425D02*
G01*
X9350197Y4441952D01*
X9346996Y4440428D01*
X9342221Y4437735D01*
X9339681Y4434332D01*
X9338208Y4431690D01*
X9336684Y4427880D01*
X9321139Y4426712D01*
X9144711Y4427423D01*
X9139732Y4429709D01*
X9132773Y4429709D01*
X9128912Y4426153D01*
X9128912Y4423105D01*
X9354515Y4423105D01*
X9355531Y4426864D01*
X9358731Y4428032D01*
X9359747Y4428083D01*
X9362084Y4426762D01*
X9364167Y4425238D01*
X9364167Y4422241D01*
X9361576Y4419600D01*
X9358122Y4419600D01*
X9354515Y4423105D01*
X9128912Y4423105D01*
X9128912Y4416044D01*
X9130741Y4412386D01*
X9143796Y4412386D01*
X9146946Y4416348D01*
X9337294Y4416806D01*
X9339427Y4413402D01*
X9341358Y4410862D01*
X9344660Y4407255D01*
X9353499Y4403496D01*
X9365335Y4403598D01*
X9368231Y4404715D01*
X9372142Y4406747D01*
X9375597Y4409643D01*
X9378442Y4413250D01*
X9380524Y4417415D01*
X9381490Y4419955D01*
X9381540Y4427728D01*
X9379712Y4433316D01*
X9374327Y4439107D01*
X9367266Y4442866D01*
G37*
G36*
X8022437Y4442917D02*
G01*
X8014563Y4442256D01*
X8011464Y4440885D01*
X8008620Y4439310D01*
X8005927Y4437227D01*
X8003641Y4434789D01*
X8001914Y4432147D01*
X8000441Y4429353D01*
X8000030Y4423308D01*
X8018373Y4423308D01*
X8019745Y4426356D01*
X8021066Y4427677D01*
X8022234Y4428134D01*
X8023453Y4427829D01*
X8026806Y4425086D01*
X8026806Y4422597D01*
X8024723Y4421073D01*
X8021523Y4419955D01*
X8019186Y4420920D01*
X8018373Y4423308D01*
X8000030Y4423308D01*
X7999780Y4419142D01*
X8003235Y4412437D01*
X8010855Y4405934D01*
X8016748Y4403699D01*
X8027212Y4403699D01*
X8031632Y4405223D01*
X8035086Y4406900D01*
X8040166Y4410100D01*
X8043265Y4415739D01*
X8061147Y4416704D01*
X8206943Y4416348D01*
X8227314Y4416094D01*
X8238794Y4415637D01*
X8240318Y4412386D01*
X8251088Y4412386D01*
X8254187Y4413859D01*
X8254187Y4428032D01*
X8249666Y4429201D01*
X8246211Y4429607D01*
X8241284Y4429709D01*
X8238286Y4427220D01*
X8060334Y4426813D01*
X8044383Y4427677D01*
X8042300Y4433417D01*
X8036102Y4439869D01*
X8030362Y4442510D01*
G37*
G36*
X7959293Y4400753D02*
G01*
X7950809Y4397756D01*
X7944764Y4392218D01*
X7941513Y4386072D01*
X7941564Y4375912D01*
X7946339Y4368241D01*
X7953451Y4363669D01*
X7958328Y4362399D01*
X7961782Y4361891D01*
X7966405Y4361840D01*
X7972501Y4364024D01*
X7975193Y4365396D01*
X7977530Y4367022D01*
X7982356Y4371898D01*
X8137398Y4371898D01*
X8142427Y4368698D01*
X8150555Y4362145D01*
X8167979Y4347362D01*
X8192973Y4347413D01*
X8206282Y4358995D01*
X8212378Y4363923D01*
X8213902Y4364888D01*
X8215884Y4365802D01*
X8259318Y4365802D01*
X8258657Y4375962D01*
X8257997Y4380585D01*
X8254492Y4381398D01*
X8241944Y4379620D01*
X8206943Y4378807D01*
X8198510Y4371695D01*
X8187334Y4361738D01*
X8176158Y4361180D01*
X8172196Y4363415D01*
X8166557Y4367784D01*
X8147558Y4383481D01*
X8141512Y4387799D01*
X7983423Y4387799D01*
X7982102Y4389272D01*
X7978648Y4394352D01*
X7971434Y4398975D01*
X7966659Y4400245D01*
X7963408Y4400702D01*
G37*
G36*
X9417456Y4400753D02*
G01*
X9410801Y4398314D01*
X9407347Y4396130D01*
X9404553Y4393438D01*
X9402419Y4390186D01*
X9401200Y4387799D01*
X9239758Y4387799D01*
X9218523Y4370120D01*
X9209074Y4361992D01*
X9198305Y4361078D01*
X9195003Y4362958D01*
X9188856Y4367784D01*
X9175343Y4379163D01*
X9141155Y4379163D01*
X9134805Y4381246D01*
X9126728Y4381296D01*
X9124848Y4379214D01*
X9123984Y4370324D01*
X9123883Y4365955D01*
X9124289Y4365396D01*
X9167215Y4366361D01*
X9187840Y4348988D01*
X9188754Y4348022D01*
X9189059Y4347362D01*
X9215018Y4347362D01*
X9234932Y4364837D01*
X9241282Y4370070D01*
X9244838Y4371898D01*
X9401352Y4371898D01*
X9408566Y4364736D01*
X9417100Y4361789D01*
X9421368Y4361891D01*
X9427210Y4362958D01*
X9431680Y4364126D01*
X9438894Y4370933D01*
X9441535Y4378350D01*
X9441535Y4385259D01*
X9437827Y4392523D01*
X9430664Y4398518D01*
X9426143Y4399686D01*
X9422638Y4400245D01*
G37*
G36*
X8515451Y4372762D02*
G01*
X8514537Y4370476D01*
X8516315Y4366310D01*
X8519515Y4359859D01*
X8529523Y4341977D01*
X8540038Y4325772D01*
X8540953Y4325010D01*
X8541512Y4325010D01*
X8541512Y4332427D01*
X8527999Y4353915D01*
X8525002Y4359605D01*
X8522106Y4365853D01*
X8521395Y4366869D01*
X8521039Y4368088D01*
X8520988Y4370324D01*
X8519515Y4371340D01*
X8518042Y4372000D01*
G37*
G36*
X8864650Y4372000D02*
G01*
X8862060Y4369663D01*
X8862060Y4368088D01*
X8860993Y4363770D01*
X8858250Y4357522D01*
X8854389Y4350512D01*
X8848039Y4340910D01*
X8846515Y4338218D01*
X8843873Y4334306D01*
X8842603Y4331563D01*
X8841790Y4328972D01*
X8841536Y4324248D01*
X8842298Y4324248D01*
X8843772Y4325366D01*
X8849309Y4333036D01*
X8856573Y4344974D01*
X8863380Y4357573D01*
X8865971Y4363008D01*
X8868511Y4368952D01*
X8867952Y4371543D01*
G37*
G36*
X8847328Y4370527D02*
G01*
X8845296Y4368342D01*
X8844483Y4349546D01*
X8846108Y4349546D01*
X8849664Y4356912D01*
X8852560Y4363618D01*
X8852966Y4370120D01*
G37*
G36*
X8531656Y4370476D02*
G01*
X8529624Y4369257D01*
X8530844Y4366056D01*
X8538108Y4351274D01*
X8538464Y4350105D01*
X8538870Y4349597D01*
X8539937Y4349546D01*
X8539835Y4359097D01*
X8539480Y4364583D01*
X8538768Y4370120D01*
G37*
G36*
X7999272Y4348835D02*
G01*
X7998256Y4347311D01*
X8000441Y4325874D01*
X8002016Y4315206D01*
X8005775Y4293108D01*
X8011109Y4266895D01*
X8019694Y4233265D01*
X8022081Y4224629D01*
X8026146Y4211370D01*
X8031734Y4194860D01*
X8037423Y4179062D01*
X8045703Y4158437D01*
X8053628Y4140555D01*
X8035290Y4128719D01*
X8030108Y4124960D01*
X8027924Y4125010D01*
X8026653Y4125518D01*
X8025130Y4126788D01*
X8011363Y4126788D01*
X8002270Y4121759D01*
X7996732Y4113276D01*
X7996681Y4102049D01*
X8000136Y4095394D01*
X8005825Y4090314D01*
X8012582Y4087418D01*
X8023250Y4087418D01*
X8031886Y4091432D01*
X8037525Y4098239D01*
X8039455Y4104741D01*
X8039455Y4112717D01*
X8041589Y4113529D01*
X8060080Y4125874D01*
X8061147Y4124858D01*
X8064500Y4119524D01*
X8081111Y4089806D01*
X8088731Y4077309D01*
X8097418Y4064254D01*
X8104530Y4054246D01*
X8104936Y4053128D01*
X8104936Y4052214D01*
X8100568Y4049420D01*
X8098891Y4048048D01*
X8097977Y4046931D01*
X8096453Y4046372D01*
X8088782Y4048506D01*
X8080095Y4046524D01*
X8076641Y4044899D01*
X8073796Y4042613D01*
X8071154Y4039412D01*
X8069072Y4036517D01*
X8069122Y4024223D01*
X8072678Y4018787D01*
X8074304Y4016908D01*
X8076285Y4015384D01*
X8082483Y4011929D01*
X8096656Y4011929D01*
X8104124Y4015943D01*
X8108696Y4022039D01*
X8109610Y4026712D01*
X8109864Y4029506D01*
X8109610Y4032453D01*
X8115096Y4037787D01*
X8116824Y4037025D01*
X8117992Y4035755D01*
X8119567Y4032910D01*
X8121599Y4032910D01*
X8134959Y4045153D01*
X8134858Y4046575D01*
X8134197Y4047998D01*
X8132521Y4050436D01*
X8147354Y4063390D01*
X8159800Y4074922D01*
X8170214Y4085488D01*
X8174837Y4090568D01*
X8182914Y4100576D01*
X8186572Y4105554D01*
X8193227Y4115917D01*
X8198612Y4125823D01*
X8198866Y4127601D01*
X8196834Y4126737D01*
X8159191Y4097477D01*
X8122056Y4067200D01*
X8121142Y4068165D01*
X8116722Y4075176D01*
X8101482Y4101337D01*
X8089696Y4122724D01*
X8075218Y4151376D01*
X8066633Y4171238D01*
X8054390Y4203598D01*
X8049818Y4217263D01*
X8044484Y4235246D01*
X8038541Y4257040D01*
X8032800Y4281220D01*
X8027873Y4305147D01*
X8022793Y4336491D01*
X8021574Y4347210D01*
X8021116Y4348835D01*
G37*
G36*
X9363456Y4348835D02*
G01*
X9362897Y4347464D01*
X9358223Y4313885D01*
X9352280Y4281474D01*
X9349790Y4270451D01*
X9341713Y4239920D01*
X9334042Y4214520D01*
X9328658Y4199483D01*
X9322155Y4182414D01*
X9316212Y4167835D01*
X9309658Y4153154D01*
X9304782Y4143248D01*
X9291320Y4117949D01*
X9277858Y4094378D01*
X9269476Y4080662D01*
X9261094Y4067708D01*
X9254744Y4073245D01*
X9230512Y4093159D01*
X9170111Y4140911D01*
X9147454Y4158132D01*
X9146184Y4158132D01*
X9144558Y4157827D01*
X9142476Y4157065D01*
X9140698Y4156100D01*
X9139936Y4155338D01*
X9141155Y4153966D01*
X9150858Y4145432D01*
X9164421Y4134053D01*
X9173260Y4126280D01*
X9181744Y4118203D01*
X9215018Y4083761D01*
X9226448Y4072737D01*
X9234017Y4065828D01*
X9245955Y4055821D01*
X9250476Y4052519D01*
X9250375Y4050741D01*
X9249765Y4049369D01*
X9248444Y4047337D01*
X9248800Y4045762D01*
X9250934Y4043324D01*
X9262618Y4032402D01*
X9267444Y4037685D01*
X9269374Y4036872D01*
X9271050Y4035399D01*
X9273794Y4032148D01*
X9273997Y4022648D01*
X9278315Y4016654D01*
X9285071Y4012590D01*
X9293910Y4010660D01*
X9303004Y4012488D01*
X9309658Y4016705D01*
X9313570Y4022801D01*
X9315450Y4030675D01*
X9313418Y4037939D01*
X9309049Y4043781D01*
X9301581Y4047286D01*
X9294114Y4047286D01*
X9289897Y4046982D01*
X9285782Y4046220D01*
X9279991Y4052163D01*
X9279128Y4054043D01*
X9279839Y4056075D01*
X9285325Y4063898D01*
X9301683Y4088637D01*
X9307830Y4099255D01*
X9315297Y4112768D01*
X9321546Y4124909D01*
X9321546Y4125671D01*
X9324441Y4125671D01*
X9342424Y4113885D01*
X9344710Y4112006D01*
X9345015Y4102201D01*
X9348470Y4094987D01*
X9352534Y4091736D01*
X9355886Y4089704D01*
X9361017Y4087418D01*
X9371076Y4087418D01*
X9375038Y4088993D01*
X9378137Y4090670D01*
X9382709Y4093667D01*
X9385198Y4098340D01*
X9386620Y4101693D01*
X9387941Y4106265D01*
X9386112Y4114495D01*
X9382607Y4119727D01*
X9380728Y4121658D01*
X9378442Y4123385D01*
X9372447Y4126636D01*
X9359493Y4126788D01*
X9357563Y4124960D01*
X9353956Y4124960D01*
X9335617Y4137812D01*
X9331045Y4141215D01*
X9333077Y4146550D01*
X9337548Y4156201D01*
X9349536Y4186834D01*
X9354362Y4200499D01*
X9358934Y4214215D01*
X9363100Y4227626D01*
X9370822Y4255414D01*
X9375902Y4277512D01*
X9379661Y4297527D01*
X9382353Y4314596D01*
X9385249Y4338777D01*
X9385808Y4346803D01*
X9385757Y4348276D01*
X9385401Y4348835D01*
G37*
G36*
X9251645Y4343400D02*
G01*
X9219692Y4316882D01*
X9213189Y4322267D01*
X9204655Y4325721D01*
X9191650Y4325721D01*
X9184589Y4323232D01*
X9178391Y4320184D01*
X9173870Y4317390D01*
X9172498Y4318914D01*
X9158782Y4329988D01*
X9113520Y4331106D01*
X9112250Y4325315D01*
X9111691Y4321403D01*
X9111538Y4316323D01*
X9115298Y4315460D01*
X9146438Y4317187D01*
X9151772Y4316272D01*
X9161729Y4307636D01*
X9166148Y4304487D01*
X9165323Y4297883D01*
X9182608Y4297883D01*
X9184589Y4302963D01*
X9185910Y4304944D01*
X9187637Y4306570D01*
X9193225Y4309821D01*
X9201708Y4309821D01*
X9207804Y4306671D01*
X9211005Y4300474D01*
X9211005Y4294276D01*
X9207347Y4290314D01*
X9204401Y4287926D01*
X9200698Y4285691D01*
X9301175Y4285691D01*
X9303410Y4289602D01*
X9308846Y4289602D01*
X9311436Y4285996D01*
X9310471Y4282440D01*
X9307169Y4280814D01*
X9302800Y4282490D01*
X9301175Y4285691D01*
X9200698Y4285691D01*
X9199981Y4285284D01*
X9194647Y4285284D01*
X9188907Y4287469D01*
X9184589Y4291888D01*
X9182608Y4297883D01*
X9165323Y4297883D01*
X9165234Y4297172D01*
X9167368Y4287367D01*
X9174784Y4277410D01*
X9180271Y4274261D01*
X9184132Y4272483D01*
X9189313Y4270603D01*
X9203486Y4270603D01*
X9212884Y4273905D01*
X9219590Y4280204D01*
X9283903Y4279849D01*
X9288322Y4271924D01*
X9292132Y4269079D01*
X9295333Y4267200D01*
X9300413Y4264964D01*
X9310065Y4264710D01*
X9317583Y4266692D01*
X9324492Y4272229D01*
X9328150Y4279138D01*
X9328251Y4291431D01*
X9325660Y4295648D01*
X9323171Y4298594D01*
X9319056Y4302556D01*
X9310420Y4305503D01*
X9302851Y4305503D01*
X9296450Y4303471D01*
X9292590Y4301845D01*
X9288475Y4299356D01*
X9284106Y4293158D01*
X9282074Y4291025D01*
X9229191Y4291025D01*
X9229242Y4292244D01*
X9231325Y4296460D01*
X9232442Y4306112D01*
X9229852Y4311142D01*
X9231020Y4312818D01*
X9234525Y4316272D01*
X9248089Y4327906D01*
X9253169Y4331817D01*
X9256420Y4334002D01*
X9352737Y4334713D01*
X9352737Y4343044D01*
G37*
G36*
X8029752Y4343044D02*
G01*
X8030413Y4337964D01*
X8030921Y4335627D01*
X8031632Y4334357D01*
X8124850Y4334357D01*
X8127339Y4332782D01*
X8138312Y4324350D01*
X8149945Y4314545D01*
X8153501Y4311243D01*
X8151418Y4308195D01*
X8150606Y4300778D01*
X8152341Y4294581D01*
X8172043Y4294581D01*
X8172043Y4301236D01*
X8174481Y4305503D01*
X8180984Y4309821D01*
X8190636Y4309821D01*
X8196376Y4306265D01*
X8199881Y4299610D01*
X8198916Y4293158D01*
X8195868Y4289602D01*
X8193379Y4287469D01*
X8189620Y4285284D01*
X8182254Y4285284D01*
X8178139Y4287520D01*
X8176107Y4289196D01*
X8174278Y4291126D01*
X8172043Y4294581D01*
X8152341Y4294581D01*
X8153298Y4291025D01*
X8129117Y4291076D01*
X8114792Y4291330D01*
X8099704Y4291990D01*
X8096402Y4296562D01*
X8093456Y4299661D01*
X8088579Y4303674D01*
X8083245Y4304944D01*
X8079384Y4305401D01*
X8074253Y4305503D01*
X8065312Y4302455D01*
X8058607Y4296460D01*
X8055203Y4288078D01*
X8055376Y4283151D01*
X8074152Y4283151D01*
X8074152Y4287875D01*
X8076133Y4289653D01*
X8080806Y4289247D01*
X8083245Y4285284D01*
X8080806Y4281322D01*
X8078063Y4280814D01*
X8074152Y4283151D01*
X8055376Y4283151D01*
X8056118Y4279646D01*
X8057286Y4276953D01*
X8060842Y4271467D01*
X8065922Y4268266D01*
X8069325Y4266590D01*
X8073796Y4265066D01*
X8083600Y4265066D01*
X8092135Y4268622D01*
X8095589Y4272381D01*
X8097723Y4275480D01*
X8100110Y4280204D01*
X8162188Y4280204D01*
X8167674Y4275734D01*
X8172703Y4272584D01*
X8177987Y4270451D01*
X8192211Y4270451D01*
X8198053Y4272584D01*
X8202675Y4274718D01*
X8208365Y4278122D01*
X8214664Y4286605D01*
X8217103Y4295038D01*
X8216798Y4304080D01*
X8230971Y4316831D01*
X8252256Y4317136D01*
X8256930Y4315460D01*
X8267700Y4315409D01*
X8270951Y4318304D01*
X8269782Y4330090D01*
X8266684Y4331614D01*
X8245551Y4330446D01*
X8223503Y4329684D01*
X8208416Y4317034D01*
X8202828Y4320844D01*
X8198510Y4323232D01*
X8192211Y4325975D01*
X8178749Y4325975D01*
X8171484Y4322673D01*
X8167522Y4320489D01*
X8164575Y4318304D01*
X8163306Y4318050D01*
X8161528Y4319066D01*
X8146694Y4330547D01*
X8130031Y4343044D01*
G37*
G36*
X9097365Y4285284D02*
G01*
X9095790Y4283710D01*
X9094266Y4281576D01*
X9092692Y4278477D01*
X9091472Y4275226D01*
X9091015Y4272788D01*
X9091015Y4271213D01*
X9105188Y4267098D01*
X9115298Y4268063D01*
X9116364Y4266488D01*
X9159341Y4266488D01*
X9181236Y4248454D01*
X9206280Y4228236D01*
X9291116Y4228185D01*
X9294672Y4227322D01*
X9294672Y4223461D01*
X9301022Y4217822D01*
X9301022Y4211878D01*
X9299143Y4210151D01*
X9278366Y4210151D01*
X9271406Y4214469D01*
X9263684Y4214520D01*
X9258706Y4211015D01*
X9256623Y4205274D01*
X9258554Y4199686D01*
X9262618Y4195724D01*
X9270288Y4195724D01*
X9273438Y4197248D01*
X9275114Y4198416D01*
X9276740Y4200042D01*
X9312249Y4200042D01*
X9310827Y4209440D01*
X9309811Y4219194D01*
X9313468Y4224274D01*
X9314535Y4230217D01*
X9312808Y4233722D01*
X9311284Y4235754D01*
X9308744Y4237990D01*
X9210852Y4237634D01*
X9196832Y4248454D01*
X9161576Y4276496D01*
X9118142Y4276953D01*
X9113012Y4280916D01*
X9108440Y4280916D01*
X9100972Y4285284D01*
G37*
G36*
X8284108Y4284167D02*
G01*
X8281974Y4283811D01*
X8279739Y4283100D01*
X8278012Y4282186D01*
X8276691Y4281119D01*
X8268512Y4279392D01*
X8265769Y4276598D01*
X8220709Y4276598D01*
X8214461Y4271213D01*
X8171688Y4237228D01*
X8078673Y4237685D01*
X8074202Y4237888D01*
X8069427Y4233722D01*
X8067903Y4228642D01*
X8069325Y4224934D01*
X8070646Y4222445D01*
X8072881Y4219295D01*
X8072475Y4200042D01*
X8108848Y4200042D01*
X8114233Y4195724D01*
X8121599Y4195724D01*
X8126018Y4197807D01*
X8129778Y4204309D01*
X8127695Y4209796D01*
X8122818Y4214520D01*
X8113928Y4214520D01*
X8108899Y4211116D01*
X8091931Y4210202D01*
X8082483Y4211269D01*
X8081975Y4217974D01*
X8086699Y4220514D01*
X8088325Y4225696D01*
X8088782Y4227880D01*
X8175650Y4228592D01*
X8180831Y4232351D01*
X8205927Y4252772D01*
X8223148Y4266488D01*
X8267242Y4266488D01*
X8270595Y4268622D01*
X8275218Y4266488D01*
X8290712Y4271213D01*
X8292287Y4272229D01*
X8288680Y4283811D01*
G37*
G36*
X8310270Y4244848D02*
G01*
X8308746Y4244746D01*
X8307374Y4244289D01*
X8305241Y4243070D01*
X8303361Y4241342D01*
X8302904Y4240174D01*
X8301380Y4238599D01*
X8297519Y4235399D01*
X8267903Y4222242D01*
X8240572Y4211472D01*
X8210499Y4200601D01*
X8200136Y4196283D01*
X8182559Y4188510D01*
X8175396Y4182719D01*
X8136381Y4182719D01*
X8105749Y4155033D01*
X8105851Y4153458D01*
X8108899Y4147870D01*
X8110626Y4142994D01*
X8112353Y4136491D01*
X8114487Y4125823D01*
X8116519Y4124248D01*
X8135366Y4123385D01*
X8141157Y4121251D01*
X8144154Y4120540D01*
X8145678Y4122318D01*
X8146389Y4123791D01*
X8146796Y4126026D01*
X8148980Y4127296D01*
X8151520Y4129328D01*
X8156295Y4133646D01*
X8156295Y4141520D01*
X8154568Y4144924D01*
X8147964Y4148886D01*
X8141258Y4148226D01*
X8135823Y4144822D01*
X8134553Y4142079D01*
X8133842Y4139285D01*
X8133181Y4134358D01*
X8127492Y4134612D01*
X8123428Y4135221D01*
X8121396Y4147413D01*
X8119008Y4151731D01*
X8119922Y4155033D01*
X8139633Y4172610D01*
X8178393Y4172610D01*
X8185708Y4177080D01*
X8194040Y4181348D01*
X8215833Y4191558D01*
X8218779Y4192676D01*
X8220100Y4192930D01*
X8221167Y4193387D01*
X8222589Y4194556D01*
X8222437Y4193336D01*
X8221573Y4192320D01*
X8219236Y4190746D01*
X8220100Y4188764D01*
X8227517Y4185361D01*
X8273084Y4161993D01*
X8288274Y4154424D01*
X8308695Y4143857D01*
X8329574Y4134002D01*
X8367522Y4116882D01*
X8389620Y4107637D01*
X8410498Y4099204D01*
X8423300Y4094530D01*
X8438946Y4089247D01*
X8468918Y4080001D01*
X8468918Y4081627D01*
X8457844Y4086707D01*
X8457895Y4089196D01*
X8462568Y4094886D01*
X8462568Y4097324D01*
X8460130Y4099204D01*
X8453170Y4092956D01*
X8451088Y4092092D01*
X8448243Y4092803D01*
X8438235Y4097274D01*
X8436305Y4098747D01*
X8436813Y4100423D01*
X8442858Y4107281D01*
X8442858Y4109516D01*
X8439708Y4112209D01*
X8438032Y4113276D01*
X8436610Y4113428D01*
X8427516Y4103319D01*
X8426500Y4103319D01*
X8422640Y4104640D01*
X8415274Y4107992D01*
X8406434Y4112463D01*
X8396732Y4117949D01*
X8396528Y4118762D01*
X8397494Y4120032D01*
X8405418Y4127449D01*
X8410752Y4133037D01*
X8401812Y4140911D01*
X8399272Y4139387D01*
X8385911Y4128058D01*
X8382812Y4126229D01*
X8380069Y4126687D01*
X8357920Y4138929D01*
X8350148Y4143857D01*
X8348929Y4144924D01*
X8350910Y4147007D01*
X8362746Y4157675D01*
X8369604Y4160469D01*
X8368690Y4165752D01*
X8367318Y4171035D01*
X8366099Y4174083D01*
X8361629Y4174083D01*
X8345220Y4159504D01*
X8337499Y4153103D01*
X8334552Y4154424D01*
X8320735Y4161993D01*
X8305444Y4171238D01*
X8307273Y4173778D01*
X8313064Y4178909D01*
X8325256Y4188815D01*
X8340496Y4200550D01*
X8335518Y4208119D01*
X8334603Y4209034D01*
X8333231Y4209542D01*
X8323173Y4200601D01*
X8298586Y4180992D01*
X8294268Y4177029D01*
X8287156Y4180738D01*
X8266531Y4192981D01*
X8257438Y4198162D01*
X8252358Y4200804D01*
X8252002Y4201617D01*
X8253069Y4202531D01*
X8281974Y4216349D01*
X8298230Y4224528D01*
X8309203Y4230522D01*
X8311692Y4231538D01*
X8313369Y4231843D01*
X8314994Y4231843D01*
X8315807Y4233722D01*
G37*
G36*
X9075115Y4244746D02*
G01*
X9074404Y4244543D01*
X9073438Y4243933D01*
X9071813Y4241952D01*
X9067190Y4233926D01*
X9069120Y4231843D01*
X9070543Y4231843D01*
X9072321Y4231436D01*
X9079026Y4228185D01*
X9087154Y4223613D01*
X9112656Y4210456D01*
X9126931Y4203547D01*
X9126931Y4201312D01*
X9091523Y4181348D01*
X9086850Y4178960D01*
X9084513Y4180128D01*
X9081312Y4182567D01*
X9057690Y4202480D01*
X9050832Y4208729D01*
X9048750Y4208627D01*
X9043619Y4202176D01*
X9043619Y4199839D01*
X9048800Y4195826D01*
X9071356Y4176725D01*
X9074607Y4173677D01*
X9075115Y4172965D01*
X9075166Y4172254D01*
X9048750Y4157218D01*
X9045397Y4155592D01*
X9043568Y4155287D01*
X9030055Y4167530D01*
X9023959Y4172762D01*
X9020759Y4174947D01*
X9015476Y4174032D01*
X9013647Y4170375D01*
X9013698Y4160723D01*
X9015780Y4158183D01*
X9022181Y4158183D01*
X9023502Y4155186D01*
X9025636Y4152392D01*
X9029954Y4147413D01*
X9030208Y4146804D01*
X9030208Y4145838D01*
X9027820Y4144924D01*
X8996324Y4127957D01*
X8985554Y4138676D01*
X8983014Y4140352D01*
X8980779Y4139742D01*
X8972600Y4133494D01*
X8972651Y4131106D01*
X8979154Y4125010D01*
X8981694Y4122318D01*
X8982049Y4121708D01*
X8982049Y4120946D01*
X8967368Y4113326D01*
X8955379Y4107637D01*
X8949994Y4107637D01*
X8946489Y4111955D01*
X8942476Y4111955D01*
X8929725Y4102709D01*
X8926779Y4100982D01*
X8926779Y4097528D01*
X8927947Y4097528D01*
X8934907Y4099204D01*
X8974277Y4110837D01*
X8980982Y4113225D01*
X8984183Y4113834D01*
X9009684Y4122826D01*
X9052560Y4139437D01*
X9080550Y4151833D01*
X9113977Y4167225D01*
X9160662Y4190085D01*
X9164066Y4192066D01*
X9178645Y4185310D01*
X9198000Y4177029D01*
X9203893Y4172508D01*
X9244380Y4172661D01*
X9265005Y4153966D01*
X9261703Y4147718D01*
X9260586Y4135831D01*
X9259062Y4134916D01*
X9256776Y4134358D01*
X9252051Y4133748D01*
X9252000Y4139031D01*
X9249308Y4143959D01*
X9243415Y4148328D01*
X9233865Y4148328D01*
X9228531Y4143603D01*
X9227515Y4138676D01*
X9228632Y4133240D01*
X9237827Y4125112D01*
X9237827Y4121404D01*
X9241739Y4120489D01*
X9247124Y4123537D01*
X9263684Y4123537D01*
X9268764Y4125163D01*
X9269933Y4128262D01*
X9273032Y4140860D01*
X9274302Y4145229D01*
X9275622Y4148886D01*
X9277807Y4153763D01*
X9276638Y4156151D01*
X9272168Y4160672D01*
X9247886Y4182719D01*
X9207906Y4182719D01*
X9202166Y4186631D01*
X9198254Y4188917D01*
X9190939Y4192320D01*
X9172244Y4200194D01*
X9150502Y4208221D01*
X9127439Y4217060D01*
X9113926Y4222800D01*
X9099143Y4229506D01*
X9087104Y4235399D01*
X9081719Y4238396D01*
X9079890Y4242409D01*
X9076080Y4244441D01*
G37*
G36*
X8198053Y4174083D02*
G01*
X8196884Y4171543D01*
X8195614Y4170121D01*
X8168741Y4147261D01*
X8169656Y4145127D01*
X8196173Y4159961D01*
X8206841Y4168038D01*
X8209178Y4170324D01*
X8207857Y4171187D01*
X8204962Y4172458D01*
X8201710Y4173575D01*
X8199475Y4174083D01*
G37*
G36*
X9187434Y4174083D02*
G01*
X9182963Y4174032D01*
X9175902Y4170679D01*
X9175394Y4168495D01*
X9187434Y4160316D01*
X9202470Y4151274D01*
X9209176Y4147769D01*
X9213088Y4145483D01*
X9216237Y4143959D01*
X9218117Y4143756D01*
X9218117Y4144670D01*
X9217812Y4145686D01*
X9216847Y4146956D01*
X9214916Y4148632D01*
X9198559Y4161180D01*
X9188704Y4169257D01*
X9186519Y4171391D01*
G37*
G36*
X8543290Y4152544D02*
G01*
X8542832Y4151833D01*
X8542324Y4143654D01*
X8541308Y4099204D01*
X8547150Y4098086D01*
X8552332Y4097375D01*
X8553043Y4104690D01*
X8553348Y4110278D01*
X8553399Y4118356D01*
X8554923Y4118711D01*
X8556498Y4118610D01*
X8562746Y4117390D01*
X8571280Y4116070D01*
X8573109Y4115612D01*
X8573109Y4093464D01*
X8583218Y4091787D01*
X8583726Y4091838D01*
X8584793Y4118457D01*
X8585555Y4144822D01*
X8584336Y4146092D01*
X8583218Y4146550D01*
X8580932Y4147058D01*
X8579713Y4148074D01*
X8573516Y4148429D01*
X8573058Y4126382D01*
X8570671Y4126484D01*
X8554212Y4129532D01*
X8553754Y4150614D01*
X8545931Y4151782D01*
G37*
G36*
X8663482Y4137914D02*
G01*
X8659215Y4135018D01*
X8657031Y4132986D01*
X8655253Y4130395D01*
X8655202Y4092651D01*
X8656320Y4090212D01*
X8657640Y4088079D01*
X8659520Y4086098D01*
X8661857Y4084269D01*
X8666988Y4081627D01*
X8674354Y4081576D01*
X8680500Y4081119D01*
X8690102Y4079900D01*
X8695842Y4082694D01*
X8699449Y4087622D01*
X8699449Y4096765D01*
X8696604Y4097324D01*
X8687206Y4097883D01*
X8686698Y4091838D01*
X8684412Y4090111D01*
X8675014Y4091279D01*
X8670645Y4092092D01*
X8668004Y4093159D01*
X8666988Y4106570D01*
X8668258Y4126788D01*
X8684209Y4126788D01*
X8686698Y4124858D01*
X8687206Y4118813D01*
X8699449Y4118406D01*
X8699449Y4121556D01*
X8699195Y4124451D01*
X8698534Y4127144D01*
X8697366Y4129633D01*
X8695740Y4132021D01*
X8693810Y4134358D01*
X8688781Y4136288D01*
X8677148Y4137456D01*
X8670391Y4137863D01*
G37*
G36*
X8719210Y4135069D02*
G01*
X8715298Y4134916D01*
X8713368Y4134612D01*
X8712860Y4134154D01*
X8713012Y4102506D01*
X8713317Y4087469D01*
X8714028Y4077665D01*
X8724442Y4077258D01*
X8725204Y4088739D01*
X8725763Y4094124D01*
X8726474Y4097528D01*
X8729014Y4097528D01*
X8732164Y4092905D01*
X8741816Y4076954D01*
X8753906Y4076598D01*
X8753906Y4077360D01*
X8752789Y4079798D01*
X8746337Y4091076D01*
X8740394Y4100982D01*
X8736431Y4109008D01*
X8735771Y4111091D01*
X8735771Y4112310D01*
X8751671Y4131818D01*
X8744051Y4132935D01*
X8736736Y4132072D01*
X8726830Y4118711D01*
X8725509Y4117644D01*
X8725408Y4127601D01*
X8725154Y4132275D01*
X8724493Y4135069D01*
G37*
G36*
X8841333Y4134358D02*
G01*
X8836406Y4134307D01*
X8834272Y4133087D01*
X8834831Y4107637D01*
X8834170Y4107637D01*
X8832392Y4108602D01*
X8824112Y4115054D01*
X8811717Y4125772D01*
X8810752Y4122420D01*
X8811768Y4077258D01*
X8822182Y4077665D01*
X8822994Y4098493D01*
X8824772Y4099051D01*
X8836355Y4085894D01*
X8841079Y4080205D01*
X8846261Y4080205D01*
X8846261Y4134358D01*
G37*
G36*
X8623858Y4132986D02*
G01*
X8620048Y4126382D01*
X8611666Y4113225D01*
X8606840Y4106113D01*
X8603831Y4101185D01*
X8620506Y4101185D01*
X8620760Y4104589D01*
X8622284Y4108348D01*
X8623046Y4109059D01*
X8624011Y4107942D01*
X8625535Y4105300D01*
X8627364Y4101490D01*
X8626144Y4100220D01*
X8620506Y4101185D01*
X8603831Y4101185D01*
X8597493Y4090314D01*
X8598458Y4088841D01*
X8604808Y4088841D01*
X8607806Y4087368D01*
X8610041Y4088688D01*
X8610904Y4089603D01*
X8611108Y4090415D01*
X8611920Y4091482D01*
X8613952Y4093260D01*
X8619083Y4092244D01*
X8622995Y4091838D01*
X8628786Y4091736D01*
X8632596Y4089958D01*
X8634425Y4084878D01*
X8645347Y4084015D01*
X8646363Y4085488D01*
X8644686Y4089857D01*
X8641232Y4096969D01*
X8635695Y4109161D01*
X8625128Y4131259D01*
G37*
G36*
X8764879Y4129684D02*
G01*
X8763762Y4128617D01*
X8764168Y4076598D01*
X8790584Y4076852D01*
X8798966Y4077512D01*
X8798509Y4086351D01*
X8777325Y4086707D01*
X8775344Y4088231D01*
X8775598Y4097172D01*
X8793784Y4099356D01*
X8794242Y4107586D01*
X8776411Y4107992D01*
X8776106Y4114596D01*
X8776208Y4117949D01*
X8776817Y4120591D01*
X8798509Y4120997D01*
X8798509Y4129328D01*
G37*
G36*
X8231835Y4123232D02*
G01*
X8231022Y4122978D01*
X8230209Y4117898D01*
X8225790Y4075785D01*
X8211392Y3954526D01*
X8239759Y3954526D01*
X8241182Y3969765D01*
X8246211Y4008678D01*
X8248091Y4021683D01*
X8248954Y4021582D01*
X8249564Y4020921D01*
X8250072Y4019550D01*
X8257540Y3972610D01*
X8259165Y3960266D01*
X8259165Y3958488D01*
X8258860Y3957726D01*
X8241182Y3954576D01*
X8211392Y3954526D01*
X8203692Y3894277D01*
X8203641Y3889552D01*
X8205927Y3889603D01*
X8207705Y3889959D01*
X8228330Y3896207D01*
X8230362Y3897122D01*
X8234070Y3919677D01*
X8234375Y3920540D01*
X8261807Y3926027D01*
X8265058Y3926484D01*
X8265820Y3925011D01*
X8268563Y3907688D01*
X8270443Y3906215D01*
X8289899Y3910025D01*
X8295538Y3911498D01*
X8296503Y3912108D01*
X8296960Y3912768D01*
X8293201Y3934256D01*
X8284718Y3986377D01*
X8279384Y4017467D01*
X8274303Y4049420D01*
X8267547Y4094378D01*
X8266785Y4101439D01*
X8266785Y4104081D01*
X8264601Y4108704D01*
X8234883Y4122115D01*
G37*
G36*
X9140748Y4111955D02*
G01*
X9128506Y4111802D01*
X9117431Y4109212D01*
X9104477Y4105706D01*
X9094724Y4102354D01*
X9090914Y4100626D01*
X9087662Y4098848D01*
X9081516Y4094530D01*
X9075420Y4085945D01*
X9072930Y4081424D01*
X9070848Y4076750D01*
X9067749Y4066844D01*
X9067698Y4009085D01*
X9070594Y4001109D01*
X9075877Y3994454D01*
X9082836Y3991559D01*
X9087561Y3990492D01*
X9122156Y3985615D01*
X9126524Y3984599D01*
X9132062Y3982465D01*
X9132570Y3978097D01*
X9133027Y3968191D01*
X9133636Y3945331D01*
X9132265Y3941826D01*
X9130944Y3939692D01*
X9128658Y3937254D01*
X9123629Y3935729D01*
X9114028Y3937304D01*
X9108643Y3938524D01*
X9103461Y3940352D01*
X9100515Y3946245D01*
X9100464Y3958082D01*
X9098737Y3959047D01*
X9095587Y3957777D01*
X9073540Y3950817D01*
X9067901Y3948734D01*
X9068714Y3932224D01*
X9075369Y3919880D01*
X9084310Y3911498D01*
X9092031Y3908551D01*
X9102547Y3906215D01*
X9111691Y3904691D01*
X9121038Y3903573D01*
X9138767Y3902405D01*
X9145117Y3904691D01*
X9149232Y3906723D01*
X9154261Y3909974D01*
X9161983Y3920439D01*
X9165234Y3929227D01*
X9165234Y3998214D01*
X9161729Y4007358D01*
X9156446Y4012996D01*
X9150248Y4015333D01*
X9145625Y4016400D01*
X9120174Y4019804D01*
X9104325Y4022293D01*
X9100464Y4024629D01*
X9100464Y4065066D01*
X9102445Y4067911D01*
X9104985Y4070553D01*
X9108592Y4072534D01*
X9113469Y4073956D01*
X9124696Y4075328D01*
X9130385Y4072839D01*
X9133179Y4067556D01*
X9133840Y4048404D01*
X9137446Y4048607D01*
X9145727Y4050436D01*
X9158224Y4053535D01*
X9163050Y4055059D01*
X9165234Y4056532D01*
X9165234Y4079392D01*
X9162745Y4089146D01*
X9156192Y4101337D01*
X9147962Y4108856D01*
G37*
G36*
X9041384Y4101846D02*
G01*
X9038539Y4101642D01*
X9003334Y4092956D01*
X9002928Y4091432D01*
X9002725Y4085945D01*
X9002979Y4059631D01*
X9008110Y4059936D01*
X9011361Y4060444D01*
X9015171Y4061510D01*
X9016746Y4060647D01*
X9014917Y4057192D01*
X9010904Y4051249D01*
X9001607Y4038396D01*
X9002623Y4035958D01*
X9009430Y4036923D01*
X9015323Y4038752D01*
X9023400Y4042257D01*
X9031986Y4050080D01*
X9036659Y4054906D01*
X9040876Y4060342D01*
G37*
G36*
X8320481Y4087418D02*
G01*
X8320887Y3914444D01*
X8343493Y3913784D01*
X8353958Y3913276D01*
X8364423Y3912362D01*
X8398103Y3908145D01*
X8403488Y3907180D01*
X8415223Y3906062D01*
X8415223Y3934053D01*
X8407298Y3935679D01*
X8380120Y3939692D01*
X8366302Y3941267D01*
X8350859Y3943451D01*
X8350503Y4078020D01*
X8342884Y4081322D01*
X8328863Y4085844D01*
X8323732Y4087215D01*
G37*
G36*
X8494166Y4084523D02*
G01*
X8494014Y4082592D01*
X8492896Y4080510D01*
X8490051Y4076598D01*
X8490864Y4074718D01*
X8500770Y4071416D01*
X8504326Y4070705D01*
X8505748Y4073144D01*
X8507171Y4074972D01*
X8509558Y4077462D01*
X8503716Y4080967D01*
X8497112Y4084523D01*
G37*
G36*
X8963101Y4076598D02*
G01*
X8958275Y4076090D01*
X8939479Y4071620D01*
X8932113Y4069486D01*
X8931452Y4068876D01*
X8931910Y3979113D01*
X8931452Y3979113D01*
X8924036Y3998417D01*
X8914231Y4026052D01*
X8905290Y4052671D01*
X8902700Y4059478D01*
X8901277Y4062476D01*
X8900261Y4063746D01*
X8890254Y4061561D01*
X8865209Y4056887D01*
X8864752Y4054398D01*
X8864600Y3971137D01*
X8864803Y3888486D01*
X8871915Y3888689D01*
X8881465Y3889908D01*
X8890762Y3891483D01*
X8896197Y3892702D01*
X8897213Y3986682D01*
X8899194Y3982567D01*
X8905748Y3965194D01*
X8926017Y3908399D01*
X8930182Y3897376D01*
X8949486Y3900932D01*
X8963101Y3904030D01*
G37*
G36*
X8443620Y4054195D02*
G01*
X8442706Y4052062D01*
X8444026Y3900728D01*
X8486648Y3893820D01*
X8537397Y3886301D01*
X8551062Y3884828D01*
X8552637Y3885692D01*
X8552180Y3912311D01*
X8478570Y3923639D01*
X8474506Y3924554D01*
X8473643Y3925011D01*
X8473643Y3955186D01*
X8474303Y3955542D01*
X8479028Y3955338D01*
X8515654Y3950004D01*
X8517026Y3952036D01*
X8517026Y3976573D01*
X8515858Y3978198D01*
X8473643Y3984955D01*
X8473643Y4019753D01*
X8516112Y4014470D01*
X8533638Y4012641D01*
X8548624Y4011422D01*
X8551011Y4012285D01*
X8551011Y4039463D01*
X8523071Y4042613D01*
X8516823Y4043070D01*
X8508085Y4044442D01*
X8478672Y4048302D01*
X8445906Y4054043D01*
G37*
G36*
X9195460Y4052976D02*
G01*
X9194749Y4013403D01*
X9194495Y3958844D01*
X9194546Y3837228D01*
X9193733Y3836974D01*
X9185148Y3839260D01*
X9143644Y3851605D01*
X9087662Y3867353D01*
X9052560Y3876497D01*
X9039504Y3879596D01*
X9038082Y3877665D01*
X9038488Y3861409D01*
X9039047Y3858615D01*
X9076385Y3848100D01*
X9102852Y3840276D01*
X9102699Y3839159D01*
X9100159Y3836974D01*
X9071813Y3815486D01*
X9064498Y3810254D01*
X9062720Y3806596D01*
X9062262Y3804665D01*
X9062110Y3802684D01*
X9062770Y3797909D01*
X9067800Y3792575D01*
X9077502Y3792626D01*
X9082227Y3795725D01*
X9083954Y3800551D01*
X9091168Y3806596D01*
X9118549Y3828237D01*
X9124137Y3833215D01*
X9126372Y3833114D01*
X9150553Y3826256D01*
X9195054Y3812540D01*
X9206788Y3809187D01*
X9216847Y3805834D01*
X9218117Y3807612D01*
X9218320Y3955643D01*
X9220860Y3960469D01*
X9242145Y3990949D01*
X9248902Y4001465D01*
X9248902Y4004056D01*
X9234728Y4017010D01*
X9232493Y4017010D01*
X9222587Y4004462D01*
X9221012Y4002176D01*
X9219895Y4000957D01*
X9218930Y4000754D01*
X9218930Y4029608D01*
X9213850Y4034942D01*
G37*
G36*
X8185556Y4052722D02*
G01*
X8183372Y4050792D01*
X8173110Y4040174D01*
X8164322Y4031437D01*
X8162493Y4025188D01*
X8162594Y4000754D01*
X8161477Y4000804D01*
X8159953Y4003395D01*
X8153755Y4011117D01*
X8147761Y4017721D01*
X8132622Y4004005D01*
X8132572Y4001617D01*
X8158784Y3964584D01*
X8160512Y3961739D01*
X8163001Y3958539D01*
X8163356Y3805783D01*
X8164575Y3805783D01*
X8172958Y3807917D01*
X8196275Y3814978D01*
X8226298Y3824427D01*
X8254695Y3832961D01*
X8257235Y3833215D01*
X8266531Y3825240D01*
X8281619Y3813403D01*
X8296198Y3802532D01*
X8299500Y3797300D01*
X8301583Y3794658D01*
X8303971Y3792524D01*
X8314131Y3792524D01*
X8317077Y3795166D01*
X8318753Y3797401D01*
X8320481Y3800906D01*
X8320430Y3804412D01*
X8319973Y3806596D01*
X8318753Y3809187D01*
X8308492Y3816502D01*
X8282330Y3836720D01*
X8279282Y3839616D01*
X8280196Y3840683D01*
X8282025Y3841343D01*
X8286394Y3842359D01*
X8289594Y3843578D01*
X8334451Y3856278D01*
X8344153Y3859428D01*
X8344153Y3879443D01*
X8343188Y3879443D01*
X8335365Y3877818D01*
X8317738Y3873550D01*
X8294928Y3867607D01*
X8252206Y3855669D01*
X8191957Y3836873D01*
X8188604Y3836111D01*
X8187080Y3836111D01*
X8186978Y3983075D01*
X8186775Y4015740D01*
X8186420Y4037939D01*
X8185962Y4050080D01*
G37*
G36*
X8829192Y4051046D02*
G01*
X8826906Y4050385D01*
X8801252Y4046677D01*
X8763000Y4042410D01*
X8742222Y4040428D01*
X8723985Y4039311D01*
X8722715Y4038193D01*
X8722766Y3875176D01*
X8723782Y3874262D01*
X8758732Y3876395D01*
X8775750Y3877665D01*
X8814562Y3881374D01*
X8829954Y3883050D01*
X8832088Y3884726D01*
X8831681Y3910837D01*
X8824518Y3910736D01*
X8818219Y3910279D01*
X8796731Y3907891D01*
X8783828Y3906774D01*
X8771382Y3905961D01*
X8753906Y3905199D01*
X8753906Y3942791D01*
X8798509Y3947668D01*
X8799677Y3965041D01*
X8798763Y3977081D01*
X8767826Y3973728D01*
X8762034Y3973372D01*
X8753906Y3973322D01*
X8753906Y4012133D01*
X8785961Y4015689D01*
X8808262Y4018787D01*
X8827109Y4021836D01*
X8830462Y4022598D01*
X8830462Y4050487D01*
G37*
G36*
X8583371Y4037076D02*
G01*
X8583371Y3881069D01*
X8585352Y3879646D01*
X8609025Y3878021D01*
X8632494Y3876141D01*
X8653932Y3874770D01*
X8689340Y3873449D01*
X8690711Y3875481D01*
X8690762Y3901033D01*
X8688781Y3902151D01*
X8646871Y3903573D01*
X8621928Y3904996D01*
X8614562Y3905808D01*
X8614562Y3940200D01*
X8659571Y3939743D01*
X8659977Y3967378D01*
X8652306Y3968140D01*
X8615832Y3969410D01*
X8614562Y3970528D01*
X8614562Y4006900D01*
X8659368Y4007104D01*
X8683447Y4007612D01*
X8688425Y4008120D01*
X8687968Y4035806D01*
X8644178Y4035958D01*
G37*
G36*
X8480044Y3865016D02*
G01*
X8479586Y3858158D01*
X8476996Y3858361D01*
X8467191Y3860698D01*
X8465769Y3859885D01*
X8465769Y3849014D01*
X8467242Y3846423D01*
X8478367Y3844036D01*
X8479282Y3837838D01*
X8479840Y3830624D01*
X8478520Y3828694D01*
X8468512Y3830980D01*
X8465769Y3831082D01*
X8465769Y3818991D01*
X8467496Y3817924D01*
X8470544Y3817010D01*
X8477148Y3815587D01*
X8479942Y3812997D01*
X8479942Y3804412D01*
X8484565Y3803345D01*
X8487206Y3803040D01*
X8489848Y3803243D01*
X8490000Y3809136D01*
X8490356Y3810457D01*
X8490915Y3810965D01*
X8497062Y3809390D01*
X8500465Y3808780D01*
X8503666Y3808679D01*
X8503666Y3821480D01*
X8492185Y3824833D01*
X8490204Y3827018D01*
X8490204Y3839667D01*
X8491829Y3840530D01*
X8495639Y3839514D01*
X8498687Y3839006D01*
X8503259Y3838651D01*
X8503716Y3851757D01*
X8500719Y3852926D01*
X8498738Y3853383D01*
X8496147Y3853434D01*
X8491016Y3856329D01*
X8491016Y3862019D01*
X8490000Y3862628D01*
X8485682Y3864000D01*
G37*
G36*
X8389975Y3862120D02*
G01*
X8389975Y3859377D01*
X8392515Y3858006D01*
X8398205Y3855465D01*
X8405926Y3852773D01*
X8414359Y3850284D01*
X8433206Y3846271D01*
X8435746Y3846220D01*
X8435746Y3846880D01*
X8435289Y3847439D01*
X8431631Y3848912D01*
X8421979Y3851960D01*
X8420963Y3852113D01*
X8411260Y3855720D01*
X8395157Y3861054D01*
X8391194Y3862120D01*
G37*
G36*
X8895638Y3862019D02*
G01*
X8891016Y3860292D01*
X8889746Y3859174D01*
X8889085Y3857650D01*
X8888882Y3852926D01*
X8887307Y3851808D01*
X8879586Y3850030D01*
X8876385Y3848963D01*
X8875318Y3838448D01*
X8876385Y3835450D01*
X8881618Y3836111D01*
X8884310Y3836670D01*
X8887104Y3837533D01*
X8888882Y3837584D01*
X8888882Y3821887D01*
X8886037Y3820769D01*
X8876284Y3818585D01*
X8876334Y3807460D01*
X8876792Y3805326D01*
X8878112Y3804869D01*
X8882430Y3805885D01*
X8885834Y3806444D01*
X8889898Y3806494D01*
X8888984Y3799179D01*
X8894775Y3799941D01*
X8897721Y3800551D01*
X8899956Y3801516D01*
X8899956Y3808628D01*
X8902598Y3810101D01*
X8904579Y3810914D01*
X8913266Y3813200D01*
X8914384Y3825392D01*
X8912809Y3826814D01*
X8902344Y3825036D01*
X8900363Y3824935D01*
X8900363Y3838194D01*
X8901226Y3839006D01*
X8903411Y3839921D01*
X8912606Y3842004D01*
X8913063Y3843731D01*
X8913266Y3846474D01*
X8913164Y3850487D01*
X8912809Y3854196D01*
X8912301Y3856126D01*
X8911742Y3856634D01*
X8909456Y3855415D01*
X8907780Y3854958D01*
X8905392Y3854653D01*
X8902293Y3853383D01*
X8901582Y3855313D01*
X8901277Y3857548D01*
X8901125Y3861765D01*
G37*
G36*
X8987993Y3861358D02*
G01*
X8984386Y3859631D01*
X8977680Y3857294D01*
X8946540Y3847490D01*
X8946540Y3846118D01*
X8950706Y3846474D01*
X8958834Y3847642D01*
X8968028Y3849776D01*
X8977376Y3852570D01*
X8985859Y3855770D01*
X8990838Y3857904D01*
X8991549Y3859682D01*
X8991396Y3860190D01*
G37*
G36*
X8564981Y3856329D02*
G01*
X8554567Y3856228D01*
X8550757Y3854907D01*
X8547963Y3853383D01*
X8544102Y3850640D01*
X8541512Y3843832D01*
X8541562Y3805428D01*
X8543391Y3800703D01*
X8545118Y3797554D01*
X8547963Y3793642D01*
X8553399Y3790492D01*
X8555634Y3789527D01*
X8562441Y3788003D01*
X8567978Y3787038D01*
X8577376Y3788714D01*
X8583879Y3794658D01*
X8585149Y3799382D01*
X8585758Y3802837D01*
X8586165Y3807510D01*
X8578850Y3809288D01*
X8574989Y3810000D01*
X8571687Y3810101D01*
X8570366Y3804869D01*
X8569452Y3802379D01*
X8568182Y3800754D01*
X8564118Y3800754D01*
X8557361Y3803751D01*
X8555736Y3809034D01*
X8555837Y3833571D01*
X8557107Y3840581D01*
X8558885Y3841496D01*
X8561171Y3841851D01*
X8565642Y3841902D01*
X8569350Y3839565D01*
X8570874Y3836009D01*
X8571433Y3833622D01*
X8571534Y3830472D01*
X8586774Y3828694D01*
X8586216Y3833317D01*
X8584336Y3841648D01*
X8580831Y3847896D01*
X8575395Y3852418D01*
X8567674Y3855567D01*
G37*
G36*
X8820607Y3854856D02*
G01*
X8810345Y3854805D01*
X8807958Y3854043D01*
X8800846Y3851148D01*
X8796020Y3847134D01*
X8792819Y3841242D01*
X8790228Y3830116D01*
X8803843Y3831285D01*
X8806789Y3831945D01*
X8806789Y3836873D01*
X8809329Y3840479D01*
X8817559Y3840479D01*
X8819438Y3838701D01*
X8819438Y3831234D01*
X8816644Y3828237D01*
X8808770Y3827068D01*
X8808313Y3818839D01*
X8809990Y3815892D01*
X8817660Y3815892D01*
X8819591Y3813759D01*
X8819692Y3802684D01*
X8816340Y3800195D01*
X8810955Y3799281D01*
X8806789Y3800703D01*
X8806789Y3807460D01*
X8791397Y3805428D01*
X8790940Y3800246D01*
X8794140Y3792423D01*
X8797594Y3789222D01*
X8799525Y3788054D01*
X8805164Y3786276D01*
X8808618Y3785463D01*
X8819032Y3787140D01*
X8827719Y3791102D01*
X8834018Y3799636D01*
X8834018Y3818686D01*
X8829040Y3823462D01*
X8833662Y3828491D01*
X8833612Y3845153D01*
X8831986Y3847693D01*
X8830310Y3849827D01*
X8828379Y3851554D01*
X8826195Y3852875D01*
X8823604Y3853942D01*
G37*
G36*
X8639048Y3846169D02*
G01*
X8636304Y3845306D01*
X8633206Y3844036D01*
X8630412Y3842105D01*
X8628024Y3839718D01*
X8626144Y3836822D01*
X8624824Y3834333D01*
X8624824Y3794506D01*
X8639454Y3794506D01*
X8639454Y3828440D01*
X8642858Y3831793D01*
X8648242Y3831793D01*
X8650681Y3830523D01*
X8652103Y3829456D01*
X8653576Y3827830D01*
X8653627Y3794506D01*
X8649766Y3791153D01*
X8643315Y3791153D01*
X8639454Y3794506D01*
X8624824Y3794506D01*
X8624824Y3791000D01*
X8626297Y3788460D01*
X8630310Y3783533D01*
X8635542Y3779926D01*
X8641486Y3777742D01*
X8647785Y3776878D01*
X8653983Y3777386D01*
X8659622Y3779316D01*
X8664295Y3782669D01*
X8667496Y3787394D01*
X8668715Y3790340D01*
X8668258Y3832148D01*
X8665667Y3836365D01*
X8663330Y3839108D01*
X8659571Y3842562D01*
X8651646Y3845763D01*
G37*
G36*
X8730081Y3846118D02*
G01*
X8726576Y3845864D01*
X8723122Y3845204D01*
X8718143Y3843477D01*
X8714028Y3841089D01*
X8710828Y3837990D01*
X8708491Y3834180D01*
X8707323Y3831590D01*
X8707323Y3795522D01*
X8721598Y3795522D01*
X8721648Y3824884D01*
X8723731Y3829456D01*
X8727440Y3831793D01*
X8732418Y3831793D01*
X8736126Y3829050D01*
X8736126Y3793744D01*
X8734044Y3791407D01*
X8727236Y3790492D01*
X8723884Y3791458D01*
X8721598Y3795522D01*
X8707323Y3795522D01*
X8707323Y3789629D01*
X8709660Y3785412D01*
X8711488Y3782822D01*
X8714181Y3779824D01*
X8721648Y3776929D01*
X8735771Y3776929D01*
X8742832Y3779926D01*
X8746439Y3783787D01*
X8748623Y3786936D01*
X8751163Y3791712D01*
X8751671Y3829253D01*
X8749639Y3837178D01*
X8741664Y3844493D01*
X8733688Y3845966D01*
G37*
G36*
X8362594Y3832199D02*
G01*
X8359902Y3832148D01*
X8348268Y3828745D01*
X8338058Y3826052D01*
X8336737Y3825240D01*
X8341156Y3822039D01*
X8353501Y3814724D01*
X8375446Y3802583D01*
X8397544Y3791762D01*
X8422894Y3780332D01*
X8433104Y3776065D01*
X8449106Y3769817D01*
X8459063Y3766159D01*
X8478520Y3759504D01*
X8497417Y3753612D01*
X8521446Y3746855D01*
X8540140Y3742182D01*
X8558326Y3738219D01*
X8587028Y3733088D01*
X8606688Y3730498D01*
X8638336Y3727500D01*
X8674658Y3725316D01*
X8680856Y3724503D01*
X8681872Y3681069D01*
X8700008Y3680866D01*
X8701786Y3682796D01*
X8702192Y3724554D01*
X8754364Y3728008D01*
X8769807Y3729431D01*
X8798763Y3732987D01*
X8822740Y3737051D01*
X8838234Y3740251D01*
X8864193Y3746703D01*
X8882786Y3752087D01*
X8915908Y3762095D01*
X8926576Y3765956D01*
X8938361Y3770528D01*
X8964015Y3781450D01*
X8990380Y3793642D01*
X9014815Y3805986D01*
X9025534Y3811879D01*
X9034881Y3817315D01*
X9044381Y3823462D01*
X9044025Y3825494D01*
X9017762Y3831336D01*
X8995562Y3819804D01*
X8978646Y3811371D01*
X8957564Y3801821D01*
X8934246Y3792220D01*
X8923223Y3787952D01*
X8900160Y3779977D01*
X8874404Y3771900D01*
X8850985Y3765245D01*
X8836863Y3761943D01*
X8816898Y3757777D01*
X8796934Y3754475D01*
X8778697Y3751884D01*
X8763863Y3750259D01*
X8747861Y3748836D01*
X8714028Y3746601D01*
X8671458Y3746601D01*
X8640216Y3748836D01*
X8616340Y3750919D01*
X8600033Y3752900D01*
X8570366Y3757625D01*
X8560511Y3759504D01*
X8538159Y3764432D01*
X8526576Y3767480D01*
X8498941Y3775608D01*
X8470138Y3785108D01*
X8456980Y3789781D01*
X8445652Y3794099D01*
X8416290Y3806698D01*
X8396986Y3815486D01*
X8366099Y3830878D01*
G37*
D10*
X1834642Y1563115D02*
G01*
X1818894Y1558036D01*
X1808479Y1542287D01*
X1803400Y1516379D01*
X1803400Y1500886D01*
X1808479Y1474723D01*
X1818894Y1459229D01*
X1834642Y1454150D01*
X1845055Y1454150D01*
X1860550Y1459229D01*
X1870963Y1474723D01*
X1876044Y1500886D01*
X1876044Y1516379D01*
X1870963Y1542287D01*
X1860550Y1558036D01*
X1845055Y1563115D01*
X1834642Y1563115D01*
X1910334Y1542287D02*
G01*
X1920747Y1547621D01*
X1936495Y1563115D01*
X1936495Y1454150D01*
D11*
X14124431Y2165857D02*
G01*
X14069822Y2165857D01*
X14064234Y2116581D01*
X14069822Y2122170D01*
X14086077Y2127504D01*
X14102588Y2127504D01*
X14118843Y2122170D01*
X14129766Y2111247D01*
X14135354Y2094992D01*
X14135354Y2084070D01*
X14129766Y2067560D01*
X14118843Y2056637D01*
X14102588Y2051304D01*
X14086077Y2051304D01*
X14069822Y2056637D01*
X14064234Y2062226D01*
X14058900Y2073147D01*
X14171168Y2165857D02*
G01*
X14214856Y2051304D01*
X14258543Y2165857D02*
G01*
X14214856Y2051304D01*
X14661388Y2138426D02*
G01*
X14656054Y2149347D01*
X14645131Y2160270D01*
X14634209Y2165857D01*
X14612366Y2165857D01*
X14601443Y2160270D01*
X14590522Y2149347D01*
X14584934Y2138426D01*
X14579600Y2122170D01*
X14579600Y2094992D01*
X14584934Y2078481D01*
X14590522Y2067560D01*
X14601443Y2056637D01*
X14612366Y2051304D01*
X14634209Y2051304D01*
X14645131Y2056637D01*
X14656054Y2067560D01*
X14661388Y2078481D01*
X14661388Y2094992D01*
X14634209Y2094992D02*
G01*
X14661388Y2094992D01*
X14697456Y2165857D02*
G01*
X14697456Y2051304D01*
X14697456Y2165857D02*
G01*
X14773656Y2051304D01*
X14773656Y2165857D02*
G01*
X14773656Y2051304D01*
X14809724Y2165857D02*
G01*
X14809724Y2051304D01*
X14809724Y2165857D02*
G01*
X14848077Y2165857D01*
X14864334Y2160270D01*
X14875256Y2149347D01*
X14880590Y2138426D01*
X14886177Y2122170D01*
X14886177Y2094992D01*
X14880590Y2078481D01*
X14875256Y2067560D01*
X14864334Y2056637D01*
X14848077Y2051304D01*
X14809724Y2051304D01*
X12661900Y2087626D02*
G01*
X12760197Y2087626D01*
X13269722Y2149347D02*
G01*
X13269722Y2051304D01*
X13220700Y2100326D02*
G01*
X13318997Y2100326D01*
X1195831Y5239257D02*
G01*
X1141221Y5239257D01*
X1135634Y5189981D01*
X1141221Y5195570D01*
X1157478Y5200904D01*
X1173987Y5200904D01*
X1190244Y5195570D01*
X1201165Y5184647D01*
X1206754Y5168392D01*
X1206754Y5157470D01*
X1201165Y5140960D01*
X1190244Y5130037D01*
X1173987Y5124704D01*
X1157478Y5124704D01*
X1141221Y5130037D01*
X1135634Y5135626D01*
X1130300Y5146547D01*
X1242568Y5239257D02*
G01*
X1286255Y5124704D01*
X1329944Y5239257D02*
G01*
X1286255Y5124704D01*
X1110487Y4983226D02*
G01*
X1105154Y4994147D01*
X1094231Y5005070D01*
X1083310Y5010657D01*
X1061465Y5010657D01*
X1050544Y5005070D01*
X1039621Y4994147D01*
X1034034Y4983226D01*
X1028700Y4966970D01*
X1028700Y4939792D01*
X1034034Y4923281D01*
X1039621Y4912360D01*
X1050544Y4901437D01*
X1061465Y4896104D01*
X1083310Y4896104D01*
X1094231Y4901437D01*
X1105154Y4912360D01*
X1110487Y4923281D01*
X1110487Y4939792D01*
X1083310Y4939792D02*
G01*
X1110487Y4939792D01*
X1146555Y5010657D02*
G01*
X1146555Y4896104D01*
X1146555Y5010657D02*
G01*
X1222755Y4896104D01*
X1222755Y5010657D02*
G01*
X1222755Y4896104D01*
X1258823Y5010657D02*
G01*
X1258823Y4896104D01*
X1258823Y5010657D02*
G01*
X1297178Y5010657D01*
X1313434Y5005070D01*
X1324355Y4994147D01*
X1329689Y4983226D01*
X1335278Y4966970D01*
X1335278Y4939792D01*
X1329689Y4923281D01*
X1324355Y4912360D01*
X1313434Y4901437D01*
X1297178Y4896104D01*
X1258823Y4896104D01*
X1143254Y5489511D02*
G01*
X1132331Y5500433D01*
X1115821Y5505767D01*
X1093978Y5505767D01*
X1077721Y5500433D01*
X1066800Y5489511D01*
X1066800Y5478589D01*
X1072134Y5467667D01*
X1077721Y5462333D01*
X1088644Y5456745D01*
X1121410Y5445823D01*
X1132331Y5440489D01*
X1137665Y5434901D01*
X1143254Y5423979D01*
X1143254Y5407723D01*
X1132331Y5396801D01*
X1115821Y5391467D01*
X1093978Y5391467D01*
X1077721Y5396801D01*
X1066800Y5407723D01*
X1260855Y5478589D02*
G01*
X1255521Y5489511D01*
X1244600Y5500433D01*
X1233678Y5505767D01*
X1211834Y5505767D01*
X1200912Y5500433D01*
X1189989Y5489511D01*
X1184655Y5478589D01*
X1179068Y5462333D01*
X1179068Y5434901D01*
X1184655Y5418645D01*
X1189989Y5407723D01*
X1200912Y5396801D01*
X1211834Y5391467D01*
X1233678Y5391467D01*
X1244600Y5396801D01*
X1255521Y5407723D01*
X1260855Y5418645D01*
X1296923Y5505767D02*
G01*
X1296923Y5391467D01*
X1296923Y5391467D02*
G01*
X1362455Y5391467D01*
X1105154Y5730775D02*
G01*
X1094231Y5741697D01*
X1077721Y5747285D01*
X1055878Y5747285D01*
X1039621Y5741697D01*
X1028700Y5730775D01*
X1028700Y5719853D01*
X1034034Y5708931D01*
X1039621Y5703597D01*
X1050544Y5698009D01*
X1083310Y5687087D01*
X1094231Y5681753D01*
X1099565Y5676165D01*
X1105154Y5665497D01*
X1105154Y5648987D01*
X1094231Y5638065D01*
X1077721Y5632731D01*
X1055878Y5632731D01*
X1039621Y5638065D01*
X1028700Y5648987D01*
X1140968Y5747285D02*
G01*
X1140968Y5632731D01*
X1140968Y5747285D02*
G01*
X1179321Y5747285D01*
X1195578Y5741697D01*
X1206500Y5730775D01*
X1212087Y5719853D01*
X1217421Y5703597D01*
X1217421Y5676165D01*
X1212087Y5659909D01*
X1206500Y5648987D01*
X1195578Y5638065D01*
X1179321Y5632731D01*
X1140968Y5632731D01*
X1297178Y5747285D02*
G01*
X1253489Y5632731D01*
X1297178Y5747285D02*
G01*
X1340612Y5632731D01*
X1269745Y5670831D02*
G01*
X1324355Y5670831D01*
D10*
X14146022Y6171692D02*
G01*
X14151356Y6161278D01*
X14161770Y6150863D01*
X14171929Y6145784D01*
X14192758Y6145784D01*
X14203172Y6150863D01*
X14213586Y6161278D01*
X14218920Y6171692D01*
X14224000Y6187439D01*
X14224000Y6213347D01*
X14218920Y6228842D01*
X14213586Y6239255D01*
X14203172Y6249670D01*
X14192758Y6254750D01*
X14171929Y6254750D01*
X14161770Y6249670D01*
X14151356Y6239255D01*
X14146022Y6228842D01*
X14111731Y6145784D02*
G01*
X14111731Y6254750D01*
X14111731Y6145784D02*
G01*
X14064995Y6145784D01*
X14049502Y6150863D01*
X14044168Y6156197D01*
X14039088Y6166612D01*
X14039088Y6182105D01*
X14044168Y6192520D01*
X14049502Y6197600D01*
X14064995Y6202934D01*
X14111731Y6202934D01*
X14004797Y6166612D02*
G01*
X13994384Y6161278D01*
X13978890Y6145784D01*
X13978890Y6254750D01*
D12*
X15697200Y6976871D02*
G01*
X15697200Y7098029D01*
X15689072Y7122413D01*
X15673070Y7138670D01*
X15648686Y7146544D01*
X15632429Y7146544D01*
X15608300Y7138670D01*
X15592043Y7122413D01*
X15584170Y7098029D01*
X15584170Y6976871D01*
X15417545Y7001255D02*
G01*
X15433802Y6985000D01*
X15457931Y6976871D01*
X15490190Y6976871D01*
X15514574Y6985000D01*
X15530829Y7001255D01*
X15530829Y7017258D01*
X15522702Y7033513D01*
X15514574Y7041642D01*
X15498318Y7049770D01*
X15449804Y7065771D01*
X15433802Y7073900D01*
X15425674Y7082028D01*
X15417545Y7098029D01*
X15417545Y7122413D01*
X15433802Y7138670D01*
X15457931Y7146544D01*
X15490190Y7146544D01*
X15514574Y7138670D01*
X15530829Y7122413D01*
X15364206Y6976871D02*
G01*
X15364206Y7146544D01*
X15364206Y6976871D02*
G01*
X15291561Y6976871D01*
X15267177Y6985000D01*
X15259050Y6993128D01*
X15251175Y7009129D01*
X15251175Y7025386D01*
X15259050Y7041642D01*
X15267177Y7049770D01*
X15291561Y7057644D01*
X15364206Y7057644D02*
G01*
X15291561Y7057644D01*
X15267177Y7065771D01*
X15259050Y7073900D01*
X15251175Y7090155D01*
X15251175Y7114286D01*
X15259050Y7130542D01*
X15267177Y7138670D01*
X15291561Y7146544D01*
X15364206Y7146544D01*
D13*
X13310870Y6420357D02*
G01*
X13247370Y6420357D01*
X13281913Y6466586D01*
X13264641Y6466586D01*
X13252958Y6472428D01*
X13247370Y6478270D01*
X13241527Y6495542D01*
X13241527Y6506971D01*
X13247370Y6524244D01*
X13258800Y6535928D01*
X13276072Y6541770D01*
X13293343Y6541770D01*
X13310870Y6535928D01*
X13316458Y6530086D01*
X13322300Y6518655D01*
X13203427Y6420357D02*
G01*
X13157200Y6541770D01*
X13110972Y6420357D02*
G01*
X13157200Y6541770D01*
X13061441Y6420357D02*
G01*
X12997941Y6420357D01*
X13032486Y6466586D01*
X13015213Y6466586D01*
X13003529Y6472428D01*
X12997941Y6478270D01*
X12992100Y6495542D01*
X12992100Y6506971D01*
X12997941Y6524244D01*
X13009372Y6535928D01*
X13026643Y6541770D01*
X13044170Y6541770D01*
X13061441Y6535928D01*
X13067029Y6530086D01*
X13072872Y6518655D01*
X13256513Y6674358D02*
G01*
X13256513Y6795770D01*
X13296900Y6674358D02*
G01*
X13216127Y6674358D01*
X13178027Y6674358D02*
G01*
X13097256Y6795770D01*
X13097256Y6674358D02*
G01*
X13178027Y6795770D01*
X13059156Y6674358D02*
G01*
X13059156Y6795770D01*
X13059156Y6674358D02*
G01*
X13018770Y6674358D01*
X13001243Y6680200D01*
X12989813Y6691629D01*
X12983972Y6703313D01*
X12978129Y6720586D01*
X12978129Y6749542D01*
X12983972Y6766813D01*
X12989813Y6778244D01*
X13001243Y6789928D01*
X13018770Y6795770D01*
X13059156Y6795770D01*
X13271500Y6928358D02*
G01*
X13271500Y7049770D01*
X13271500Y6928358D02*
G01*
X13219429Y6928358D01*
X13202158Y6934200D01*
X13196570Y6940042D01*
X13190727Y6951471D01*
X13190727Y6963155D01*
X13196570Y6974586D01*
X13202158Y6980428D01*
X13219429Y6986270D01*
X13271500Y6986270D01*
X13231113Y6986270D02*
G01*
X13190727Y7049770D01*
X13152627Y6928358D02*
G01*
X13071856Y7049770D01*
X13071856Y6928358D02*
G01*
X13152627Y7049770D01*
X13033756Y6928358D02*
G01*
X13033756Y7049770D01*
X13033756Y6928358D02*
G01*
X12993370Y6928358D01*
X12975843Y6934200D01*
X12964413Y6945629D01*
X12958572Y6957313D01*
X12952729Y6974586D01*
X12952729Y7003542D01*
X12958572Y7020813D01*
X12964413Y7032244D01*
X12975843Y7043928D01*
X12993370Y7049770D01*
X13033756Y7049770D01*
X13210286Y7211313D02*
G01*
X13216127Y7199629D01*
X13227558Y7188200D01*
X13239241Y7182358D01*
X13262356Y7182358D01*
X13273786Y7188200D01*
X13285470Y7199629D01*
X13291058Y7211313D01*
X13296900Y7228586D01*
X13296900Y7257542D01*
X13291058Y7274813D01*
X13285470Y7286244D01*
X13273786Y7297928D01*
X13262356Y7303770D01*
X13239241Y7303770D01*
X13227558Y7297928D01*
X13216127Y7286244D01*
X13210286Y7274813D01*
X13210286Y7257542D01*
X13239241Y7257542D02*
G01*
X13210286Y7257542D01*
X13172186Y7182358D02*
G01*
X13172186Y7303770D01*
X13172186Y7182358D02*
G01*
X13091413Y7303770D01*
X13091413Y7182358D02*
G01*
X13091413Y7303770D01*
X13053313Y7182358D02*
G01*
X13053313Y7303770D01*
X13053313Y7182358D02*
G01*
X13012927Y7182358D01*
X12995656Y7188200D01*
X12983972Y7199629D01*
X12978129Y7211313D01*
X12972541Y7228586D01*
X12972541Y7257542D01*
X12978129Y7274813D01*
X12983972Y7286244D01*
X12995656Y7297928D01*
X13012927Y7303770D01*
X13053313Y7303770D01*
X13270229Y7479029D02*
G01*
X13270229Y7583170D01*
X13322300Y7531100D02*
G01*
X13218413Y7531100D01*
X13110972Y7461758D02*
G01*
X13168629Y7461758D01*
X13174472Y7513828D01*
X13168629Y7507986D01*
X13151358Y7502144D01*
X13134086Y7502144D01*
X13116813Y7507986D01*
X13105129Y7519670D01*
X13099541Y7536942D01*
X13099541Y7548371D01*
X13105129Y7565644D01*
X13116813Y7577328D01*
X13134086Y7583170D01*
X13151358Y7583170D01*
X13168629Y7577328D01*
X13174472Y7571486D01*
X13180313Y7560055D01*
X13061441Y7461758D02*
G01*
X13015213Y7583170D01*
X12968986Y7461758D02*
G01*
X13015213Y7583170D01*
D10*
X14438375Y1080007D02*
G01*
X14438375Y1188973D01*
X14404086Y1080007D02*
G01*
X14404086Y1188973D01*
X14404086Y1080007D02*
G01*
X14331441Y1188973D01*
X14331441Y1080007D02*
G01*
X14331441Y1188973D01*
X14297152Y1080007D02*
G01*
X14297152Y1188973D01*
X14297152Y1080007D02*
G01*
X14250416Y1080007D01*
X14234668Y1085087D01*
X14229588Y1090421D01*
X14224254Y1100836D01*
X14224254Y1116329D01*
X14229588Y1126744D01*
X14234668Y1131823D01*
X14250416Y1137157D01*
X14297152Y1137157D01*
X14189963Y1080007D02*
G01*
X14189963Y1157986D01*
X14184884Y1173479D01*
X14174470Y1183894D01*
X14158975Y1188973D01*
X14148561Y1188973D01*
X14132813Y1183894D01*
X14122400Y1173479D01*
X14117320Y1157986D01*
X14117320Y1080007D01*
X14046708Y1080007D02*
G01*
X14046708Y1188973D01*
X14083029Y1080007D02*
G01*
X14010386Y1080007D01*
X11240770Y9386315D02*
G01*
X11240770Y9303258D01*
X11235436Y9287510D01*
X11230356Y9282429D01*
X11219941Y9277350D01*
X11209527Y9277350D01*
X11199113Y9282429D01*
X11193779Y9287510D01*
X11188700Y9303258D01*
X11188700Y9313671D01*
X11285220Y9386315D02*
G01*
X11342370Y9386315D01*
X11311381Y9344660D01*
X11326875Y9344660D01*
X11337290Y9339579D01*
X11342370Y9334500D01*
X11347704Y9318752D01*
X11347704Y9308337D01*
X11342370Y9292844D01*
X11332209Y9282429D01*
X11316461Y9277350D01*
X11300968Y9277350D01*
X11285220Y9282429D01*
X11280140Y9287510D01*
X11275059Y9297924D01*
X9792970Y9386315D02*
G01*
X9792970Y9303258D01*
X9787636Y9287510D01*
X9782556Y9282429D01*
X9772141Y9277350D01*
X9761727Y9277350D01*
X9751313Y9282429D01*
X9745979Y9287510D01*
X9740900Y9303258D01*
X9740900Y9313671D01*
X9879075Y9386315D02*
G01*
X9827259Y9313671D01*
X9904984Y9313671D01*
X9879075Y9386315D02*
G01*
X9879075Y9277350D01*
X4229100Y2096515D02*
G01*
X4229100Y1987550D01*
X4301743Y2096515D02*
G01*
X4229100Y2023871D01*
X4255008Y2049779D02*
G01*
X4301743Y1987550D01*
X4336034Y2096515D02*
G01*
X4336034Y1987550D01*
X4336034Y2096515D02*
G01*
X4403597Y2096515D01*
X4336034Y2044700D02*
G01*
X4377690Y2044700D01*
X4336034Y1987550D02*
G01*
X4403597Y1987550D01*
X4437888Y2096515D02*
G01*
X4479543Y2044700D01*
X4479543Y1987550D01*
X4521200Y2096515D02*
G01*
X4479543Y2044700D01*
X4565650Y2096515D02*
G01*
X4622800Y2096515D01*
X4591811Y2054860D01*
X4607306Y2054860D01*
X4617720Y2049779D01*
X4622800Y2044700D01*
X4628134Y2028952D01*
X4628134Y2018537D01*
X4622800Y2003044D01*
X4612640Y1992629D01*
X4596891Y1987550D01*
X4581397Y1987550D01*
X4565650Y1992629D01*
X4560570Y1997710D01*
X4555490Y2008123D01*
X5372100Y2096515D02*
G01*
X5372100Y1987550D01*
X5444743Y2096515D02*
G01*
X5372100Y2023871D01*
X5398008Y2049779D02*
G01*
X5444743Y1987550D01*
X5479034Y2096515D02*
G01*
X5479034Y1987550D01*
X5479034Y2096515D02*
G01*
X5546597Y2096515D01*
X5479034Y2044700D02*
G01*
X5520690Y2044700D01*
X5479034Y1987550D02*
G01*
X5546597Y1987550D01*
X5580888Y2096515D02*
G01*
X5622543Y2044700D01*
X5622543Y1987550D01*
X5664200Y2096515D02*
G01*
X5622543Y2044700D01*
X5750306Y2096515D02*
G01*
X5698490Y2023871D01*
X5776213Y2023871D01*
X5750306Y2096515D02*
G01*
X5750306Y1987550D01*
X6591300Y2121915D02*
G01*
X6591300Y2012950D01*
X6663943Y2121915D02*
G01*
X6591300Y2049271D01*
X6617208Y2075179D02*
G01*
X6663943Y2012950D01*
X6698234Y2121915D02*
G01*
X6698234Y2012950D01*
X6698234Y2121915D02*
G01*
X6765797Y2121915D01*
X6698234Y2070100D02*
G01*
X6739890Y2070100D01*
X6698234Y2012950D02*
G01*
X6765797Y2012950D01*
X6800088Y2121915D02*
G01*
X6841743Y2070100D01*
X6841743Y2012950D01*
X6883400Y2121915D02*
G01*
X6841743Y2070100D01*
X6979920Y2121915D02*
G01*
X6927850Y2121915D01*
X6922770Y2075179D01*
X6927850Y2080260D01*
X6943597Y2085594D01*
X6959091Y2085594D01*
X6974840Y2080260D01*
X6985000Y2070100D01*
X6990334Y2054352D01*
X6990334Y2043937D01*
X6985000Y2028444D01*
X6974840Y2018029D01*
X6959091Y2012950D01*
X6943597Y2012950D01*
X6927850Y2018029D01*
X6922770Y2023110D01*
X6917690Y2033523D01*
X7785100Y2121915D02*
G01*
X7785100Y2012950D01*
X7857743Y2121915D02*
G01*
X7785100Y2049271D01*
X7811008Y2075179D02*
G01*
X7857743Y2012950D01*
X7892034Y2121915D02*
G01*
X7892034Y2012950D01*
X7892034Y2121915D02*
G01*
X7959597Y2121915D01*
X7892034Y2070100D02*
G01*
X7933690Y2070100D01*
X7892034Y2012950D02*
G01*
X7959597Y2012950D01*
X7993888Y2121915D02*
G01*
X8035543Y2070100D01*
X8035543Y2012950D01*
X8077200Y2121915D02*
G01*
X8035543Y2070100D01*
X8173720Y2106421D02*
G01*
X8168640Y2116836D01*
X8152891Y2121915D01*
X8142477Y2121915D01*
X8126984Y2116836D01*
X8116570Y2101087D01*
X8111490Y2075179D01*
X8111490Y2049271D01*
X8116570Y2028444D01*
X8126984Y2018029D01*
X8142477Y2012950D01*
X8147811Y2012950D01*
X8163306Y2018029D01*
X8173720Y2028444D01*
X8178800Y2043937D01*
X8178800Y2049271D01*
X8173720Y2064765D01*
X8163306Y2075179D01*
X8147811Y2080260D01*
X8142477Y2080260D01*
X8126984Y2075179D01*
X8116570Y2064765D01*
X8111490Y2049271D01*
X8991600Y2134615D02*
G01*
X8991600Y2025650D01*
X9064243Y2134615D02*
G01*
X8991600Y2061971D01*
X9017508Y2087879D02*
G01*
X9064243Y2025650D01*
X9098534Y2134615D02*
G01*
X9098534Y2025650D01*
X9098534Y2134615D02*
G01*
X9166097Y2134615D01*
X9098534Y2082800D02*
G01*
X9140190Y2082800D01*
X9098534Y2025650D02*
G01*
X9166097Y2025650D01*
X9200388Y2134615D02*
G01*
X9242043Y2082800D01*
X9242043Y2025650D01*
X9283700Y2134615D02*
G01*
X9242043Y2082800D01*
X9390634Y2134615D02*
G01*
X9338563Y2025650D01*
X9317990Y2134615D02*
G01*
X9390634Y2134615D01*
X2877944Y6312080D02*
G01*
X2888358Y6317160D01*
X2898772Y6327574D01*
X2904106Y6337988D01*
X2909186Y6353736D01*
X2909186Y6379644D01*
X2904106Y6395138D01*
X2898772Y6405552D01*
X2888358Y6415966D01*
X2877944Y6421046D01*
X2857116Y6421046D01*
X2846956Y6415966D01*
X2836542Y6405552D01*
X2831208Y6395138D01*
X2826128Y6379644D01*
X2826128Y6353736D01*
X2831208Y6337988D01*
X2836542Y6327574D01*
X2846956Y6317160D01*
X2857116Y6312080D01*
X2877944Y6312080D01*
X2791838Y6312080D02*
G01*
X2791838Y6421046D01*
X2791838Y6421046D02*
G01*
X2729354Y6421046D01*
X2695064Y6312080D02*
G01*
X2695064Y6421046D01*
X2695064Y6312080D02*
G01*
X2627500Y6312080D01*
X2695064Y6363896D02*
G01*
X2653662Y6363896D01*
X2695064Y6421046D02*
G01*
X2627500Y6421046D01*
X2593210Y6312080D02*
G01*
X2593210Y6421046D01*
X2593210Y6312080D02*
G01*
X2556888Y6312080D01*
X2541394Y6317160D01*
X2530980Y6327574D01*
X2525646Y6337988D01*
X2520566Y6353736D01*
X2520566Y6379644D01*
X2525646Y6395138D01*
X2530980Y6405552D01*
X2541394Y6415966D01*
X2556888Y6421046D01*
X2593210Y6421046D01*
X2486276Y6332908D02*
G01*
X2475862Y6327574D01*
X2460368Y6312080D01*
X2460368Y6421046D01*
D11*
X1884301Y8091751D02*
G01*
X1865759Y8082607D01*
X1847217Y8064065D01*
X1838073Y8045523D01*
X1828675Y8017837D01*
X1828675Y7971609D01*
X1838073Y7943923D01*
X1847217Y7925381D01*
X1865759Y7907093D01*
X1884301Y7897695D01*
X1921131Y7897695D01*
X1939673Y7907093D01*
X1958215Y7925381D01*
X1967359Y7943923D01*
X1976503Y7971609D01*
X1976503Y8017837D01*
X1967359Y8045523D01*
X1958215Y8064065D01*
X1939673Y8082607D01*
X1921131Y8091751D01*
X1884301Y8091751D01*
X2037463Y8091751D02*
G01*
X2037463Y7897695D01*
X2037463Y7897695D02*
G01*
X2148461Y7897695D01*
X2209421Y8091751D02*
G01*
X2209421Y7897695D01*
X2209421Y8091751D02*
G01*
X2329309Y8091751D01*
X2209421Y7999295D02*
G01*
X2283335Y7999295D01*
X2209421Y7897695D02*
G01*
X2329309Y7897695D01*
X2390269Y8091751D02*
G01*
X2390269Y7897695D01*
X2390269Y8091751D02*
G01*
X2455039Y8091751D01*
X2482725Y8082607D01*
X2501267Y8064065D01*
X2510411Y8045523D01*
X2519555Y8017837D01*
X2519555Y7971609D01*
X2510411Y7943923D01*
X2501267Y7925381D01*
X2482725Y7907093D01*
X2455039Y7897695D01*
X2390269Y7897695D01*
X2852295Y8064065D02*
G01*
X2833753Y8082607D01*
X2806067Y8091751D01*
X2768983Y8091751D01*
X2741297Y8082607D01*
X2722755Y8064065D01*
X2722755Y8045523D01*
X2732153Y8026981D01*
X2741297Y8017837D01*
X2759839Y8008693D01*
X2815211Y7990151D01*
X2833753Y7981007D01*
X2842897Y7971609D01*
X2852295Y7953321D01*
X2852295Y7925381D01*
X2833753Y7907093D01*
X2806067Y7897695D01*
X2768983Y7897695D01*
X2741297Y7907093D01*
X2722755Y7925381D01*
X3042541Y8064065D02*
G01*
X3023999Y8082607D01*
X2996313Y8091751D01*
X2959229Y8091751D01*
X2931543Y8082607D01*
X2913255Y8064065D01*
X2913255Y8045523D01*
X2922399Y8026981D01*
X2931543Y8017837D01*
X2950085Y8008693D01*
X3005457Y7990151D01*
X3023999Y7981007D01*
X3033143Y7971609D01*
X3042541Y7953321D01*
X3042541Y7925381D01*
X3023999Y7907093D01*
X2996313Y7897695D01*
X2959229Y7897695D01*
X2931543Y7907093D01*
X2913255Y7925381D01*
X3103501Y8091751D02*
G01*
X3103501Y7897695D01*
X3103501Y8091751D02*
G01*
X3168017Y8091751D01*
X3195703Y8082607D01*
X3214245Y8064065D01*
X3223389Y8045523D01*
X3232787Y8017837D01*
X3232787Y7971609D01*
X3223389Y7943923D01*
X3214245Y7925381D01*
X3195703Y7907093D01*
X3168017Y7897695D01*
X3103501Y7897695D01*
X3293747Y8054921D02*
G01*
X3312035Y8064065D01*
X3339975Y8091751D01*
X3339975Y7897695D01*
X3419223Y8091751D02*
G01*
X3520823Y8091751D01*
X3465451Y8017837D01*
X3493137Y8017837D01*
X3511679Y8008693D01*
X3520823Y7999295D01*
X3530221Y7971609D01*
X3530221Y7953321D01*
X3520823Y7925381D01*
X3502535Y7907093D01*
X3474595Y7897695D01*
X3446909Y7897695D01*
X3419223Y7907093D01*
X3410079Y7916237D01*
X3400935Y7934779D01*
X3646553Y8091751D02*
G01*
X3618867Y8082607D01*
X3600325Y8054921D01*
X3591181Y8008693D01*
X3591181Y7981007D01*
X3600325Y7934779D01*
X3618867Y7907093D01*
X3646553Y7897695D01*
X3665095Y7897695D01*
X3692781Y7907093D01*
X3711069Y7934779D01*
X3720467Y7981007D01*
X3720467Y8008693D01*
X3711069Y8054921D01*
X3692781Y8082607D01*
X3665095Y8091751D01*
X3646553Y8091751D01*
X3892171Y8064065D02*
G01*
X3883027Y8082607D01*
X3855341Y8091751D01*
X3836799Y8091751D01*
X3809113Y8082607D01*
X3790571Y8054921D01*
X3781427Y8008693D01*
X3781427Y7962465D01*
X3790571Y7925381D01*
X3809113Y7907093D01*
X3836799Y7897695D01*
X3845943Y7897695D01*
X3873629Y7907093D01*
X3892171Y7925381D01*
X3901315Y7953321D01*
X3901315Y7962465D01*
X3892171Y7990151D01*
X3873629Y8008693D01*
X3845943Y8017837D01*
X3836799Y8017837D01*
X3809113Y8008693D01*
X3790571Y7990151D01*
X3781427Y7962465D01*
X1828675Y7750121D02*
G01*
X1847217Y7759265D01*
X1874903Y7786951D01*
X1874903Y7592895D01*
X1945261Y7740723D02*
G01*
X1945261Y7750121D01*
X1954405Y7768409D01*
X1963549Y7777807D01*
X1982091Y7786951D01*
X2019175Y7786951D01*
X2037463Y7777807D01*
X2046861Y7768409D01*
X2056005Y7750121D01*
X2056005Y7731579D01*
X2046861Y7713037D01*
X2028319Y7685351D01*
X1935863Y7592895D01*
X2065149Y7592895D01*
X2172337Y7786951D02*
G01*
X2144651Y7777807D01*
X2135507Y7759265D01*
X2135507Y7740723D01*
X2144651Y7722181D01*
X2163193Y7713037D01*
X2200023Y7703893D01*
X2227709Y7694495D01*
X2246251Y7676207D01*
X2255395Y7657665D01*
X2255395Y7629979D01*
X2246251Y7611437D01*
X2237107Y7602293D01*
X2209421Y7592895D01*
X2172337Y7592895D01*
X2144651Y7602293D01*
X2135507Y7611437D01*
X2126109Y7629979D01*
X2126109Y7657665D01*
X2135507Y7676207D01*
X2153795Y7694495D01*
X2181735Y7703893D01*
X2218565Y7713037D01*
X2237107Y7722181D01*
X2246251Y7740723D01*
X2246251Y7759265D01*
X2237107Y7777807D01*
X2209421Y7786951D01*
X2172337Y7786951D01*
X2316355Y7722181D02*
G01*
X2316355Y7528379D01*
X2316355Y7694495D02*
G01*
X2334897Y7713037D01*
X2353439Y7722181D01*
X2381125Y7722181D01*
X2399667Y7713037D01*
X2417955Y7694495D01*
X2427353Y7666809D01*
X2427353Y7648521D01*
X2417955Y7620581D01*
X2399667Y7602293D01*
X2381125Y7592895D01*
X2353439Y7592895D01*
X2334897Y7602293D01*
X2316355Y7620581D01*
X2488313Y7722181D02*
G01*
X2589913Y7592895D01*
X2589913Y7722181D02*
G01*
X2488313Y7592895D01*
X2793113Y7722181D02*
G01*
X2894713Y7592895D01*
X2894713Y7722181D02*
G01*
X2793113Y7592895D01*
X3208657Y7759265D02*
G01*
X3199513Y7777807D01*
X3171827Y7786951D01*
X3153285Y7786951D01*
X3125599Y7777807D01*
X3107057Y7750121D01*
X3097913Y7703893D01*
X3097913Y7657665D01*
X3107057Y7620581D01*
X3125599Y7602293D01*
X3153285Y7592895D01*
X3162429Y7592895D01*
X3190115Y7602293D01*
X3208657Y7620581D01*
X3218055Y7648521D01*
X3218055Y7657665D01*
X3208657Y7685351D01*
X3190115Y7703893D01*
X3162429Y7713037D01*
X3153285Y7713037D01*
X3125599Y7703893D01*
X3107057Y7685351D01*
X3097913Y7657665D01*
X3371217Y7786951D02*
G01*
X3279015Y7657665D01*
X3417445Y7657665D01*
X3371217Y7786951D02*
G01*
X3371217Y7592895D01*
X3478405Y7722181D02*
G01*
X3478405Y7528379D01*
X3478405Y7694495D02*
G01*
X3496947Y7713037D01*
X3515235Y7722181D01*
X3543175Y7722181D01*
X3561463Y7713037D01*
X3580005Y7694495D01*
X3589149Y7666809D01*
X3589149Y7648521D01*
X3580005Y7620581D01*
X3561463Y7602293D01*
X3543175Y7592895D01*
X3515235Y7592895D01*
X3496947Y7602293D01*
X3478405Y7620581D01*
X3650109Y7722181D02*
G01*
X3751709Y7592895D01*
X3751709Y7722181D02*
G01*
X3650109Y7592895D01*
D10*
X14135100Y2386584D02*
G01*
X14135100Y2464562D01*
X14130020Y2480055D01*
X14119606Y2490470D01*
X14103858Y2495550D01*
X14093443Y2495550D01*
X14077950Y2490470D01*
X14067536Y2480055D01*
X14062456Y2464562D01*
X14062456Y2386584D01*
X13965681Y2402078D02*
G01*
X13971016Y2391663D01*
X13986509Y2386584D01*
X13996924Y2386584D01*
X14012418Y2391663D01*
X14022831Y2407412D01*
X14028166Y2433320D01*
X14028166Y2459228D01*
X14022831Y2480055D01*
X14012418Y2490470D01*
X13996924Y2495550D01*
X13991590Y2495550D01*
X13976095Y2490470D01*
X13965681Y2480055D01*
X13960602Y2464562D01*
X13960602Y2459228D01*
X13965681Y2443734D01*
X13976095Y2433320D01*
X13991590Y2428239D01*
X13996924Y2428239D01*
X14012418Y2433320D01*
X14022831Y2443734D01*
X14028166Y2459228D01*
D11*
X13520674Y2413000D02*
G01*
X13529818Y2417571D01*
X13539216Y2426715D01*
X13543788Y2435860D01*
X13547852Y2449321D01*
X13547852Y2472181D01*
X13543788Y2485897D01*
X13539216Y2494787D01*
X13529818Y2503931D01*
X13520674Y2508504D01*
X13502893Y2508504D01*
X13493750Y2503931D01*
X13484097Y2494787D01*
X13480288Y2485897D01*
X13475716Y2472181D01*
X13475716Y2449321D01*
X13480288Y2435860D01*
X13484097Y2426715D01*
X13493750Y2417571D01*
X13502893Y2413000D01*
X13520674Y2413000D01*
X13445743Y2413000D02*
G01*
X13445743Y2481326D01*
X13440918Y2494787D01*
X13431774Y2503931D01*
X13418311Y2508504D01*
X13409168Y2508504D01*
X13395197Y2503931D01*
X13386561Y2494787D01*
X13381990Y2481326D01*
X13381990Y2413000D01*
X13320268Y2413000D02*
G01*
X13320268Y2508504D01*
X13352018Y2413000D02*
G01*
X13288263Y2413000D01*
X13217143Y2426715D02*
G01*
X13217143Y2508504D01*
X13258291Y2467610D02*
G01*
X13176250Y2467610D01*
X13572947Y2841193D02*
G01*
X13572947Y2936697D01*
X13572947Y2841193D02*
G01*
X13532815Y2841193D01*
X13518591Y2845765D01*
X13514019Y2850337D01*
X13509193Y2859481D01*
X13509193Y2868625D01*
X13514019Y2877515D01*
X13518591Y2882087D01*
X13532815Y2886659D01*
X13572947Y2886659D02*
G01*
X13532815Y2886659D01*
X13518591Y2891231D01*
X13514019Y2895803D01*
X13509193Y2904947D01*
X13509193Y2918409D01*
X13514019Y2927553D01*
X13518591Y2932125D01*
X13532815Y2936697D01*
X13572947Y2936697D01*
X13439089Y2854909D02*
G01*
X13439089Y2936697D01*
X13479221Y2895803D02*
G01*
X13397941Y2895803D01*
X13572947Y3476193D02*
G01*
X13572947Y3571951D01*
X13572947Y3476193D02*
G01*
X13532307Y3476193D01*
X13518337Y3480765D01*
X13513765Y3485591D01*
X13509193Y3494735D01*
X13509193Y3503625D01*
X13513765Y3512515D01*
X13518337Y3517341D01*
X13532307Y3521913D01*
X13572947Y3521913D02*
G01*
X13532307Y3521913D01*
X13518337Y3526485D01*
X13513765Y3530803D01*
X13509193Y3540201D01*
X13509193Y3553663D01*
X13513765Y3562553D01*
X13518337Y3567125D01*
X13532307Y3571951D01*
X13572947Y3571951D01*
X13479221Y3530803D02*
G01*
X13397433Y3530803D01*
X13520927Y3810000D02*
G01*
X13529056Y3814571D01*
X13538454Y3823715D01*
X13543279Y3832860D01*
X13547852Y3846321D01*
X13547852Y3869181D01*
X13543279Y3882897D01*
X13538454Y3891787D01*
X13529056Y3900931D01*
X13520927Y3905504D01*
X13502131Y3905504D01*
X13493495Y3900931D01*
X13484352Y3891787D01*
X13479779Y3882897D01*
X13474954Y3869181D01*
X13474954Y3846321D01*
X13479779Y3832860D01*
X13484352Y3823715D01*
X13493495Y3814571D01*
X13502131Y3810000D01*
X13520927Y3810000D01*
X13444981Y3810000D02*
G01*
X13444981Y3878326D01*
X13440156Y3891787D01*
X13431774Y3900931D01*
X13417804Y3905504D01*
X13408406Y3905504D01*
X13395452Y3900931D01*
X13386054Y3891787D01*
X13381227Y3878326D01*
X13381227Y3810000D01*
X13319506Y3810000D02*
G01*
X13319506Y3905504D01*
X13351256Y3810000D02*
G01*
X13287502Y3810000D01*
X13257529Y3864610D02*
G01*
X13176250Y3864610D01*
X15173959Y2434589D02*
G01*
X15173959Y2530094D01*
X15143988Y2434589D02*
G01*
X15143988Y2530094D01*
X15143988Y2434589D02*
G01*
X15080234Y2530094D01*
X15080234Y2434589D02*
G01*
X15080234Y2530094D01*
X15009368Y2448305D02*
G01*
X15009368Y2530094D01*
X15050261Y2489200D02*
G01*
X14968474Y2489200D01*
X15173959Y3831589D02*
G01*
X15173959Y3927094D01*
X15143988Y3831589D02*
G01*
X15143988Y3927094D01*
X15143988Y3831589D02*
G01*
X15080234Y3927094D01*
X15080234Y3831589D02*
G01*
X15080234Y3927094D01*
X15050261Y3886200D02*
G01*
X14968474Y3886200D01*
X14027150Y2927350D02*
G01*
X14122654Y2927350D01*
X14027150Y2895600D02*
G01*
X14027150Y2959354D01*
X14027150Y2989326D02*
G01*
X14122654Y2989326D01*
X14027150Y2989326D02*
G01*
X14027150Y3030220D01*
X14031722Y3043681D01*
X14036293Y3048254D01*
X14045438Y3052826D01*
X14059154Y3052826D01*
X14068043Y3048254D01*
X14072616Y3043681D01*
X14077188Y3030220D01*
X14077188Y2989326D01*
X14027150Y3128263D02*
G01*
X14090904Y3082797D01*
X14090904Y3151123D01*
X14027150Y3128263D02*
G01*
X14122654Y3128263D01*
X14027150Y3208273D02*
G01*
X14031722Y3194812D01*
X14045438Y3185668D01*
X14068043Y3181095D01*
X14081759Y3181095D01*
X14104366Y3185668D01*
X14118081Y3194812D01*
X14122654Y3208273D01*
X14122654Y3217418D01*
X14118081Y3231134D01*
X14104366Y3240023D01*
X14081759Y3244595D01*
X14068043Y3244595D01*
X14045438Y3240023D01*
X14031722Y3231134D01*
X14027150Y3217418D01*
X14027150Y3208273D01*
X14027150Y3329178D02*
G01*
X14027150Y3283712D01*
X14068043Y3279139D01*
X14063472Y3283712D01*
X14059154Y3297428D01*
X14059154Y3311144D01*
X14063472Y3324605D01*
X14072616Y3333750D01*
X14086331Y3338321D01*
X14095475Y3338321D01*
X14108938Y3333750D01*
X14118081Y3324605D01*
X14122654Y3311144D01*
X14122654Y3297428D01*
X14118081Y3283712D01*
X14113509Y3279139D01*
X14104366Y3274568D01*
X14040866Y3422904D02*
G01*
X14031722Y3418331D01*
X14027150Y3404615D01*
X14027150Y3395726D01*
X14031722Y3382010D01*
X14045438Y3372865D01*
X14068043Y3368294D01*
X14090904Y3368294D01*
X14108938Y3372865D01*
X14118081Y3382010D01*
X14122654Y3395726D01*
X14122654Y3400044D01*
X14118081Y3413760D01*
X14108938Y3422904D01*
X14095475Y3427476D01*
X14090904Y3427476D01*
X14077188Y3422904D01*
X14068043Y3413760D01*
X14063472Y3400044D01*
X14063472Y3395726D01*
X14068043Y3382010D01*
X14077188Y3372865D01*
X14090904Y3368294D01*
D10*
X2882900Y5868415D02*
G01*
X2882900Y5759450D01*
X2882900Y5868415D02*
G01*
X2929636Y5868415D01*
X2945129Y5863336D01*
X2950463Y5858002D01*
X2955543Y5847587D01*
X2955543Y5837173D01*
X2950463Y5826760D01*
X2945129Y5821679D01*
X2929636Y5816600D01*
X2882900Y5816600D02*
G01*
X2929636Y5816600D01*
X2945129Y5811265D01*
X2950463Y5806186D01*
X2955543Y5795771D01*
X2955543Y5780023D01*
X2950463Y5769610D01*
X2945129Y5764529D01*
X2929636Y5759450D01*
X2882900Y5759450D01*
X2989834Y5847587D02*
G01*
X3000247Y5852921D01*
X3015995Y5868415D01*
X3015995Y5759450D01*
X1880615Y5334000D02*
G01*
X1771650Y5334000D01*
X1880615Y5334000D02*
G01*
X1880615Y5287263D01*
X1875536Y5271770D01*
X1870202Y5266436D01*
X1859787Y5261355D01*
X1844294Y5261355D01*
X1833879Y5266436D01*
X1828800Y5271770D01*
X1823465Y5287263D01*
X1823465Y5334000D01*
X1854707Y5221986D02*
G01*
X1859787Y5221986D01*
X1870202Y5216652D01*
X1875536Y5211571D01*
X1880615Y5201157D01*
X1880615Y5180329D01*
X1875536Y5169915D01*
X1870202Y5164836D01*
X1859787Y5159502D01*
X1849373Y5159502D01*
X1838960Y5164836D01*
X1823465Y5174995D01*
X1771650Y5227065D01*
X1771650Y5154421D01*
X2857500Y4903215D02*
G01*
X2857500Y4794250D01*
X2857500Y4903215D02*
G01*
X2904236Y4903215D01*
X2919729Y4898136D01*
X2925063Y4892802D01*
X2930143Y4882387D01*
X2930143Y4871973D01*
X2925063Y4861560D01*
X2919729Y4856479D01*
X2904236Y4851400D01*
X2857500Y4851400D01*
X2893822Y4851400D02*
G01*
X2930143Y4794250D01*
X3037331Y4887721D02*
G01*
X3026918Y4898136D01*
X3011170Y4903215D01*
X2990595Y4903215D01*
X2974847Y4898136D01*
X2964434Y4887721D01*
X2964434Y4877307D01*
X2969768Y4866894D01*
X2974847Y4861560D01*
X2985261Y4856479D01*
X3016504Y4846065D01*
X3026918Y4840986D01*
X3031997Y4835652D01*
X3037331Y4825237D01*
X3037331Y4809744D01*
X3026918Y4799329D01*
X3011170Y4794250D01*
X2990595Y4794250D01*
X2974847Y4799329D01*
X2964434Y4809744D01*
X3107943Y4903215D02*
G01*
X3107943Y4794250D01*
X3071622Y4903215D02*
G01*
X3144265Y4903215D01*
X6273800Y3605784D02*
G01*
X6273800Y3683762D01*
X6268720Y3699255D01*
X6258306Y3709670D01*
X6242558Y3714750D01*
X6232143Y3714750D01*
X6216650Y3709670D01*
X6206236Y3699255D01*
X6201156Y3683762D01*
X6201156Y3605784D01*
X6156452Y3605784D02*
G01*
X6099302Y3605784D01*
X6130290Y3647439D01*
X6114795Y3647439D01*
X6104381Y3652520D01*
X6099302Y3657600D01*
X6093968Y3673347D01*
X6093968Y3683762D01*
X6099302Y3699255D01*
X6109715Y3709670D01*
X6125209Y3714750D01*
X6140704Y3714750D01*
X6156452Y3709670D01*
X6161531Y3704589D01*
X6166865Y3694176D01*
X9600691Y3227578D02*
G01*
X9590277Y3222244D01*
X9579863Y3211829D01*
X9574784Y3201670D01*
X9574784Y3180842D01*
X9579863Y3170428D01*
X9590277Y3160013D01*
X9600691Y3154679D01*
X9616440Y3149600D01*
X9642347Y3149600D01*
X9657841Y3154679D01*
X9668256Y3160013D01*
X9678670Y3170428D01*
X9683750Y3180842D01*
X9683750Y3201670D01*
X9678670Y3211829D01*
X9668256Y3222244D01*
X9657841Y3227578D01*
X9574784Y3303270D02*
G01*
X9683750Y3261868D01*
X9574784Y3303270D02*
G01*
X9683750Y3344926D01*
X9647427Y3277362D02*
G01*
X9647427Y3329431D01*
X9574784Y3379215D02*
G01*
X9683750Y3379215D01*
X9574784Y3379215D02*
G01*
X9574784Y3425952D01*
X9579863Y3441700D01*
X9585197Y3446779D01*
X9595611Y3451860D01*
X9606025Y3451860D01*
X9616440Y3446779D01*
X9621520Y3441700D01*
X9626600Y3425952D01*
X9626600Y3379215D01*
X9626600Y3415537D02*
G01*
X9683750Y3451860D01*
X9574784Y3486150D02*
G01*
X9683750Y3486150D01*
X9574784Y3486150D02*
G01*
X9574784Y3522726D01*
X9579863Y3538220D01*
X9590277Y3548634D01*
X9600691Y3553713D01*
X9616440Y3559047D01*
X9642347Y3559047D01*
X9657841Y3553713D01*
X9668256Y3548634D01*
X9678670Y3538220D01*
X9683750Y3522726D01*
X9683750Y3486150D01*
D11*
X11477752Y4483862D02*
G01*
X11464290Y4477004D01*
X11450574Y4463287D01*
X11443715Y4449571D01*
X11443715Y4422394D01*
X11450574Y4408678D01*
X11464290Y4395215D01*
X11477752Y4388357D01*
X11498325Y4381500D01*
X11532361Y4381500D01*
X11552936Y4388357D01*
X11566397Y4395215D01*
X11580113Y4408678D01*
X11586972Y4422394D01*
X11586972Y4449571D01*
X11580113Y4463287D01*
X11566397Y4477004D01*
X11552936Y4483862D01*
X11532361Y4483862D01*
X11532361Y4449571D02*
G01*
X11532361Y4483862D01*
X11443715Y4528820D02*
G01*
X11586972Y4528820D01*
X11443715Y4528820D02*
G01*
X11586972Y4624323D01*
X11443715Y4624323D02*
G01*
X11586972Y4624323D01*
X11443715Y4669281D02*
G01*
X11586972Y4669281D01*
X11443715Y4669281D02*
G01*
X11443715Y4717034D01*
X11450574Y4737354D01*
X11464290Y4751070D01*
X11477752Y4757928D01*
X11498325Y4764786D01*
X11532361Y4764786D01*
X11552936Y4757928D01*
X11566397Y4751070D01*
X11580113Y4737354D01*
X11586972Y4717034D01*
X11586972Y4669281D01*
X11177015Y4368800D02*
G01*
X11320272Y4423410D01*
X11177015Y4477765D02*
G01*
X11320272Y4423410D01*
X11211052Y4625086D02*
G01*
X11197590Y4618228D01*
X11183874Y4604765D01*
X11177015Y4591050D01*
X11177015Y4563871D01*
X11183874Y4550155D01*
X11197590Y4536439D01*
X11211052Y4529836D01*
X11231625Y4522978D01*
X11265661Y4522978D01*
X11286236Y4529836D01*
X11299697Y4536439D01*
X11313413Y4550155D01*
X11320272Y4563871D01*
X11320272Y4591050D01*
X11313413Y4604765D01*
X11299697Y4618228D01*
X11286236Y4625086D01*
X11211052Y4772405D02*
G01*
X11197590Y4765547D01*
X11183874Y4752086D01*
X11177015Y4738370D01*
X11177015Y4711192D01*
X11183874Y4697476D01*
X11197590Y4683760D01*
X11211052Y4676902D01*
X11231625Y4670044D01*
X11265661Y4670044D01*
X11286236Y4676902D01*
X11299697Y4683760D01*
X11313413Y4697476D01*
X11320272Y4711192D01*
X11320272Y4738370D01*
X11313413Y4752086D01*
X11299697Y4765547D01*
X11286236Y4772405D01*
X10910315Y4368800D02*
G01*
X11053572Y4368800D01*
X10910315Y4368800D02*
G01*
X11053572Y4423410D01*
X10910315Y4477765D02*
G01*
X11053572Y4423410D01*
X10910315Y4477765D02*
G01*
X11053572Y4477765D01*
X10910315Y4522978D02*
G01*
X11053572Y4522978D01*
X10930890Y4663439D02*
G01*
X10917174Y4649723D01*
X10910315Y4629150D01*
X10910315Y4601971D01*
X10917174Y4581652D01*
X10930890Y4567936D01*
X10944352Y4567936D01*
X10958068Y4574794D01*
X10964925Y4581652D01*
X10971784Y4595113D01*
X10985245Y4636007D01*
X10992104Y4649723D01*
X10998961Y4656581D01*
X11012677Y4663439D01*
X11032997Y4663439D01*
X11046713Y4649723D01*
X11053572Y4629150D01*
X11053572Y4601971D01*
X11046713Y4581652D01*
X11032997Y4567936D01*
X10910315Y4749292D02*
G01*
X10917174Y4735576D01*
X10930890Y4721860D01*
X10944352Y4715255D01*
X10964925Y4708397D01*
X10998961Y4708397D01*
X11019536Y4715255D01*
X11032997Y4721860D01*
X11046713Y4735576D01*
X11053572Y4749292D01*
X11053572Y4776470D01*
X11046713Y4790186D01*
X11032997Y4803902D01*
X11019536Y4810505D01*
X10998961Y4817363D01*
X10964925Y4817363D01*
X10944352Y4810505D01*
X10930890Y4803902D01*
X10917174Y4790186D01*
X10910315Y4776470D01*
X10910315Y4749292D01*
X10669015Y4381500D02*
G01*
X10812272Y4381500D01*
X10669015Y4381500D02*
G01*
X10812272Y4436110D01*
X10669015Y4490465D02*
G01*
X10812272Y4436110D01*
X10669015Y4490465D02*
G01*
X10812272Y4490465D01*
X10669015Y4576571D02*
G01*
X10675874Y4562855D01*
X10689590Y4549139D01*
X10703052Y4542536D01*
X10723625Y4535678D01*
X10757661Y4535678D01*
X10778236Y4542536D01*
X10791697Y4549139D01*
X10805413Y4562855D01*
X10812272Y4576571D01*
X10812272Y4603750D01*
X10805413Y4617465D01*
X10791697Y4630928D01*
X10778236Y4637786D01*
X10757661Y4644644D01*
X10723625Y4644644D01*
X10703052Y4637786D01*
X10689590Y4630928D01*
X10675874Y4617465D01*
X10669015Y4603750D01*
X10669015Y4576571D01*
X10689590Y4785105D02*
G01*
X10675874Y4771389D01*
X10669015Y4751070D01*
X10669015Y4723892D01*
X10675874Y4703318D01*
X10689590Y4689602D01*
X10703052Y4689602D01*
X10716768Y4696460D01*
X10723625Y4703318D01*
X10730484Y4717034D01*
X10743945Y4757928D01*
X10750804Y4771389D01*
X10757661Y4778247D01*
X10771377Y4785105D01*
X10791697Y4785105D01*
X10805413Y4771389D01*
X10812272Y4751070D01*
X10812272Y4723892D01*
X10805413Y4703318D01*
X10791697Y4689602D01*
X10669015Y4830063D02*
G01*
X10812272Y4830063D01*
X10435590Y4477004D02*
G01*
X10421874Y4463287D01*
X10415015Y4442968D01*
X10415015Y4415536D01*
X10421874Y4395215D01*
X10435590Y4381500D01*
X10449052Y4381500D01*
X10462768Y4388357D01*
X10469625Y4395215D01*
X10476484Y4408678D01*
X10489945Y4449571D01*
X10496804Y4463287D01*
X10503661Y4470145D01*
X10517377Y4477004D01*
X10537697Y4477004D01*
X10551413Y4463287D01*
X10558272Y4442968D01*
X10558272Y4415536D01*
X10551413Y4395215D01*
X10537697Y4381500D01*
X10449052Y4624323D02*
G01*
X10435590Y4617465D01*
X10421874Y4603750D01*
X10415015Y4590034D01*
X10415015Y4562855D01*
X10421874Y4549139D01*
X10435590Y4535678D01*
X10449052Y4528820D01*
X10469625Y4521962D01*
X10503661Y4521962D01*
X10524236Y4528820D01*
X10537697Y4535678D01*
X10551413Y4549139D01*
X10558272Y4562855D01*
X10558272Y4590034D01*
X10551413Y4603750D01*
X10537697Y4617465D01*
X10524236Y4624323D01*
X10415015Y4669281D02*
G01*
X10558272Y4669281D01*
X10415015Y4764786D02*
G01*
X10510520Y4669281D01*
X10476484Y4703318D02*
G01*
X10558272Y4764786D01*
X10182352Y4471162D02*
G01*
X10168890Y4464304D01*
X10155174Y4450587D01*
X10148315Y4436871D01*
X10148315Y4409694D01*
X10155174Y4395978D01*
X10168890Y4382515D01*
X10182352Y4375657D01*
X10202925Y4368800D01*
X10236961Y4368800D01*
X10257536Y4375657D01*
X10270997Y4382515D01*
X10284713Y4395978D01*
X10291572Y4409694D01*
X10291572Y4436871D01*
X10284713Y4450587D01*
X10270997Y4464304D01*
X10257536Y4471162D01*
X10168890Y4611623D02*
G01*
X10155174Y4597907D01*
X10148315Y4577334D01*
X10148315Y4550155D01*
X10155174Y4529836D01*
X10168890Y4516120D01*
X10182352Y4516120D01*
X10196068Y4522978D01*
X10202925Y4529836D01*
X10209784Y4543297D01*
X10223245Y4584192D01*
X10230104Y4597907D01*
X10236961Y4604765D01*
X10250677Y4611623D01*
X10270997Y4611623D01*
X10284713Y4597907D01*
X10291572Y4577334D01*
X10291572Y4550155D01*
X10284713Y4529836D01*
X10270997Y4516120D01*
X10795761Y2781300D02*
G01*
X10891265Y2781300D01*
X10795761Y2845054D02*
G01*
X10891265Y2845054D01*
X10841227Y2781300D02*
G01*
X10841227Y2845054D01*
X10795761Y2875026D02*
G01*
X10891265Y2897631D01*
X10795761Y2920492D02*
G01*
X10891265Y2897631D01*
X10795761Y2920492D02*
G01*
X10891265Y2943097D01*
X10795761Y2965957D02*
G01*
X10891265Y2943097D01*
X10813795Y3065779D02*
G01*
X10809224Y3074923D01*
X10795761Y3088639D01*
X10891265Y3088639D01*
X10818368Y3123184D02*
G01*
X10813795Y3123184D01*
X10804906Y3127755D01*
X10800334Y3132328D01*
X10795761Y3141218D01*
X10795761Y3159505D01*
X10800334Y3168650D01*
X10804906Y3173221D01*
X10813795Y3177539D01*
X10822940Y3177539D01*
X10832084Y3173221D01*
X10845800Y3164078D01*
X10891265Y3118612D01*
X10891265Y3182112D01*
X10795761Y3266694D02*
G01*
X10795761Y3221228D01*
X10836656Y3216655D01*
X10832084Y3221228D01*
X10827511Y3234944D01*
X10827511Y3248660D01*
X10832084Y3262121D01*
X10841227Y3271265D01*
X10854690Y3275837D01*
X10863834Y3275837D01*
X10877550Y3271265D01*
X10886693Y3262121D01*
X10891265Y3248660D01*
X10891265Y3234944D01*
X10886693Y3221228D01*
X10882122Y3216655D01*
X10872977Y3212084D01*
X10809224Y3439413D02*
G01*
X10800334Y3430270D01*
X10795761Y3416807D01*
X10795761Y3398520D01*
X10800334Y3385057D01*
X10809224Y3375913D01*
X10818368Y3375913D01*
X10827511Y3380486D01*
X10832084Y3385057D01*
X10836656Y3393947D01*
X10845800Y3421379D01*
X10850118Y3430270D01*
X10854690Y3434842D01*
X10863834Y3439413D01*
X10877550Y3439413D01*
X10886693Y3430270D01*
X10891265Y3416807D01*
X10891265Y3398520D01*
X10886693Y3385057D01*
X10877550Y3375913D01*
X10795761Y3469386D02*
G01*
X10891265Y3469386D01*
X10795761Y3469386D02*
G01*
X10795761Y3501389D01*
X10800334Y3514852D01*
X10809224Y3523995D01*
X10818368Y3528568D01*
X10832084Y3533139D01*
X10854690Y3533139D01*
X10868406Y3528568D01*
X10877550Y3523995D01*
X10886693Y3514852D01*
X10891265Y3501389D01*
X10891265Y3469386D01*
X10818368Y3701287D02*
G01*
X10809224Y3696715D01*
X10800334Y3687571D01*
X10795761Y3678681D01*
X10795761Y3660394D01*
X10800334Y3651250D01*
X10809224Y3642105D01*
X10818368Y3637787D01*
X10832084Y3633215D01*
X10854690Y3633215D01*
X10868406Y3637787D01*
X10877550Y3642105D01*
X10886693Y3651250D01*
X10891265Y3660394D01*
X10891265Y3678681D01*
X10886693Y3687571D01*
X10877550Y3696715D01*
X10868406Y3701287D01*
X10795761Y3767581D02*
G01*
X10891265Y3731260D01*
X10795761Y3767581D02*
G01*
X10891265Y3803904D01*
X10859261Y3744976D02*
G01*
X10859261Y3790442D01*
X10795761Y3834129D02*
G01*
X10891265Y3834129D01*
X10795761Y3834129D02*
G01*
X10795761Y3875023D01*
X10800334Y3888486D01*
X10804906Y3893057D01*
X10813795Y3897629D01*
X10822940Y3897629D01*
X10832084Y3893057D01*
X10836656Y3888486D01*
X10841227Y3875023D01*
X10841227Y3834129D01*
X10841227Y3865879D02*
G01*
X10891265Y3897629D01*
X10795761Y3927602D02*
G01*
X10891265Y3927602D01*
X10795761Y3927602D02*
G01*
X10795761Y3959605D01*
X10800334Y3973068D01*
X10809224Y3982212D01*
X10818368Y3986784D01*
X10832084Y3991355D01*
X10854690Y3991355D01*
X10868406Y3986784D01*
X10877550Y3982212D01*
X10886693Y3973068D01*
X10891265Y3959605D01*
X10891265Y3927602D01*
D10*
X12405545Y8673866D02*
G01*
X12395131Y8668786D01*
X12384717Y8658372D01*
X12379637Y8647958D01*
X12379637Y8627130D01*
X12384717Y8616716D01*
X12395131Y8606302D01*
X12405545Y8601222D01*
X12421039Y8596142D01*
X12447201Y8596142D01*
X12462695Y8601222D01*
X12473109Y8606302D01*
X12483523Y8616716D01*
X12488603Y8627130D01*
X12488603Y8647958D01*
X12483523Y8658372D01*
X12473109Y8668786D01*
X12462695Y8673866D01*
X12405545Y8786134D02*
G01*
X12395131Y8781054D01*
X12384717Y8770640D01*
X12379637Y8760226D01*
X12379637Y8739398D01*
X12384717Y8728984D01*
X12395131Y8718570D01*
X12405545Y8713490D01*
X12421039Y8708156D01*
X12447201Y8708156D01*
X12462695Y8713490D01*
X12473109Y8718570D01*
X12483523Y8728984D01*
X12488603Y8739398D01*
X12488603Y8760226D01*
X12483523Y8770640D01*
X12473109Y8781054D01*
X12462695Y8786134D01*
X12400465Y8820424D02*
G01*
X12395131Y8830838D01*
X12379637Y8846332D01*
X12488603Y8846332D01*
X12400465Y8880622D02*
G01*
X12395131Y8891036D01*
X12379637Y8906784D01*
X12488603Y8906784D01*
X12379637Y8972062D02*
G01*
X12384717Y8956568D01*
X12400465Y8946154D01*
X12426373Y8941074D01*
X12441867Y8941074D01*
X12468029Y8946154D01*
X12483523Y8956568D01*
X12488603Y8972062D01*
X12488603Y8982476D01*
X12483523Y8998224D01*
X12468029Y9008638D01*
X12441867Y9013718D01*
X12426373Y9013718D01*
X12400465Y9008638D01*
X12384717Y8998224D01*
X12379637Y8982476D01*
X12379637Y8972062D01*
X12400465Y9048008D02*
G01*
X12395131Y9058422D01*
X12379637Y9073916D01*
X12488603Y9073916D01*
X2209800Y3353815D02*
G01*
X2209800Y3244850D01*
X2209800Y3353815D02*
G01*
X2277363Y3353815D01*
X2209800Y3302000D02*
G01*
X2251456Y3302000D01*
X2209800Y3244850D02*
G01*
X2277363Y3244850D01*
X2311654Y3353815D02*
G01*
X2311654Y3244850D01*
X2311654Y3353815D02*
G01*
X2384297Y3244850D01*
X2384297Y3353815D02*
G01*
X2384297Y3244850D01*
X2496565Y3327907D02*
G01*
X2491486Y3338321D01*
X2481072Y3348736D01*
X2470658Y3353815D01*
X2449829Y3353815D01*
X2439415Y3348736D01*
X2429002Y3338321D01*
X2423922Y3327907D01*
X2418588Y3312160D01*
X2418588Y3286252D01*
X2423922Y3270757D01*
X2429002Y3260344D01*
X2439415Y3249929D01*
X2449829Y3244850D01*
X2470658Y3244850D01*
X2481072Y3249929D01*
X2491486Y3260344D01*
X2496565Y3270757D01*
X2562097Y3353815D02*
G01*
X2551684Y3348736D01*
X2541270Y3338321D01*
X2536190Y3327907D01*
X2530856Y3312160D01*
X2530856Y3286252D01*
X2536190Y3270757D01*
X2541270Y3260344D01*
X2551684Y3249929D01*
X2562097Y3244850D01*
X2582925Y3244850D01*
X2593340Y3249929D01*
X2603500Y3260344D01*
X2608834Y3270757D01*
X2613913Y3286252D01*
X2613913Y3312160D01*
X2608834Y3327907D01*
X2603500Y3338321D01*
X2593340Y3348736D01*
X2582925Y3353815D01*
X2562097Y3353815D01*
X2648204Y3353815D02*
G01*
X2648204Y3244850D01*
X2648204Y3353815D02*
G01*
X2684779Y3353815D01*
X2700274Y3348736D01*
X2710688Y3338321D01*
X2715768Y3327907D01*
X2721102Y3312160D01*
X2721102Y3286252D01*
X2715768Y3270757D01*
X2710688Y3260344D01*
X2700274Y3249929D01*
X2684779Y3244850D01*
X2648204Y3244850D01*
X2755391Y3353815D02*
G01*
X2755391Y3244850D01*
X2755391Y3353815D02*
G01*
X2822956Y3353815D01*
X2755391Y3302000D02*
G01*
X2796793Y3302000D01*
X2755391Y3244850D02*
G01*
X2822956Y3244850D01*
X2857245Y3353815D02*
G01*
X2857245Y3244850D01*
X2857245Y3353815D02*
G01*
X2903981Y3353815D01*
X2919475Y3348736D01*
X2924809Y3343402D01*
X2929890Y3332987D01*
X2929890Y3322573D01*
X2924809Y3312160D01*
X2919475Y3307079D01*
X2903981Y3302000D01*
X2857245Y3302000D01*
X2893568Y3302000D02*
G01*
X2929890Y3244850D01*
D11*
X2939917Y2964474D02*
G01*
X2935345Y2973872D01*
X2925947Y2983270D01*
X2916549Y2987842D01*
X2898007Y2987842D01*
X2888609Y2983270D01*
X2879211Y2973872D01*
X2874385Y2964474D01*
X2869813Y2950504D01*
X2869813Y2927136D01*
X2874385Y2912912D01*
X2879211Y2903514D01*
X2888609Y2894370D01*
X2898007Y2889544D01*
X2916549Y2889544D01*
X2925947Y2894370D01*
X2935345Y2903514D01*
X2939917Y2912912D01*
X2970905Y2987842D02*
G01*
X2970905Y2889544D01*
X2970905Y2889544D02*
G01*
X3027039Y2889544D01*
X3058027Y2987842D02*
G01*
X3058027Y2889544D01*
X3123559Y2987842D02*
G01*
X3058027Y2922310D01*
X3081395Y2945678D02*
G01*
X3123559Y2889544D01*
X2959696Y2725508D02*
G01*
X2959696Y2627210D01*
X2959696Y2725508D02*
G01*
X2992462Y2725508D01*
X3006686Y2720936D01*
X3016084Y2711538D01*
X3020656Y2702140D01*
X3025228Y2688170D01*
X3025228Y2664802D01*
X3020656Y2650832D01*
X3016084Y2641434D01*
X3006686Y2632036D01*
X2992462Y2627210D01*
X2959696Y2627210D01*
X3093808Y2725508D02*
G01*
X3056216Y2627210D01*
X3093808Y2725508D02*
G01*
X3131146Y2627210D01*
X3070186Y2659976D02*
G01*
X3117176Y2659976D01*
X3005330Y2467729D02*
G01*
X2995932Y2477127D01*
X2981962Y2481699D01*
X2963166Y2481699D01*
X2949196Y2477127D01*
X2939798Y2467729D01*
X2939798Y2458331D01*
X2944370Y2448933D01*
X2949196Y2444361D01*
X2958594Y2439535D01*
X2986534Y2430137D01*
X2995932Y2425565D01*
X3000758Y2420993D01*
X3005330Y2411595D01*
X3005330Y2397371D01*
X2995932Y2388227D01*
X2981962Y2383401D01*
X2963166Y2383401D01*
X2949196Y2388227D01*
X2939798Y2397371D01*
X3036318Y2481699D02*
G01*
X3059686Y2383401D01*
X3083054Y2481699D02*
G01*
X3059686Y2383401D01*
X3083054Y2481699D02*
G01*
X3106422Y2383401D01*
X3129790Y2481699D02*
G01*
X3106422Y2383401D01*
X2839697Y2225535D02*
G01*
X2877289Y2127237D01*
X2914627Y2225535D02*
G01*
X2877289Y2127237D01*
X3015719Y2202167D02*
G01*
X3011147Y2211565D01*
X3001749Y2220963D01*
X2992351Y2225535D01*
X2973809Y2225535D01*
X2964411Y2220963D01*
X2955013Y2211565D01*
X2950187Y2202167D01*
X2945615Y2188197D01*
X2945615Y2164829D01*
X2950187Y2150605D01*
X2955013Y2141461D01*
X2964411Y2132063D01*
X2973809Y2127237D01*
X2992351Y2127237D01*
X3001749Y2132063D01*
X3011147Y2141461D01*
X3015719Y2150605D01*
X3117065Y2202167D02*
G01*
X3112239Y2211565D01*
X3102841Y2220963D01*
X3093443Y2225535D01*
X3074901Y2225535D01*
X3065503Y2220963D01*
X3056105Y2211565D01*
X3051533Y2202167D01*
X3046707Y2188197D01*
X3046707Y2164829D01*
X3051533Y2150605D01*
X3056105Y2141461D01*
X3065503Y2132063D01*
X3074901Y2127237D01*
X3093443Y2127237D01*
X3102841Y2132063D01*
X3112239Y2141461D01*
X3117065Y2150605D01*
X2919953Y1942320D02*
G01*
X2915381Y1951718D01*
X2905983Y1960862D01*
X2896585Y1965688D01*
X2877789Y1965688D01*
X2868645Y1960862D01*
X2859247Y1951718D01*
X2854421Y1942320D01*
X2849849Y1928096D01*
X2849849Y1904728D01*
X2854421Y1890758D01*
X2859247Y1881360D01*
X2868645Y1871962D01*
X2877789Y1867390D01*
X2896585Y1867390D01*
X2905983Y1871962D01*
X2915381Y1881360D01*
X2919953Y1890758D01*
X2919953Y1904728D01*
X2896585Y1904728D02*
G01*
X2919953Y1904728D01*
X2950941Y1965688D02*
G01*
X2950941Y1867390D01*
X2950941Y1965688D02*
G01*
X3016473Y1867390D01*
X3016473Y1965688D02*
G01*
X3016473Y1867390D01*
X3047461Y1965688D02*
G01*
X3047461Y1867390D01*
X3047461Y1965688D02*
G01*
X3080227Y1965688D01*
X3094197Y1960862D01*
X3103595Y1951718D01*
X3108167Y1942320D01*
X3112993Y1928096D01*
X3112993Y1904728D01*
X3108167Y1890758D01*
X3103595Y1881360D01*
X3094197Y1871962D01*
X3080227Y1867390D01*
X3047461Y1867390D01*
D10*
X8496300Y8586215D02*
G01*
X8496300Y8477250D01*
X8496300Y8586215D02*
G01*
X8543036Y8586215D01*
X8558529Y8581136D01*
X8563863Y8575802D01*
X8568943Y8565387D01*
X8568943Y8554974D01*
X8563863Y8544560D01*
X8558529Y8539479D01*
X8543036Y8534400D01*
X8496300Y8534400D01*
X8532622Y8534400D02*
G01*
X8568943Y8477250D01*
X8681211Y8560308D02*
G01*
X8676131Y8570721D01*
X8665718Y8581136D01*
X8655304Y8586215D01*
X8634475Y8586215D01*
X8624061Y8581136D01*
X8613647Y8570721D01*
X8608568Y8560308D01*
X8603234Y8544560D01*
X8603234Y8518652D01*
X8608568Y8503158D01*
X8613647Y8492744D01*
X8624061Y8482329D01*
X8634475Y8477250D01*
X8655304Y8477250D01*
X8665718Y8482329D01*
X8676131Y8492744D01*
X8681211Y8503158D01*
X8681211Y8518652D01*
X8655304Y8518652D02*
G01*
X8681211Y8518652D01*
X8715502Y8586215D02*
G01*
X8715502Y8477250D01*
X8715502Y8586215D02*
G01*
X8762238Y8586215D01*
X8777986Y8581136D01*
X8783065Y8575802D01*
X8788400Y8565387D01*
X8788400Y8554974D01*
X8783065Y8544560D01*
X8777986Y8539479D01*
X8762238Y8534400D01*
X8715502Y8534400D02*
G01*
X8762238Y8534400D01*
X8777986Y8529065D01*
X8783065Y8523986D01*
X8788400Y8513571D01*
X8788400Y8497824D01*
X8783065Y8487410D01*
X8777986Y8482329D01*
X8762238Y8477250D01*
X8715502Y8477250D01*
X13041375Y1067307D02*
G01*
X13041375Y1176273D01*
X13041375Y1067307D02*
G01*
X12994640Y1067307D01*
X12979145Y1072387D01*
X12973811Y1077721D01*
X12968731Y1088136D01*
X12968731Y1098550D01*
X12973811Y1108963D01*
X12979145Y1114044D01*
X12994640Y1119123D01*
X13041375Y1119123D02*
G01*
X12994640Y1119123D01*
X12979145Y1124457D01*
X12973811Y1129537D01*
X12968731Y1139952D01*
X12968731Y1155700D01*
X12973811Y1166113D01*
X12979145Y1171194D01*
X12994640Y1176273D01*
X13041375Y1176273D01*
X12892786Y1067307D02*
G01*
X12934441Y1176273D01*
X12892786Y1067307D02*
G01*
X12851129Y1176273D01*
X12918693Y1139952D02*
G01*
X12866877Y1139952D01*
X12780518Y1067307D02*
G01*
X12780518Y1176273D01*
X12816840Y1067307D02*
G01*
X12744195Y1067307D01*
X12673584Y1067307D02*
G01*
X12673584Y1176273D01*
X12709906Y1067307D02*
G01*
X12637261Y1067307D01*
X14147800Y4151884D02*
G01*
X14147800Y4229862D01*
X14142720Y4245355D01*
X14132306Y4255770D01*
X14116558Y4260850D01*
X14106143Y4260850D01*
X14090650Y4255770D01*
X14080236Y4245355D01*
X14075156Y4229862D01*
X14075156Y4151884D01*
X14035531Y4177792D02*
G01*
X14035531Y4172712D01*
X14030452Y4162297D01*
X14025118Y4156963D01*
X14014704Y4151884D01*
X13994129Y4151884D01*
X13983716Y4156963D01*
X13978381Y4162297D01*
X13973302Y4172712D01*
X13973302Y4183126D01*
X13978381Y4193539D01*
X13988795Y4209034D01*
X14040866Y4260850D01*
X13967968Y4260850D01*
D11*
X14706600Y5852853D02*
G01*
X14706600Y6046815D01*
X14706600Y5852853D02*
G01*
X14632708Y6046815D01*
X14558817Y5852853D02*
G01*
X14632708Y6046815D01*
X14558817Y5852853D02*
G01*
X14558817Y6046815D01*
X14497857Y5852853D02*
G01*
X14488622Y5862088D01*
X14479384Y5852853D01*
X14488622Y5843615D01*
X14497857Y5852853D01*
X14488622Y5917506D02*
G01*
X14488622Y6046815D01*
X14418424Y5917506D02*
G01*
X14418424Y6046815D01*
X14418424Y5954453D02*
G01*
X14390715Y5926744D01*
X14372244Y5917506D01*
X14344535Y5917506D01*
X14326062Y5926744D01*
X14316824Y5954453D01*
X14316824Y6046815D01*
X14255864Y5852853D02*
G01*
X14246628Y5862088D01*
X14237393Y5852853D01*
X14246628Y5843615D01*
X14255864Y5852853D01*
X14246628Y5917506D02*
G01*
X14246628Y6046815D01*
X14065595Y5852853D02*
G01*
X14157959Y5852853D01*
X14167195Y5935979D01*
X14157959Y5926744D01*
X14130251Y5917506D01*
X14102542Y5917506D01*
X14074833Y5926744D01*
X14056359Y5945215D01*
X14047124Y5972924D01*
X14047124Y5991397D01*
X14056359Y6019106D01*
X14074833Y6037579D01*
X14102542Y6046815D01*
X14130251Y6046815D01*
X14157959Y6037579D01*
X14167195Y6028344D01*
X14176433Y6009871D01*
X13875326Y5880562D02*
G01*
X13884564Y5862088D01*
X13912273Y5852853D01*
X13930744Y5852853D01*
X13958455Y5862088D01*
X13976926Y5889797D01*
X13986164Y5935979D01*
X13986164Y5982162D01*
X13976926Y6019106D01*
X13958455Y6037579D01*
X13930744Y6046815D01*
X13921508Y6046815D01*
X13893800Y6037579D01*
X13875326Y6019106D01*
X13866091Y5991397D01*
X13866091Y5982162D01*
X13875326Y5954453D01*
X13893800Y5935979D01*
X13921508Y5926744D01*
X13930744Y5926744D01*
X13958455Y5935979D01*
X13976926Y5954453D01*
X13986164Y5982162D01*
X13749713Y5852853D02*
G01*
X13777422Y5862088D01*
X13795895Y5889797D01*
X13805131Y5935979D01*
X13805131Y5963688D01*
X13795895Y6009871D01*
X13777422Y6037579D01*
X13749713Y6046815D01*
X13731240Y6046815D01*
X13703531Y6037579D01*
X13685057Y6009871D01*
X13675822Y5963688D01*
X13675822Y5935979D01*
X13685057Y5889797D01*
X13703531Y5862088D01*
X13731240Y5852853D01*
X13749713Y5852853D01*
X13749482Y5116253D02*
G01*
X13767955Y5125488D01*
X13786426Y5143962D01*
X13795664Y5162435D01*
X13804900Y5190144D01*
X13804900Y5236324D01*
X13795664Y5264035D01*
X13786426Y5282506D01*
X13767955Y5300979D01*
X13749482Y5310215D01*
X13712535Y5310215D01*
X13694064Y5300979D01*
X13675591Y5282506D01*
X13666355Y5264035D01*
X13657117Y5236324D01*
X13657117Y5190144D01*
X13666355Y5162435D01*
X13675591Y5143962D01*
X13694064Y5125488D01*
X13712535Y5116253D01*
X13749482Y5116253D01*
X13596157Y5116253D02*
G01*
X13596157Y5254797D01*
X13586922Y5282506D01*
X13568448Y5300979D01*
X13540740Y5310215D01*
X13522266Y5310215D01*
X13494557Y5300979D01*
X13476084Y5282506D01*
X13466848Y5254797D01*
X13466848Y5116253D01*
X13341235Y5116253D02*
G01*
X13341235Y5310215D01*
X13405888Y5116253D02*
G01*
X13276579Y5116253D01*
X13215620Y5116253D02*
G01*
X13215620Y5310215D01*
X13215620Y5116253D02*
G01*
X13132493Y5116253D01*
X13104784Y5125488D01*
X13095546Y5134724D01*
X13086311Y5153197D01*
X13086311Y5180906D01*
X13095546Y5199379D01*
X13104784Y5208615D01*
X13132493Y5217853D01*
X13215620Y5217853D01*
X13025351Y5116253D02*
G01*
X13025351Y5254797D01*
X13016115Y5282506D01*
X12997642Y5300979D01*
X12969933Y5310215D01*
X12951459Y5310215D01*
X12923751Y5300979D01*
X12905277Y5282506D01*
X12896042Y5254797D01*
X12896042Y5116253D01*
X12770426Y5116253D02*
G01*
X12770426Y5310215D01*
X12835082Y5116253D02*
G01*
X12705773Y5116253D01*
X15494000Y5116253D02*
G01*
X15494000Y5310215D01*
X15433040Y5116253D02*
G01*
X15433040Y5310215D01*
X15433040Y5116253D02*
G01*
X15303731Y5310215D01*
X15303731Y5116253D02*
G01*
X15303731Y5310215D01*
X15242771Y5116253D02*
G01*
X15242771Y5310215D01*
X15242771Y5116253D02*
G01*
X15159644Y5116253D01*
X15131935Y5125488D01*
X15122697Y5134724D01*
X15113462Y5153197D01*
X15113462Y5180906D01*
X15122697Y5199379D01*
X15131935Y5208615D01*
X15159644Y5217853D01*
X15242771Y5217853D01*
X15052502Y5116253D02*
G01*
X15052502Y5254797D01*
X15043264Y5282506D01*
X15024793Y5300979D01*
X14997084Y5310215D01*
X14978611Y5310215D01*
X14950902Y5300979D01*
X14932428Y5282506D01*
X14923193Y5254797D01*
X14923193Y5116253D01*
X14797577Y5116253D02*
G01*
X14797577Y5310215D01*
X14862233Y5116253D02*
G01*
X14732924Y5116253D01*
X13137111Y5816600D02*
G01*
X13137111Y5650344D01*
X15194511Y5867400D02*
G01*
X15194511Y5701144D01*
X15156873Y4534362D02*
G01*
X15156873Y4700615D01*
X15240000Y4617488D02*
G01*
X15073746Y4617488D01*
X13099473Y4496262D02*
G01*
X13099473Y4662515D01*
X13182600Y4579388D02*
G01*
X13016346Y4579388D01*
D10*
X7303261Y3109721D02*
G01*
X7297927Y3120136D01*
X7287513Y3130550D01*
X7277354Y3135629D01*
X7256525Y3135629D01*
X7246111Y3130550D01*
X7235697Y3120136D01*
X7230363Y3109721D01*
X7225284Y3093973D01*
X7225284Y3068065D01*
X7230363Y3052571D01*
X7235697Y3042157D01*
X7246111Y3031744D01*
X7256525Y3026663D01*
X7277354Y3026663D01*
X7287513Y3031744D01*
X7297927Y3042157D01*
X7303261Y3052571D01*
X7337552Y3114802D02*
G01*
X7347965Y3120136D01*
X7363459Y3135629D01*
X7363459Y3026663D01*
X11391900Y8192515D02*
G01*
X11391900Y8083550D01*
X11391900Y8083550D02*
G01*
X11454129Y8083550D01*
X11488420Y8192515D02*
G01*
X11488420Y8083550D01*
X11488420Y8192515D02*
G01*
X11555984Y8192515D01*
X11488420Y8140700D02*
G01*
X11530075Y8140700D01*
X11488420Y8083550D02*
G01*
X11555984Y8083550D01*
X11590274Y8192515D02*
G01*
X11590274Y8083550D01*
X11590274Y8192515D02*
G01*
X11626850Y8192515D01*
X11642343Y8187436D01*
X11652758Y8177021D01*
X11657838Y8166608D01*
X11663172Y8150860D01*
X11663172Y8124952D01*
X11657838Y8109458D01*
X11652758Y8099044D01*
X11642343Y8088629D01*
X11626850Y8083550D01*
X11590274Y8083550D01*
X11697461Y8171687D02*
G01*
X11707875Y8177021D01*
X11723370Y8192515D01*
X11723370Y8083550D01*
X10210800Y8192515D02*
G01*
X10210800Y8083550D01*
X10210800Y8083550D02*
G01*
X10273029Y8083550D01*
X10307320Y8192515D02*
G01*
X10307320Y8083550D01*
X10307320Y8192515D02*
G01*
X10374884Y8192515D01*
X10307320Y8140700D02*
G01*
X10348975Y8140700D01*
X10307320Y8083550D02*
G01*
X10374884Y8083550D01*
X10409174Y8192515D02*
G01*
X10409174Y8083550D01*
X10409174Y8192515D02*
G01*
X10445750Y8192515D01*
X10461243Y8187436D01*
X10471658Y8177021D01*
X10476738Y8166608D01*
X10482072Y8150860D01*
X10482072Y8124952D01*
X10476738Y8109458D01*
X10471658Y8099044D01*
X10461243Y8088629D01*
X10445750Y8083550D01*
X10409174Y8083550D01*
X10521441Y8166608D02*
G01*
X10521441Y8171687D01*
X10526775Y8182102D01*
X10531856Y8187436D01*
X10542270Y8192515D01*
X10563097Y8192515D01*
X10573511Y8187436D01*
X10578591Y8182102D01*
X10583925Y8171687D01*
X10583925Y8161273D01*
X10578591Y8150860D01*
X10568177Y8135365D01*
X10516361Y8083550D01*
X10589006Y8083550D01*
X10744200Y6516115D02*
G01*
X10744200Y6407150D01*
X10744200Y6516115D02*
G01*
X10790936Y6516115D01*
X10806429Y6511036D01*
X10811763Y6505702D01*
X10816843Y6495287D01*
X10816843Y6484873D01*
X10811763Y6474460D01*
X10806429Y6469379D01*
X10790936Y6464300D01*
X10744200Y6464300D01*
X10780522Y6464300D02*
G01*
X10816843Y6407150D01*
X10851134Y6495287D02*
G01*
X10861547Y6500621D01*
X10877295Y6516115D01*
X10877295Y6407150D01*
X10666984Y7404100D02*
G01*
X10775950Y7404100D01*
X10666984Y7404100D02*
G01*
X10666984Y7450836D01*
X10672063Y7466329D01*
X10677397Y7471663D01*
X10687811Y7476744D01*
X10698225Y7476744D01*
X10708640Y7471663D01*
X10713720Y7466329D01*
X10718800Y7450836D01*
X10718800Y7404100D01*
X10718800Y7440421D02*
G01*
X10775950Y7476744D01*
X10692891Y7516368D02*
G01*
X10687811Y7516368D01*
X10677397Y7521447D01*
X10672063Y7526781D01*
X10666984Y7537195D01*
X10666984Y7557770D01*
X10672063Y7568184D01*
X10677397Y7573518D01*
X10687811Y7578597D01*
X10698225Y7578597D01*
X10708640Y7573518D01*
X10724134Y7563104D01*
X10775950Y7511034D01*
X10775950Y7583931D01*
X9435084Y7442200D02*
G01*
X9544050Y7442200D01*
X9435084Y7442200D02*
G01*
X9435084Y7488936D01*
X9440163Y7504429D01*
X9445497Y7509763D01*
X9455911Y7514844D01*
X9466325Y7514844D01*
X9476740Y7509763D01*
X9481820Y7504429D01*
X9486900Y7488936D01*
X9486900Y7442200D01*
X9486900Y7478521D02*
G01*
X9544050Y7514844D01*
X9435084Y7559547D02*
G01*
X9435084Y7616697D01*
X9476740Y7585710D01*
X9476740Y7601204D01*
X9481820Y7611618D01*
X9486900Y7616697D01*
X9502647Y7622031D01*
X9513061Y7622031D01*
X9528556Y7616697D01*
X9538970Y7606284D01*
X9544050Y7590789D01*
X9544050Y7575295D01*
X9538970Y7559547D01*
X9533890Y7554468D01*
X9523475Y7549134D01*
X9335515Y7670800D02*
G01*
X9226550Y7670800D01*
X9335515Y7670800D02*
G01*
X9335515Y7624063D01*
X9330436Y7608570D01*
X9325102Y7603236D01*
X9314688Y7598155D01*
X9304274Y7598155D01*
X9293859Y7603236D01*
X9288779Y7608570D01*
X9283700Y7624063D01*
X9283700Y7670800D01*
X9283700Y7634478D02*
G01*
X9226550Y7598155D01*
X9335515Y7511795D02*
G01*
X9262872Y7563865D01*
X9262872Y7485887D01*
X9335515Y7511795D02*
G01*
X9226550Y7511795D01*
X7974584Y7645400D02*
G01*
X8083550Y7645400D01*
X7974584Y7645400D02*
G01*
X7974584Y7692136D01*
X7979663Y7707629D01*
X7984997Y7712963D01*
X7995411Y7718044D01*
X8005825Y7718044D01*
X8016240Y7712963D01*
X8021320Y7707629D01*
X8026400Y7692136D01*
X8026400Y7645400D01*
X8026400Y7681721D02*
G01*
X8083550Y7718044D01*
X7974584Y7814818D02*
G01*
X7974584Y7762747D01*
X8021320Y7757668D01*
X8016240Y7762747D01*
X8010906Y7778495D01*
X8010906Y7793989D01*
X8016240Y7809484D01*
X8026400Y7819897D01*
X8042147Y7825231D01*
X8052561Y7825231D01*
X8068056Y7819897D01*
X8078470Y7809484D01*
X8083550Y7793989D01*
X8083550Y7778495D01*
X8078470Y7762747D01*
X8073390Y7757668D01*
X8062975Y7752334D01*
X5524500Y3620515D02*
G01*
X5524500Y3511550D01*
X5524500Y3620515D02*
G01*
X5571236Y3620515D01*
X5586729Y3615436D01*
X5592063Y3610102D01*
X5597143Y3599687D01*
X5597143Y3589273D01*
X5592063Y3578860D01*
X5586729Y3573779D01*
X5571236Y3568700D01*
X5524500Y3568700D01*
X5560822Y3568700D02*
G01*
X5597143Y3511550D01*
X5693918Y3605021D02*
G01*
X5688584Y3615436D01*
X5673090Y3620515D01*
X5662675Y3620515D01*
X5647181Y3615436D01*
X5636768Y3599687D01*
X5631434Y3573779D01*
X5631434Y3547871D01*
X5636768Y3527044D01*
X5647181Y3516629D01*
X5662675Y3511550D01*
X5668009Y3511550D01*
X5683504Y3516629D01*
X5693918Y3527044D01*
X5698997Y3542537D01*
X5698997Y3547871D01*
X5693918Y3563365D01*
X5683504Y3573779D01*
X5668009Y3578860D01*
X5662675Y3578860D01*
X5647181Y3573779D01*
X5636768Y3563365D01*
X5631434Y3547871D01*
X9042400Y6465315D02*
G01*
X9042400Y6356350D01*
X9042400Y6465315D02*
G01*
X9089136Y6465315D01*
X9104629Y6460236D01*
X9109963Y6454902D01*
X9115043Y6444487D01*
X9115043Y6434073D01*
X9109963Y6423660D01*
X9104629Y6418579D01*
X9089136Y6413500D01*
X9042400Y6413500D01*
X9078722Y6413500D02*
G01*
X9115043Y6356350D01*
X9222231Y6465315D02*
G01*
X9170161Y6356350D01*
X9149334Y6465315D02*
G01*
X9222231Y6465315D01*
X9093200Y6058915D02*
G01*
X9093200Y5949950D01*
X9093200Y6058915D02*
G01*
X9139936Y6058915D01*
X9155429Y6053836D01*
X9160763Y6048502D01*
X9165843Y6038087D01*
X9165843Y6027673D01*
X9160763Y6017260D01*
X9155429Y6012179D01*
X9139936Y6007100D01*
X9093200Y6007100D01*
X9129522Y6007100D02*
G01*
X9165843Y5949950D01*
X9226295Y6058915D02*
G01*
X9210547Y6053836D01*
X9205468Y6043421D01*
X9205468Y6033007D01*
X9210547Y6022594D01*
X9220961Y6017260D01*
X9241790Y6012179D01*
X9257284Y6007100D01*
X9267697Y5996686D01*
X9273031Y5986271D01*
X9273031Y5970523D01*
X9267697Y5960110D01*
X9262618Y5955029D01*
X9246870Y5949950D01*
X9226295Y5949950D01*
X9210547Y5955029D01*
X9205468Y5960110D01*
X9200134Y5970523D01*
X9200134Y5986271D01*
X9205468Y5996686D01*
X9215881Y6007100D01*
X9231375Y6012179D01*
X9252204Y6017260D01*
X9262618Y6022594D01*
X9267697Y6033007D01*
X9267697Y6043421D01*
X9262618Y6053836D01*
X9246870Y6058915D01*
X9226295Y6058915D01*
X8431784Y7645400D02*
G01*
X8540750Y7645400D01*
X8431784Y7645400D02*
G01*
X8431784Y7692136D01*
X8436863Y7707629D01*
X8442197Y7712963D01*
X8452611Y7718044D01*
X8463025Y7718044D01*
X8473440Y7712963D01*
X8478520Y7707629D01*
X8483600Y7692136D01*
X8483600Y7645400D01*
X8483600Y7681721D02*
G01*
X8540750Y7718044D01*
X8468106Y7819897D02*
G01*
X8483600Y7814818D01*
X8494013Y7804404D01*
X8499347Y7788910D01*
X8499347Y7783576D01*
X8494013Y7768081D01*
X8483600Y7757668D01*
X8468106Y7752334D01*
X8463025Y7752334D01*
X8447277Y7757668D01*
X8436863Y7768081D01*
X8431784Y7783576D01*
X8431784Y7788910D01*
X8436863Y7804404D01*
X8447277Y7814818D01*
X8468106Y7819897D01*
X8494013Y7819897D01*
X8520175Y7814818D01*
X8535670Y7804404D01*
X8540750Y7788910D01*
X8540750Y7778495D01*
X8535670Y7762747D01*
X8525256Y7757668D01*
X1885187Y3988562D02*
G01*
X1895602Y3993895D01*
X1906015Y4004310D01*
X1911095Y4014470D01*
X1911095Y4035297D01*
X1906015Y4045712D01*
X1895602Y4056126D01*
X1885187Y4061460D01*
X1869439Y4066539D01*
X1843531Y4066539D01*
X1828037Y4061460D01*
X1817623Y4056126D01*
X1807210Y4045712D01*
X1802129Y4035297D01*
X1802129Y4014470D01*
X1807210Y4004310D01*
X1817623Y3993895D01*
X1828037Y3988562D01*
X1885187Y3949192D02*
G01*
X1890268Y3949192D01*
X1900681Y3943857D01*
X1906015Y3938778D01*
X1911095Y3928363D01*
X1911095Y3907536D01*
X1906015Y3897121D01*
X1900681Y3892042D01*
X1890268Y3886707D01*
X1879854Y3886707D01*
X1869439Y3892042D01*
X1853945Y3902455D01*
X1802129Y3954271D01*
X1802129Y3881628D01*
D14*
X15138400Y6286500D02*
G01*
X12598400Y6286500D01*
X12598400Y7708900D02*
G01*
X15138400Y7708900D01*
X12598400Y6807200D02*
G01*
X12661900Y6870700D01*
X12598400Y6934200D01*
X12598400Y6553200D02*
G01*
X12661900Y6616700D01*
X12598400Y6680200D01*
X12661900Y6362700D02*
G01*
X12598400Y6426200D01*
X12788900Y7632700D02*
G01*
X12852400Y7569200D01*
X12852400Y7442200D01*
X12788900Y7378700D01*
X12852400Y7315200D01*
X12852400Y7188200D01*
X12788900Y7124700D01*
X12852400Y7061200D01*
X12852400Y6934200D01*
X12788900Y6870700D01*
X12852400Y6807200D01*
X12852400Y6680200D01*
X12788900Y6616700D01*
X12852400Y6553200D01*
X12852400Y6426200D01*
X12788900Y6362700D01*
X12598400Y7315200D02*
G01*
X12661900Y7378700D01*
X12598400Y7442200D01*
X12598400Y6286500D02*
G01*
X12598400Y7708900D01*
X15711170Y6692900D02*
G01*
X15838170Y6692900D01*
X15838170Y7454900D01*
X15076170Y7454900D01*
X15076170Y6692900D01*
X15711170Y6692900D01*
X12661900Y7632700D02*
G01*
X12598400Y7569200D01*
X12598400Y7061200D02*
G01*
X12661900Y7124700D01*
X12598400Y7188200D01*
X15138400Y6286500D02*
G01*
X15138400Y6692900D01*
X15132618Y7454900D02*
G01*
X15132618Y7708900D01*
D15*
X14914499Y1923592D02*
G01*
X13914500Y1923592D01*
X14915032Y1309166D02*
G01*
X14954504Y1291800D01*
X14954504Y1391800D01*
X14915032Y1372107D01*
X14914499Y1241800D02*
G01*
X13914500Y1241800D01*
X14914499Y1241800D02*
G01*
X14914499Y2001799D01*
X13914500Y1241800D02*
G01*
X13914500Y2001799D01*
X14914499Y2001799D02*
G01*
X13914500Y2001799D01*
X14914499Y1461719D02*
G01*
X13914500Y1461719D01*
X10985500Y8610600D02*
G01*
X11493500Y8610600D01*
X11468100Y8610600D02*
G01*
X11468100Y9118600D01*
X11493500Y9118600D02*
G01*
X10985500Y9118600D01*
X10960100Y9118600D02*
G01*
X10960100Y8610600D01*
X9537700Y8610600D02*
G01*
X10045700Y8610600D01*
X10020300Y8610600D02*
G01*
X10020300Y9118600D01*
X10045700Y9118600D02*
G01*
X9537700Y9118600D01*
X9512300Y9118600D02*
G01*
X9512300Y8610600D01*
X4001668Y1925599D02*
G01*
X4449099Y1925599D01*
X4529099Y1730047D02*
G01*
X4529099Y1521152D01*
X3929100Y1730047D02*
G01*
X3929100Y1521152D01*
X4001668Y1325600D02*
G01*
X4456531Y1325600D01*
X5144668Y1925599D02*
G01*
X5592099Y1925599D01*
X5672099Y1730047D02*
G01*
X5672099Y1521152D01*
X5072100Y1730047D02*
G01*
X5072100Y1521152D01*
X5144668Y1325600D02*
G01*
X5599531Y1325600D01*
X6363868Y1950999D02*
G01*
X6811299Y1950999D01*
X6891299Y1755447D02*
G01*
X6891299Y1546552D01*
X6291300Y1755447D02*
G01*
X6291300Y1546552D01*
X6363868Y1351000D02*
G01*
X6818731Y1351000D01*
X7557668Y1950999D02*
G01*
X8005099Y1950999D01*
X8085099Y1755447D02*
G01*
X8085099Y1546552D01*
X7485100Y1755447D02*
G01*
X7485100Y1546552D01*
X7557668Y1351000D02*
G01*
X8012531Y1351000D01*
X8764168Y1963699D02*
G01*
X9211599Y1963699D01*
X9291599Y1768147D02*
G01*
X9291599Y1559252D01*
X8691600Y1768147D02*
G01*
X8691600Y1559252D01*
X8764168Y1363700D02*
G01*
X9219031Y1363700D01*
X1544208Y6458204D02*
G01*
X2194204Y6458204D01*
X4274182Y6458204D02*
G01*
X3558301Y6458204D01*
X4268297Y8773200D02*
G01*
X1548302Y8773200D01*
X4268297Y6873204D02*
G01*
X1548302Y6873204D01*
X1544208Y6458204D02*
G01*
X1544185Y9188195D01*
X4274182Y9188195D02*
G01*
X4274182Y6458204D01*
X4274182Y9188195D02*
G01*
X1544185Y9188195D01*
X2423548Y6553200D02*
G01*
X3162305Y6553200D01*
X3162305Y6553200D02*
G01*
X3328957Y6553200D01*
X12862786Y2526403D02*
G01*
X12864200Y3824759D01*
X15477898Y2338798D02*
G01*
X12691671Y2337909D01*
X12691671Y2337909D02*
G01*
X12691671Y2525067D01*
X12693007Y2526403D01*
X12862786Y2526403D01*
X12864792Y2528409D01*
X12686029Y4037837D02*
G01*
X12686029Y3826510D01*
X12863829Y3826510D01*
X12863829Y3819905D01*
X15477898Y4038800D02*
G01*
X12687899Y4038800D01*
X15477898Y2338798D02*
G01*
X15477898Y4038795D01*
X15178918Y3392703D02*
G01*
X15039218Y3392703D01*
X15178918Y2950745D02*
G01*
X15178918Y3392703D01*
X15039218Y2950745D02*
G01*
X15178918Y2950745D01*
X15468475Y2831335D02*
G01*
X15468475Y3512080D01*
X15199233Y3512080D02*
G01*
X15039218Y3512080D01*
X15039218Y3512080D02*
G01*
X15039218Y3392703D01*
X15039218Y2831335D02*
G01*
X15039218Y2950745D01*
X15199233Y2831335D02*
G01*
X15039218Y2831335D01*
X15582775Y3471445D02*
G01*
X15539565Y3471445D01*
X15603065Y2892323D02*
G01*
X15603065Y3446045D01*
X15539565Y2872003D02*
G01*
X15577665Y2872003D01*
X15539565Y3512080D02*
G01*
X15598018Y3570503D01*
X15539565Y2831335D02*
G01*
X15598018Y2772945D01*
X15468475Y3512080D02*
G01*
X15539565Y3512080D01*
X15039218Y3512080D02*
G01*
X15468475Y3512080D01*
X15468475Y2831335D02*
G01*
X15039218Y2831335D01*
X15539565Y2831335D02*
G01*
X15468475Y2831335D01*
X15539565Y3471445D02*
G01*
X15539565Y3512080D01*
X15539565Y2831335D02*
G01*
X15539565Y2872003D01*
X2655468Y5697499D02*
G01*
X3102899Y5697499D01*
X3182899Y5501947D02*
G01*
X3182899Y5293052D01*
X2582900Y5501947D02*
G01*
X2582900Y5293052D01*
X2655468Y5097500D02*
G01*
X3110331Y5097500D01*
D11*
X1739900Y4800600D02*
G01*
X1485900Y4800600D01*
X1485900Y5816600D01*
X1739900Y5816600D01*
X1739900Y5626100D01*
D16*
X1739900Y4800600D02*
G01*
X1739900Y5626100D01*
D15*
X2630068Y4732299D02*
G01*
X3077499Y4732299D01*
X3157499Y4536747D02*
G01*
X3157499Y4327852D01*
X2557500Y4536747D02*
G01*
X2557500Y4327852D01*
X2630068Y4132300D02*
G01*
X3084931Y4132300D01*
X7416800Y4081790D02*
G01*
X7416800Y8897604D01*
X7416800Y8902700D02*
G01*
X7661922Y8902700D01*
X5130800Y4076700D02*
G01*
X5130800Y8902700D01*
X5130800Y8902700D02*
G01*
X4876800Y8902700D01*
X4876800Y4076700D02*
G01*
X5130800Y4076700D01*
X7670800Y4076700D02*
G01*
X7416800Y4076700D01*
X7670800Y4330700D02*
G01*
X7416800Y4330700D01*
X7416800Y4330700D01*
X7670800Y3746500D02*
G01*
X4876800Y3746500D01*
X4876800Y9232900D01*
X7670800Y9232900D01*
X7670800Y3746500D01*
X9718802Y1067003D02*
G01*
X9718802Y5247004D01*
X12088799Y5247004D01*
X12088799Y1067003D01*
X9718802Y1067003D01*
X10163302Y1295603D02*
G01*
X10163302Y2464003D01*
X11331702Y2464003D01*
X11331702Y1295603D01*
X10163302Y1295603D01*
X10049002Y1524203D02*
G01*
X10049002Y1740103D01*
X10163302Y1740103D01*
X10163302Y1524203D01*
X10049002Y1524203D01*
X10061702Y2311603D02*
G01*
X10061702Y2425903D01*
X10150602Y2425903D01*
X10150602Y2311603D01*
X10061702Y2311603D01*
X11242802Y2311603D02*
G01*
X11242802Y2464003D01*
X11331702Y2464003D01*
X11331702Y2311603D01*
X11242802Y2311603D01*
X11128502Y1219403D02*
G01*
X11128502Y1308303D01*
X11331702Y1308303D01*
X11331702Y1219403D01*
X11128502Y1219403D01*
X9944100Y3022600D02*
G01*
X9944100Y3619500D01*
X10363200Y3619500D01*
X10363200Y3022600D01*
X9944100Y3022600D01*
X11331575Y3543300D02*
G01*
X11331575Y4178300D01*
X11706225Y4178300D01*
X11706225Y3543300D01*
X11331575Y3543300D01*
X11166475Y3733800D02*
G01*
X11166475Y4000500D01*
X11318875Y4000500D01*
X11318875Y3733800D01*
X11166475Y3733800D01*
X11722100Y3606800D02*
G01*
X11722100Y3644900D01*
X11912600Y3644900D01*
X11912600Y3606800D01*
X11722100Y3606800D01*
X11722100Y4064000D02*
G01*
X11722100Y4102100D01*
X11912600Y4102100D01*
X11912600Y4064000D01*
X11722100Y4064000D01*
X11709400Y3835400D02*
G01*
X11709400Y3886200D01*
X11912600Y3886200D01*
X11912600Y3835400D01*
X11709400Y3835400D01*
X15569102Y8932699D02*
G01*
X16369103Y8932699D01*
X15569102Y8314783D02*
G01*
X16369103Y8314783D01*
X16369103Y8932707D02*
G01*
X16369103Y8312706D01*
X15397299Y8946337D02*
G01*
X15562300Y8946337D01*
X15397299Y8290902D02*
G01*
X15562300Y8290902D01*
X15562300Y8290902D02*
G01*
X15562300Y8947701D01*
X15397299Y7865899D02*
G01*
X15397299Y9365902D01*
X12597302Y7865899D02*
G01*
X15397299Y7865899D01*
X12904007Y9137909D02*
G01*
X13119008Y9137909D01*
X13119008Y8117903D01*
X12608999Y8117903D01*
X12608999Y9137909D01*
X12904007Y9137909D01*
X12864010Y9137909D02*
G01*
X12864010Y8882910D01*
X12608999Y8882910D01*
X12597302Y9365902D02*
G01*
X15397299Y9365902D01*
X12597302Y7865899D02*
G01*
X12597302Y9365902D01*
X912997Y3192099D02*
G01*
X3513195Y3192099D01*
X3513195Y1282019D01*
X912997Y1282019D01*
X912997Y3192099D01*
D11*
X8497900Y9139986D02*
G01*
X8697899Y9139986D01*
X8497900Y8640013D02*
G01*
X8697899Y8640013D01*
X8347913Y8960002D02*
G01*
X8347913Y8979992D01*
X8347913Y8800007D02*
G01*
X8347913Y8819997D01*
X8847886Y8800007D02*
G01*
X8847886Y8819997D01*
X8847886Y8960002D02*
G01*
X8847886Y8979992D01*
D17*
X8417890Y9139986D02*
G01*
X8387892Y9139986D01*
X8377910Y9130004D01*
X8847886Y9130004D02*
G01*
X8847886Y9139986D01*
X8827897Y9139986D01*
X8847886Y8649995D02*
G01*
X8847886Y8640013D01*
X8827897Y8640013D01*
X8367902Y8640013D02*
G01*
X8347913Y8640013D01*
X8347913Y8649995D01*
D15*
X13517499Y1910892D02*
G01*
X12517500Y1910892D01*
X13518032Y1296466D02*
G01*
X13557504Y1279100D01*
X13557504Y1379100D01*
X13518032Y1359407D01*
X13517499Y1229100D02*
G01*
X12517500Y1229100D01*
X13517499Y1229100D02*
G01*
X13517499Y1989099D01*
X12517500Y1229100D02*
G01*
X12517500Y1989099D01*
X13517499Y1989099D02*
G01*
X12517500Y1989099D01*
X13517499Y1449019D02*
G01*
X12517500Y1449019D01*
X15646400Y4296003D02*
G01*
X12646406Y4296003D01*
X12646406Y6096000D01*
X15646400Y6096000D01*
X15646400Y4296003D01*
D18*
X7086854Y3200654D02*
G01*
X7594854Y3200654D01*
X7594854Y3454654D01*
X7086854Y3454654D01*
X7086854Y3200654D01*
D15*
X11674299Y7982696D02*
G01*
X11414300Y7982696D01*
X10518599Y8008096D02*
G01*
X10258600Y8008096D01*
X10429240Y6129020D02*
G01*
X10429240Y6367779D01*
X10429240Y6367779D02*
G01*
X11059159Y6367779D01*
X11059159Y6367779D02*
G01*
X11059159Y6129020D01*
X11059159Y6129020D02*
G01*
X10429240Y6129020D01*
X11054079Y7089139D02*
G01*
X10815320Y7089139D01*
X10815320Y7089139D02*
G01*
X10815320Y7719060D01*
X10815320Y7719060D02*
G01*
X11054079Y7719060D01*
X11054079Y7719060D02*
G01*
X11054079Y7089139D01*
X9822179Y7127239D02*
G01*
X9583420Y7127239D01*
X9583420Y7127239D02*
G01*
X9583420Y7757160D01*
X9583420Y7757160D02*
G01*
X9822179Y7757160D01*
X9822179Y7757160D02*
G01*
X9822179Y7127239D01*
X8948420Y7985760D02*
G01*
X9187179Y7985760D01*
X9187179Y7985760D02*
G01*
X9187179Y7355839D01*
X9187179Y7355839D02*
G01*
X8948420Y7355839D01*
X8948420Y7355839D02*
G01*
X8948420Y7985760D01*
X8361679Y7330439D02*
G01*
X8122920Y7330439D01*
X8122920Y7330439D02*
G01*
X8122920Y7960360D01*
X8122920Y7960360D02*
G01*
X8361679Y7960360D01*
X8361679Y7960360D02*
G01*
X8361679Y7330439D01*
X5209540Y3233420D02*
G01*
X5209540Y3472179D01*
X5209540Y3472179D02*
G01*
X5839459Y3472179D01*
X5839459Y3472179D02*
G01*
X5839459Y3233420D01*
X5839459Y3233420D02*
G01*
X5209540Y3233420D01*
X9433559Y6545579D02*
G01*
X9433559Y6306820D01*
X9433559Y6306820D02*
G01*
X8803640Y6306820D01*
X8803640Y6306820D02*
G01*
X8803640Y6545579D01*
X8803640Y6545579D02*
G01*
X9433559Y6545579D01*
X8854440Y5875020D02*
G01*
X8854440Y6113779D01*
X8854440Y6113779D02*
G01*
X9484359Y6113779D01*
X9484359Y6113779D02*
G01*
X9484359Y5875020D01*
X9484359Y5875020D02*
G01*
X8854440Y5875020D01*
X8818879Y7330439D02*
G01*
X8580120Y7330439D01*
X8580120Y7330439D02*
G01*
X8580120Y7960360D01*
X8580120Y7960360D02*
G01*
X8818879Y7960360D01*
X8818879Y7960360D02*
G01*
X8818879Y7330439D01*
D18*
X1854454Y4343145D02*
G01*
X1854454Y3835145D01*
X2108454Y3835145D01*
X2108454Y4343145D01*
X1854454Y4343145D01*
D15*
G75*
G01*
X3328957Y6553200D02*
G02*
X3558299Y6458204I1J-324338D01*
G75*
G01*
X2194204Y6458201D02*
G02*
X2423551Y6553200I229347J-229346D01*
G75*
G01*
X15579090Y2870708D02*
G03*
X15603982Y2890774I1316J23840D01*
G75*
G01*
X15603982Y3445764D02*
G03*
X15584170Y3470656I-23837J1358D01*
D11*
G75*
G01*
X8645550Y8690000D02*
G03*
X8645550Y8690483I22351J242D01*
D15*
G75*
G01*
X11406124Y7979867D02*
G03*
X11682476Y7979867I138176J-220244D01*
G75*
G01*
X10250424Y8005267D02*
G03*
X10526776Y8005267I138176J-220244D01*
G75*
G01
X4299458Y1630426D02*
G03X4299458Y1630426I-74930J0D01*
G75*
G01
X4399534Y1630426D02*
G03X4399534Y1630426I-175006J0D01*
G75*
G01
X5442458Y1630426D02*
G03X5442458Y1630426I-74930J0D01*
G75*
G01
X5542534Y1630426D02*
G03X5542534Y1630426I-175006J0D01*
G75*
G01
X6661658Y1655826D02*
G03X6661658Y1655826I-74930J0D01*
G75*
G01
X6761734Y1655826D02*
G03X6761734Y1655826I-175006J0D01*
G75*
G01
X7855458Y1655826D02*
G03X7855458Y1655826I-74930J0D01*
G75*
G01
X7955534Y1655826D02*
G03X7955534Y1655826I-175006J0D01*
G75*
G01
X9061958Y1668526D02*
G03X9061958Y1668526I-74930J0D01*
G75*
G01
X9162034Y1668526D02*
G03X9162034Y1668526I-175006J0D01*
G75*
G01
X2000301Y6663207D02*
G03X2000301Y6663207I-127000J0D01*
G75*
G01
X4070299Y6663207D02*
G03X4070299Y6663207I-127000J0D01*
G75*
G01
X4070299Y8983193D02*
G03X4070299Y8983193I-127000J0D01*
G75*
G01
X2000301Y8983193D02*
G03X2000301Y8983193I-127000J0D01*
G75*
G01
X2953258Y5402326D02*
G03X2953258Y5402326I-74930J0D01*
G75*
G01
X3053334Y5402326D02*
G03X3053334Y5402326I-175006J0D01*
G75*
G01
X2927858Y4437126D02*
G03X2927858Y4437126I-74930J0D01*
G75*
G01
X3027934Y4437126D02*
G03X3027934Y4437126I-175006J0D01*
G75*
G01
X12576226Y9027897D02*
G03X12576226Y9027897I-27229J0D01*
M02*
